<?xml version="1.0" encoding="utf-8"?>
<!-- Generator: Adobe Illustrator 22.1.0, SVG Export Plug-In . SVG Version: 6.00 Build 0)  -->
<svg version="1.1" id="Layer_1" xmlns="http://www.w3.org/2000/svg" xmlns:xlink="http://www.w3.org/1999/xlink" x="0px" y="0px"
	 viewBox="0 0 14 16" style="enable-background:new 0 0 14 16;" xml:space="preserve">
<style type="text/css">
	.st0{fill:#767E83;}
</style>
<title>T</title>
<desc>Created with Sketch.</desc>
<path class="st0" d="M0,0v4.3h0.4C0.6,3.2,1,2.2,1.7,1.6C2.2,1.1,2.9,0.9,4,0.9h1.1v12.3c0,0.8,0,1.3-0.1,1.5
	c-0.1,0.3-0.3,0.5-0.5,0.6c-0.3,0.2-0.6,0.2-1.1,0.2H2.9V16h8.2v-0.4h-0.5c-0.4,0-0.8-0.1-1.1-0.2C9.2,15.2,9.1,15,9,14.8
	c-0.1-0.2-0.1-0.7-0.1-1.5V0.9H10c0.7,0,1.2,0.1,1.5,0.2c0.5,0.3,0.9,0.6,1.2,1c0.3,0.4,0.6,1.2,0.8,2.2H14V0H0z"/>
</svg>
