<?xml version="1.0" encoding="utf-8"?>
<!-- Generator: Avocode 2.4.3-3630f5a - http://avocode.com -->
<svg height="59" width="57" xmlns:xlink="http://www.w3.org/1999/xlink" xmlns="http://www.w3.org/2000/svg" viewBox="0 0 57 59">
    <path stroke-linejoin="miter" stroke-linecap="butt" stroke-width="4" stroke="#cfd5e0" fill="#cfd5e0" fill-rule="evenodd" d="M 28.68 54.31 C 42.95 54.31 54.52 42.74 54.52 28.47 C 54.52 14.2 42.95 2.63 28.68 2.63 C 14.41 2.63 2.85 14.2 2.85 28.47 C 2.85 42.74 14.41 54.31 28.68 54.31 Z M 28.68 54.31" />
    <path fill="#ffffff" fill-rule="evenodd" d="M 33.59 43.2 C 33.43 41.43 33.49 40.2 33.49 38.59 C 34.29 38.17 35.71 35.5 35.95 33.24 C 36.57 33.19 37.56 32.58 37.84 30.16 C 38 28.86 37.38 28.13 37.01 27.9 C 38.02 24.82 40.13 15.32 33.11 14.33 C 32.39 13.06 30.54 12.41 28.13 12.41 C 18.52 12.59 17.36 19.73 19.46 27.9 C 19.09 28.13 18.47 28.86 18.63 30.16 C 18.92 32.58 19.9 33.19 20.52 33.24 C 20.76 35.5 22.24 38.17 23.03 38.59 C 23.03 40.2 23.09 41.43 22.93 43.2 C 21.56 46.9 14.53 47.19 10.47 50.77 C 14.71 55.08 21.59 58.15 28.84 58.15 C 36.1 58.15 44.63 52.38 46.05 50.81 C 42.02 47.2 34.97 46.92 33.59 43.2 L 33.59 43.2 Z M 33.59 43.2" />
</svg>