<?xml version="1.0" encoding="utf-8"?>
<!-- Generator: Adobe Illustrator 18.0.0, SVG Export Plug-In . SVG Version: 6.00 Build 0)  -->
<svg version="1.1" id="Слой_1" xmlns="http://www.w3.org/2000/svg" xmlns:xlink="http://www.w3.org/1999/xlink" x="0px" y="0px"
	 width="70px" height="72px" viewBox="0 0 70 72" enable-background="new 0 0 70 72" xml:space="preserve">
<path fill="#CFD5E0" stroke="#CFD5E0" stroke-width="4" d="M34.96,67.84c18.16,0,32.88-14.72,32.88-32.88S53.12,2.08,34.96,2.08
	S2.08,16.8,2.08,34.96S16.8,67.84,34.96,67.84z"/>
<path fill="#FFFFFF" d="M41.21,52.89c-0.2-2.25-0.13-3.82-0.13-5.87c1.01-0.53,2.82-3.93,3.13-6.8c0.79-0.07,2.04-0.85,2.41-3.93
	c0.2-1.65-0.59-2.58-1.07-2.87c1.29-3.92,3.98-16.02-4.96-17.27c-0.92-1.62-3.27-2.45-6.33-2.45c-12.24,0.23-13.72,9.31-11.03,19.72
	c-0.48,0.29-1.27,1.22-1.07,2.87c0.37,3.08,1.62,3.86,2.41,3.93c0.31,2.87,2.19,6.27,3.2,6.8c0,2.05,0.07,3.62-0.13,5.87
	c-1.74,4.72-10.69,5.09-15.86,9.64c5.4,5.47,14.15,9.39,23.39,9.39c9.23,0,20.09-7.34,21.89-9.35
	C51.93,57.98,42.96,57.62,41.21,52.89L41.21,52.89z"/>
</svg>
