<?xml version="1.0" encoding="utf-8"?>
<!-- Generator: Avocode 2.4.3-3630f5a - http://avocode.com -->
<svg height="106" width="110" xmlns:xlink="http://www.w3.org/1999/xlink" xmlns="http://www.w3.org/2000/svg" viewBox="0 0 110 106">
    <path stroke-linejoin="miter" stroke-linecap="round" stroke-width="3" stroke="#c374d3" fill="none" fill-rule="evenodd" d="M 97.5 26.5 L 107.5 19.5" />
    <path stroke-linejoin="miter" stroke-linecap="round" stroke-width="3" stroke="#c374d3" fill="none" fill-rule="evenodd" d="M 59.61 14.1 L 59.39 1.9" />
    <path stroke-linejoin="miter" stroke-linecap="round" stroke-width="3" stroke="#c374d3" fill="none" fill-rule="evenodd" d="M 59.61 104.1 L 59.39 91.9" />
    <path fill="#3caca2" fill-rule="evenodd" d="M 44.5 90 C 45.33 90 46 89.33 46 88.5 C 46 87.67 45.33 87 44.5 87 C 43.67 87 43 87.67 43 88.5 C 43 89.33 43.67 90 44.5 90 Z M 44.5 90" />
    <path fill="#3caca2" fill-rule="evenodd" d="M 61.5 82 C 62.33 82 63 81.33 63 80.5 C 63 79.67 62.33 79 61.5 79 C 60.67 79 60 79.67 60 80.5 C 60 81.33 60.67 82 61.5 82 Z M 61.5 82" />
    <path fill="#3caca2" fill-rule="evenodd" d="M 69.75 89.5 C 70.16 89.5 70.5 89.16 70.5 88.75 C 70.5 88.34 70.16 88 69.75 88 C 69.34 88 69 88.34 69 88.75 C 69 89.16 69.34 89.5 69.75 89.5 Z M 69.75 89.5" />
    <path fill="#cfd5e0" fill-rule="evenodd" d="M 86 28 C 86.55 28 87 27.55 87 27 C 87 26.45 86.55 26 86 26 C 85.45 26 85 26.45 85 27 C 85 27.55 85.45 28 86 28 Z M 86 28" />
    <path fill="#3caca2" fill-rule="evenodd" d="M 85 47 C 85.55 47 86 46.55 86 46 C 86 45.45 85.55 45 85 45 C 84.45 45 84 45.45 84 46 C 84 46.55 84.45 47 85 47 Z M 85 47" />
    <path fill="#3caca2" fill-rule="evenodd" d="M 25 24 C 25.55 24 26 23.55 26 23 C 26 22.45 25.55 22 25 22 C 24.45 22 24 22.45 24 23 C 24 23.55 24.45 24 25 24 Z M 25 24" />
    <path fill="#3caca2" fill-rule="evenodd" d="M 11 73 C 12.1 73 13 72.1 13 71 C 13 69.9 12.1 69 11 69 C 9.9 69 9 69.9 9 71 C 9 72.1 9.9 73 11 73 Z M 11 73" />
    <path stroke-linejoin="miter" stroke-linecap="round" stroke-width="3" stroke="#4a90e2" fill="none" fill-rule="evenodd" d="M 97.5 80.5 L 108.5 89.5" />
    <path stroke-linejoin="miter" stroke-linecap="round" stroke-width="3" stroke="#e7b721" fill="none" fill-rule="evenodd" d="M 80.5 88.5 L 82.9 92.5" />
    <path stroke-linejoin="miter" stroke-linecap="round" stroke-width="3" stroke="#e7b721" fill="none" fill-rule="evenodd" d="M 33.5 13 L 35.9 17" />
    <path stroke-linejoin="miter" stroke-linecap="round" stroke-width="3" stroke="#e7b721" fill="none" fill-rule="evenodd" d="M 84.5 16.1 L 82.9 18.1" />
    <path stroke-linejoin="miter" stroke-linecap="round" stroke-width="3" stroke="#e7b721" fill="none" fill-rule="evenodd" d="M 102 53.1 L 98.9 53.1" />
    <path stroke-linejoin="miter" stroke-linecap="round" stroke-width="3" stroke="#c374d3" fill="none" fill-rule="evenodd" d="M 14 56 L 10 57" />
    <path stroke-linejoin="miter" stroke-linecap="round" stroke-width="3" stroke="#4a90e2" fill="none" fill-rule="evenodd" d="M 15.5 28.5 L 1.5 20.5" />
    <path stroke-linejoin="miter" stroke-linecap="round" stroke-width="3" stroke="#e7b721" fill="none" fill-rule="evenodd" d="M 13.5 84.5 L 3.5 91.5" />
</svg>