<?xml version="1.0" encoding="utf-8"?>
<!-- Generator: Avocode 2.4.3-3630f5a - http://avocode.com -->
<svg height="69" width="69" xmlns:xlink="http://www.w3.org/1999/xlink" xmlns="http://www.w3.org/2000/svg" viewBox="0 0 69 69">
    <defs>
        <linearGradient y2="100%" y1="0%" x2="0%" x1="0%" id="gradient-1">
            <stop stop-color="#ecbb24" offset="0%" />
            <stop stop-color="#e8b000" offset="100%" />
        </linearGradient>
    </defs>
    <path fill="url(#gradient-1)" fill-rule="evenodd" d="M 0 3.01 C 0 1.35 1.35 0 3.01 0 L 65.99 0 C 67.65 0 69 1.35 69 3.01 L 69 65.99 C 69 67.65 67.65 69 65.99 69 L 3.01 69 C 1.35 69 0 67.65 0 65.99 L 0 3.01 Z M 0 3.01" />
    <path fill="#ffffff" fill-rule="evenodd" d="M -7 31 L 37 31 L 37 39 L -7 39 L -7 31 Z M -7 31" />
    <path fill="#ffffff" fill-rule="evenodd" d="M 32 31 L 76 31 L 76 39 L 32 39 L 32 31 Z M 32 31" />
    <path fill="#ffffff" fill-rule="evenodd" d="M 26 25 L 60 25 L 60 33 L 26 33 L 26 25 Z M 26 25" />
    <path fill="#ffffff" opacity="0.44" fill-rule="evenodd" d="M 35 44 L 36 44 L 36 45 L 35 45 L 35 44 Z M 35 44" />
    <path fill="#ffffff" opacity="0.44" fill-rule="evenodd" d="M 33 44 L 34 44 L 34 45 L 33 45 L 33 44 Z M 33 44" />
    <path fill="#ffffff" fill-rule="evenodd" d="M 34 44 L 35 44 L 35 45 L 34 45 L 34 44 Z M 34 44" />
    <path fill="#ffffff" fill-rule="evenodd" d="M 9 25 L 43 25 L 43 33 L 9 33 L 9 25 Z M 9 25" />
</svg>