<?xml version="1.0" encoding="UTF-8" standalone="no"?>
<svg width="16px" height="16px" viewBox="0 0 16 16" version="1.1" xmlns="http://www.w3.org/2000/svg" xmlns:xlink="http://www.w3.org/1999/xlink" xmlns:sketch="http://www.bohemiancoding.com/sketch/ns">
    <!-- Generator: Sketch 3.4 (15588) - http://www.bohemiancoding.com/sketch -->
    <title>File icon PDF</title>
    <desc>Created with Sketch.</desc>
    <defs></defs>
    <g id="assets" stroke="none" stroke-width="1" fill="none" fill-rule="evenodd" sketch:type="MSPage">
        <g id="File-icon-PDF" sketch:type="MSLayerGroup">
            <rect id="Rectangle-128" fill="#ED1C24" sketch:type="MSShapeGroup" x="0" y="0" width="16" height="16"></rect>
            <path d="M1,9 L2,9 L2,14 L1,14 L1,9 Z M2,9 L4,9 L4,10 L2,10 L2,9 Z M2,11 L4,11 L4,12 L2,12 L2,11 Z M4,10 L5,10 L5,11 L4,11 L4,10 Z M11,9 L12,9 L12,14 L11,14 L11,9 Z M12,9 L14,9 L14,10 L12,10 L12,9 Z M12,11 L13,11 L13,12 L12,12 L12,11 Z M9,10 L10,10 L10,13 L9,13 L9,10 Z M6,9 L7,9 L7,14 L6,14 L6,9 Z M7,9 L9,9 L9,10 L7,10 L7,9 Z M7,13 L9,13 L9,14 L7,14 L7,13 Z" id="Rectangle-3037" fill="#FFFFFF" sketch:type="MSShapeGroup"></path>
        </g>
    </g>
</svg>