<?xml version="1.0" encoding="utf-8"?>
<!-- Generator: Avocode 2.4.3-3630f5a - http://avocode.com -->
<svg height="55" width="55" xmlns:xlink="http://www.w3.org/1999/xlink" xmlns="http://www.w3.org/2000/svg" viewBox="0 0 55 55">
    <path fill="#cfd5e0" fill-rule="evenodd" d="M 0 3 C 0 1.34 1.35 0 3 0 L 52 0 C 53.66 0 55 1.35 55 3 L 55 52 C 55 53.66 53.65 55 52 55 L 3 55 C 1.34 55 0 53.65 0 52 L 0 3 Z M 0 3" />
    <path fill="#ffffff" fill-rule="evenodd" d="M 9 12 L 45 12 L 45 18 L 9 18 L 9 12 Z M 9 12" />
    <path fill="#ffffff" fill-rule="evenodd" d="M 30 15 L 30 45 L 24 45 L 24 15 L 30 15 L 30 15 Z M 30 15" />
</svg>