<?xml version="1.0" encoding="utf-8"?>
<!-- Generator: Avocode 2.4.3-3630f5a - http://avocode.com -->
<svg height="122" width="153" xmlns:xlink="http://www.w3.org/1999/xlink" xmlns="http://www.w3.org/2000/svg" viewBox="0 0 153 122">
    <path stroke-linejoin="miter" stroke-linecap="butt" stroke-width="3" stroke="#899bac" fill="#899bac" fill-rule="evenodd" d="M 69 15 L 53.55 0 L 15.3 0 C 6.88 0 0 6.86 0 15.25 L 0 106.75 C 0 115.14 6.88 122 15.3 122 L 137.7 122 C 146.12 122 153 115.14 153 106.75 L 153 30.5 C 153 22.11 146.11 15 137.7 15 L 69 15 Z M 69 15" />
    <path fill="#ffffff" fill-rule="evenodd" d="M 81 63 L 81 51 L 75 51 L 75 63 L 63 63 L 63 69 L 75 69 L 75 81 L 81 81 L 81 69 L 93 69 L 93 63 L 81 63 Z M 81 63" />
</svg>