<?xml version="1.0" encoding="utf-8"?>
<!-- Generator: Avocode 2.4.3-3630f5a - http://avocode.com -->
<svg height="14" width="14" xmlns:xlink="http://www.w3.org/1999/xlink" xmlns="http://www.w3.org/2000/svg" viewBox="0 0 14 14">
    <path fill-opacity="0.2" fill="#ffffff" fill-rule="evenodd" d="M 13.81 12.57 L 10.27 9.03 C 10.94 8.11 11.34 6.97 11.34 5.74 C 11.34 2.65 8.84 0.14 5.74 0.14 C 2.65 0.14 0.14 2.65 0.14 5.74 C 0.14 8.84 2.65 11.34 5.74 11.34 C 6.97 11.34 8.11 10.94 9.03 10.27 L 12.57 13.81 L 13.81 12.57 L 13.81 12.57 Z M 5.74 9.59 C 3.62 9.59 1.89 7.86 1.89 5.74 C 1.89 3.62 3.62 1.89 5.74 1.89 C 7.86 1.89 9.59 3.62 9.59 5.74 C 9.59 7.86 7.86 9.59 5.74 9.59 L 5.74 9.59 Z M 5.74 9.59" />
</svg>