<?xml version="1.0" encoding="utf-8"?>
<!-- Generator: Adobe Illustrator 22.1.0, SVG Export Plug-In . SVG Version: 6.00 Build 0)  -->
<svg version="1.1" id="Layer_1" xmlns="http://www.w3.org/2000/svg" xmlns:xlink="http://www.w3.org/1999/xlink" x="0px" y="0px"
	 viewBox="0 0 24 21" style="enable-background:new 0 0 24 21;" xml:space="preserve">
<style type="text/css">
	.st0{fill:#767E83;}
	.st1{fill:#FFFFFF;}
</style>
<title>Group 2</title>
<desc>Created with Sketch.</desc>
<g>
	<path class="st0" d="M0,0v21h24V0H0z M21,18H3V6h18V18z"/>
	<path class="st1" d="M3,18h18V6H3V18z M15.1,9.1h1.1v6.6h-1.4v-3.8l0-0.6l0-0.7c-0.2,0.2-0.4,0.4-0.5,0.5l-0.8,0.6L13,10.8
		L15.1,9.1z M7.5,14.2c0.3,0.1,0.5,0.2,0.8,0.3c0.3,0.1,0.6,0.1,0.9,0.1c0.5,0,0.8-0.1,1-0.2c0.2-0.2,0.3-0.4,0.3-0.8
		c0-0.3-0.1-0.5-0.4-0.7S9.6,12.8,9,12.8H8.5v-1.1H9c0.5,0,0.9-0.1,1.1-0.2s0.4-0.4,0.4-0.7c0-0.5-0.3-0.8-0.9-0.8
		c-0.2,0-0.4,0-0.7,0.1c-0.2,0.1-0.5,0.2-0.7,0.4l-0.6-1C8.1,9.2,8.8,9,9.7,9c0.7,0,1.2,0.1,1.6,0.4c0.4,0.3,0.6,0.7,0.6,1.2
		c0,0.4-0.1,0.8-0.4,1.1c-0.3,0.3-0.6,0.5-1.1,0.6v0c0.5,0.1,0.9,0.2,1.2,0.5c0.3,0.3,0.4,0.6,0.4,1c0,0.6-0.2,1.1-0.7,1.5
		c-0.5,0.4-1.1,0.5-2,0.5c-0.7,0-1.4-0.1-1.9-0.4V14.2z"/>
	<path class="st0" d="M14.4,11c0.1-0.1,0.3-0.2,0.5-0.5l0,0.7l0,0.6v3.8h1.4V9.1h-1.1L13,10.8l0.7,0.8L14.4,11z"/>
	<path class="st0" d="M11.4,15.3c0.5-0.4,0.7-0.8,0.7-1.5c0-0.4-0.1-0.8-0.4-1c-0.3-0.3-0.7-0.4-1.2-0.5v0c0.5-0.1,0.8-0.3,1.1-0.6
		c0.3-0.3,0.4-0.6,0.4-1.1c0-0.5-0.2-0.9-0.6-1.2C10.9,9.1,10.3,9,9.7,9C8.8,9,8.1,9.2,7.5,9.7l0.6,1c0.3-0.2,0.5-0.3,0.7-0.4
		c0.2-0.1,0.4-0.1,0.7-0.1c0.6,0,0.9,0.3,0.9,0.8c0,0.3-0.1,0.6-0.4,0.7S9.5,11.8,9,11.8H8.5v1.1H9c0.6,0,1,0.1,1.2,0.2
		s0.4,0.3,0.4,0.7c0,0.3-0.1,0.6-0.3,0.8c-0.2,0.2-0.6,0.2-1,0.2c-0.3,0-0.6,0-0.9-0.1c-0.3-0.1-0.6-0.2-0.8-0.3v1.2
		c0.6,0.2,1.2,0.4,1.9,0.4C10.3,15.8,10.9,15.6,11.4,15.3z"/>
</g>
</svg>
