<?xml version="1.0" encoding="utf-8"?>
<!-- Generator: Adobe Illustrator 21.0.2, SVG Export Plug-In . SVG Version: 6.00 Build 0)  -->
<svg version="1.1" id="Capa_1" xmlns="http://www.w3.org/2000/svg" xmlns:xlink="http://www.w3.org/1999/xlink" x="0px" y="0px"
	 viewBox="0 0 5 10.7" style="enable-background:new 0 0 5 10.7;" xml:space="preserve">
<path style="fill:#C5C5C5;" d="M3.8,0c0.8,0,1.1,0.5,1.1,1c0,0.7-0.6,1.4-1.5,1.4C2.5,2.4,2.2,2,2.2,1.3C2.2,0.8,2.6,0,3.8,0z
	 M1.6,10.7c-0.6,0-1-0.3-0.6-1.9l0.7-2.7c0.1-0.4,0.1-0.6,0-0.6c-0.2,0-0.9,0.3-1.4,0.6L0,5.6c1.4-1.2,3-1.9,3.7-1.9
	c0.6,0,0.7,0.7,0.4,1.7L3.3,8.4C3.2,8.9,3.2,9,3.4,9c0.2,0,0.7-0.2,1.3-0.6L5,8.8C3.6,10.2,2.2,10.7,1.6,10.7z"/>
</svg>
