<?xml version="1.0" encoding="UTF-8"?>
<svg width="25px" height="25px" viewBox="0 0 25 25" version="1.1" xmlns="http://www.w3.org/2000/svg" xmlns:xlink="http://www.w3.org/1999/xlink">
    <!-- Generator: sketchtool 46.2 (44496) - http://www.bohemiancoding.com/sketch -->
    <title>FE007719-2164-43EA-9567-17A073F59082</title>
    <desc>Created with sketchtool.</desc>
    <defs>
        <path d="M10.5,21 C16.2989899,21 21,16.2989899 21,10.5 C21,4.70101013 16.2989899,0 10.5,0 C4.70101013,0 0,4.70101013 0,10.5 C0,16.2989899 4.70101013,21 10.5,21 Z" id="path-1"></path>
    </defs>
    <g id="REP-Dashboard" stroke="none" stroke-width="1" fill="none" fill-rule="evenodd">
        <g id="ME_Step_3@2x" transform="translate(-675.000000, -279.000000)">
            <g id="Group-26" transform="translate(640.000000, 226.000000)">
                <g id="Group-14" transform="translate(0.000000, 43.000000)">
                    <g id="status-12-sent-icon" transform="translate(37.000000, 12.000000)">
                        <g id="Oval-12-Copy-2">
                            <use fill="#88959C" fill-rule="evenodd" xlink:href="#path-1"></use>
                            <path stroke="#FFFFFF" stroke-width="2" d="M10.5,22 C4.14872538,22 -1,16.8512746 -1,10.5 C-1,4.14872538 4.14872538,-1 10.5,-1 C16.8512746,-1 22,4.14872538 22,10.5 C22,16.8512746 16.8512746,22 10.5,22 Z"></path>
                        </g>
                        <g id="hourglass-2" transform="translate(6.000000, 5.000000)" fill-rule="nonzero" fill="#FFFFFF">
                            <path d="M7.01578754,4.05579355 C7.38944766,3.81533874 7.6140625,3.41078728 7.6140625,2.97760151 L7.6140625,0.917766462 L1.90351562,0.917766462 L1.90351562,2.97760151 C1.90351562,3.41078728 2.12813047,3.81533874 2.50179059,4.05579355 L4.37808594,5.26192223 L4.37808594,5.75145886 L2.50179059,6.95758755 C2.12813047,7.19785881 1.90351562,7.60241027 1.90351562,8.03559604 L1.90351562,10.0954311 L7.6140625,10.0954311 L7.6140625,8.03559604 C7.6140625,7.60241027 7.38944766,7.19785881 7.01578754,6.957404 L5.13949219,5.75127531 L5.13949219,5.26173868 L7.01578754,4.05579355 Z" id="Shape"></path>
                            <rect id="Rectangle-path" x="0.951757812" y="10.0954311" width="7.6140625" height="1"></rect>
                            <path d="M9.32722656,10.646091 L8.75617188,10.646091 L8.75617188,9.91187779 L0.76140625,9.91187779 L0.76140625,10.646091 L0.190351563,10.646091 C0.0852775,10.646091 0,10.7281393 0,10.8296443 C0,10.9311492 0.0852775,11.0131975 0.190351563,11.0131975 L0.76140625,11.0131975 L0.951757813,11.0131975 L8.56582031,11.0131975 L8.75617188,11.0131975 L9.32722656,11.0131975 C9.43230063,11.0131975 9.51757813,10.9311492 9.51757813,10.8296443 C9.51757813,10.7281393 9.43230063,10.646091 9.32722656,10.646091 Z M1.14210937,10.2789844 L8.37546875,10.2789844 L8.37546875,10.646091 L1.14210937,10.646091 L1.14210937,10.2789844 Z" id="Shape"></path>
                            <rect id="Rectangle-path" x="0.951757812" y="0.183553292" width="7.6140625" height="1"></rect>
                            <path d="M9.32722656,0 L8.75617188,0 L8.56582031,0 L0.951757813,0 L0.76140625,0 L0.190351563,0 C0.0852775,0 0,0.0820483217 0,0.183553292 C0,0.285058263 0.0852775,0.367106585 0.190351563,0.367106585 L0.76140625,0.367106585 L0.76140625,1.10131975 L8.75617188,1.10131975 L8.75617188,0.367106585 L9.32722656,0.367106585 C9.43230063,0.367106585 9.51757813,0.285058263 9.51757813,0.183553292 C9.51757813,0.0820483217 9.43230063,0 9.32722656,0 Z M8.37546875,0.73421317 L1.14210937,0.73421317 L1.14210937,0.367106585 L8.37546875,0.367106585 L8.37546875,0.73421317 Z" id="Shape"></path>
                            <path d="M3.8068409,4.40527902 C3.7706741,4.40527902 3.73393625,4.39518359 3.70138613,4.37444206 L2.81853559,3.80689528 C2.60324797,3.6684961 2.47457031,3.43685185 2.47457031,3.18685226 L2.47457031,2.77899685 C2.47457031,2.67749188 2.55984781,2.59544355 2.66492188,2.59544355 C2.76999594,2.59544355 2.85527344,2.67749188 2.85527344,2.77899685 L2.85527344,3.18685226 C2.85527344,3.31350403 2.92056402,3.4311617 3.02982582,3.50146261 L3.91267637,4.06900939 C4.00004773,4.12536025 4.02365133,4.23916329 3.96540375,4.3235978 C3.9286659,4.3766447 3.86832445,4.40527902 3.8068409,4.40527902 Z" id="Shape"></path>
                            <path d="M6.85265625,8.44345145 C6.74758219,8.44345145 6.66230469,8.36140313 6.66230469,8.25989816 L6.66230469,7.85204274 C6.66230469,7.72539097 6.5970141,7.60773331 6.4877523,7.5374324 L5.60490176,6.96988562 C5.51753039,6.91353476 5.4939268,6.79973172 5.55217437,6.7152972 C5.6106123,6.63086269 5.72843992,6.60810208 5.81619199,6.66445294 L6.69904254,7.23199972 C6.91433016,7.3703989 7.04300781,7.60222671 7.04300781,7.85204274 L7.04300781,8.25989816 C7.04300781,8.36140313 6.95773031,8.44345145 6.85265625,8.44345145 Z" id="Shape"></path>
                        </g>
                    </g>
                </g>
            </g>
        </g>
    </g>
</svg>