<?xml version="1.0" encoding="utf-8"?>
<!-- Generator: Adobe Illustrator 22.1.0, SVG Export Plug-In . SVG Version: 6.00 Build 0)  -->
<svg version="1.1" id="Layer_1" xmlns="http://www.w3.org/2000/svg" xmlns:xlink="http://www.w3.org/1999/xlink" x="0px" y="0px"
	 viewBox="0 0 26 16" style="enable-background:new 0 0 26 16;" xml:space="preserve">
<style type="text/css">
	.st0{fill:#767E83;}
</style>
<title>1.1</title>
<desc>Created with Sketch.</desc>
<g>
	<path class="st0" d="M13.1,12.2c-0.5,0-1,0.2-1.3,0.6c-0.4,0.4-0.6,0.8-0.6,1.3c0,0.5,0.2,1,0.6,1.3c0.4,0.4,0.8,0.6,1.3,0.6
		s1-0.2,1.4-0.6c0.4-0.4,0.6-0.8,0.6-1.3c0-0.5-0.2-1-0.6-1.3C14.1,12.4,13.7,12.2,13.1,12.2z"/>
	<path class="st0" d="M25.6,15.3c-0.6,0-1-0.1-1.3-0.2c-0.3-0.2-0.4-0.4-0.5-0.6c-0.1-0.3-0.1-0.9-0.1-1.8V0h-0.4l-5.7,2.6L17.8,3
		c0.6-0.2,1-0.4,1.4-0.4c0.2,0,0.5,0.1,0.6,0.2c0.2,0.1,0.3,0.3,0.4,0.5s0.1,0.6,0.1,1.3v8c0,1,0,1.6-0.1,1.9s-0.3,0.5-0.6,0.6
		c-0.3,0.2-0.8,0.2-1.4,0.2h-0.4v0.4H26v-0.4H25.6z"/>
	<path class="st0" d="M6.8,15c-0.3-0.2-0.4-0.4-0.5-0.6c-0.1-0.3-0.1-0.9-0.1-1.8V0H5.7L0,2.6L0.2,3c0.6-0.2,1-0.4,1.4-0.4
		c0.2,0,0.5,0.1,0.6,0.2c0.2,0.1,0.3,0.3,0.4,0.5s0.1,0.6,0.1,1.3v8c0,1,0,1.6-0.1,1.9S2.3,14.9,2,15.1c-0.3,0.2-0.8,0.2-1.4,0.2
		H0.2v0.4h8.2v-0.4H8C7.4,15.3,7,15.2,6.8,15z"/>
</g>
</svg>
