<?xml version="1.0" encoding="utf-8"?>
<!-- Generator: Adobe Illustrator 22.1.0, SVG Export Plug-In . SVG Version: 6.00 Build 0)  -->
<svg version="1.1" id="Layer_1" xmlns="http://www.w3.org/2000/svg" xmlns:xlink="http://www.w3.org/1999/xlink" x="0px" y="0px"
	 viewBox="0 0 21 22" style="enable-background:new 0 0 21 22;" xml:space="preserve">
<style type="text/css">
	.st0{fill:none;}
	.st1{fill:#767E83;}
</style>
<title>@</title>
<desc>Created with Sketch.</desc>
<g>
	<path class="st0" d="M11.1,6c-0.3,0-0.6,0.2-0.9,0.5C9.8,6.9,9.4,7.7,9,8.8c-0.8,1.9-1.2,3.5-1.2,4.6c0,0.4,0.1,0.6,0.2,0.8
		c0.1,0.2,0.3,0.3,0.5,0.3c0.2,0,0.4-0.1,0.7-0.3c0.4-0.3,0.8-0.8,1.3-1.6c0.5-0.7,0.8-1.6,1.1-2.5S12,8.3,12,7.6
		c0-0.6-0.1-1-0.3-1.3C11.5,6.1,11.3,6,11.1,6z"/>
	<path class="st1" d="M20.3,14.7c-0.7,2-2,3.6-3.8,4.8c-1.8,1.2-3.8,1.8-6,1.8c-2.7,0-4.9-0.9-6.7-2.7c-1.7-1.8-2.6-4-2.6-6.8
		c0-2,0.5-3.9,1.4-5.7s2.2-3.1,3.8-4C8,1.2,9.8,0.8,11.7,0.8c2.3,0,4.1,0.7,5.5,2.1c1.4,1.4,2.1,3.2,2.1,5.5c0,1.3-0.3,2.6-0.8,3.8
		c-0.6,1.2-1.3,2.1-2.1,2.7c-0.9,0.6-1.6,1-2.1,1c-0.3,0-0.5-0.1-0.7-0.3c-0.2-0.2-0.3-0.4-0.3-0.7c0-0.4,0.1-1,0.4-1.9l2.2-7.6
		l-2.9,0.1L12.5,7c-0.1-0.7-0.3-1.2-0.6-1.5c-0.3-0.3-0.7-0.4-1.1-0.4c-0.4,0-0.8,0.1-1.2,0.3c-0.7,0.4-1.4,0.9-2,1.5
		c-0.6,0.6-1.1,1.3-1.5,2c-0.4,0.8-0.8,1.6-1.1,2.4c-0.3,0.9-0.4,1.7-0.4,2.6c0,0.9,0.2,1.5,0.6,2c0.4,0.5,0.9,0.7,1.4,0.7
		c0.4,0,0.8-0.1,1.1-0.3c0.5-0.3,1-0.7,1.5-1.3c0.4-0.4,0.9-1.2,1.5-2.3c-0.2,0.7-0.3,1.3-0.3,1.7c0,0.6,0.2,1.1,0.6,1.5
		s1,0.6,1.8,0.6c1.2,0,2.4-0.3,3.4-1s1.9-1.7,2.6-3c0.7-1.4,1.1-2.9,1.1-4.5c0-1.4-0.3-2.8-1-4.1s-1.6-2.3-3-3
		C14.8,0.4,13.2,0,11.5,0C9.3,0,7.4,0.5,5.6,1.5c-1.8,1-3.2,2.4-4.1,4.1C0.5,7.4,0,9.3,0,11.4C0,14.5,1,17,3,19c2,2,4.5,3,7.5,3
		c2.4,0,4.5-0.6,6.3-1.9c1.8-1.3,3.2-3.1,4.2-5.4H20.3z M11.5,10.1c-0.3,0.9-0.7,1.7-1.1,2.5c-0.5,0.7-0.9,1.3-1.3,1.6
		c-0.3,0.2-0.5,0.3-0.7,0.3c-0.2,0-0.3-0.1-0.5-0.3c-0.1-0.2-0.2-0.5-0.2-0.8c0-1.2,0.4-2.7,1.2-4.6c0.5-1.1,0.9-1.8,1.3-2.3
		C10.5,6.1,10.8,6,11.1,6c0.2,0,0.4,0.1,0.5,0.3C11.9,6.6,12,7,12,7.6C12,8.3,11.8,9.2,11.5,10.1z"/>
</g>
</svg>
