<?xml version="1.0" encoding="utf-8"?>
<!-- Generator: Adobe Illustrator 22.1.0, SVG Export Plug-In . SVG Version: 6.00 Build 0)  -->
<svg version="1.1" id="Layer_1" xmlns="http://www.w3.org/2000/svg" xmlns:xlink="http://www.w3.org/1999/xlink" x="0px" y="0px"
	 viewBox="0 0 22 21" style="enable-background:new 0 0 22 21;" xml:space="preserve">
<style type="text/css">
	.st0{fill:#373D41;}
	.st1{fill:#767E83;}
</style>
<title>Group 7</title>
<desc>Created with Sketch.</desc>
<g>
	<path class="st0" d="M3,2C2.4,2,2,2.4,2,3v14.6L18.6,2H3z"/>
	<path class="st0" d="M20,18V3.4L3.4,19H19C19.6,19,20,18.6,20,18z"/>
	<path class="st1" d="M19,0H3C1.3,0,0,1.3,0,3v15c0,1.7,1.3,3,3,3h16c1.7,0,3-1.3,3-3V3C22,1.3,20.7,0,19,0z M2,17.6V3
		c0-0.6,0.4-1,1-1h15.6L2,17.6z M20,3.4V18c0,0.6-0.4,1-1,1H3.4L20,3.4z"/>
</g>
</svg>
