<?xml version="1.0" encoding="utf-8"?>
<!-- Generator: Adobe Illustrator 22.1.0, SVG Export Plug-In . SVG Version: 6.00 Build 0)  -->
<svg version="1.1" id="Layer_1" xmlns="http://www.w3.org/2000/svg" xmlns:xlink="http://www.w3.org/1999/xlink" x="0px" y="0px"
	 viewBox="0 0 23 16" style="enable-background:new 0 0 23 16;" xml:space="preserve">
<style type="text/css">
	.st0{fill:#767E83;}
</style>
<title>Group 4</title>
<desc>Created with Sketch.</desc>
<g>
	<path class="st0" d="M0,4.3h0.4c0.2-1.2,0.6-2.1,1.3-2.7C2.2,1.1,3,0.9,4.1,0.9h1.1v12.3c0,0.8,0,1.3-0.1,1.5
		c-0.1,0.3-0.3,0.5-0.5,0.6c-0.3,0.2-0.7,0.2-1.1,0.2H3v0.4h8.3v-0.4h-0.5c-0.5,0-0.8-0.1-1.1-0.2s-0.4-0.3-0.5-0.5S9,14,9,13.2V0.9
		h1.2c0.7,0,1.3,0.1,1.6,0.2c0.5,0.3,0.9,0.6,1.3,1s0.6,1.1,0.8,2.1h0.4V0H0V4.3z"/>
	<path class="st0" d="M15,7v2.4h0.2c0.1-0.6,0.3-1.1,0.7-1.5c0.3-0.3,0.7-0.4,1.3-0.4h0.6v6.8c0,0.4,0,0.7-0.1,0.8
		c-0.1,0.1-0.2,0.3-0.3,0.3c-0.2,0.1-0.4,0.1-0.6,0.1h-0.3v0.2h4.6v-0.2H21c-0.3,0-0.4,0-0.6-0.1c-0.1-0.1-0.2-0.2-0.3-0.3
		c0-0.1-0.1-0.4-0.1-0.8V7.5h0.7c0.4,0,0.7,0,0.9,0.1C21.8,7.8,22,8,22.2,8.2c0.2,0.2,0.3,0.6,0.5,1.2h0.2V7H15z"/>
</g>
</svg>
