<?xml version="1.0" encoding="utf-8"?>
<!-- Generator: Adobe Illustrator 18.1.1, SVG Export Plug-In . SVG Version: 6.00 Build 0)  -->
<svg version="1.1" id="Слой_1" xmlns="http://www.w3.org/2000/svg" xmlns:xlink="http://www.w3.org/1999/xlink" x="0px" y="0px"
	 width="23px" height="23px" viewBox="-268 469 23 23" enable-background="new -268 469 23 23" xml:space="preserve">
<path fill="#CFD5E0" d="M-251.23,491.88c0.11,0.08,0.17,0.12,0.23,0.12c0.18,0,0.24-0.12,0.24-0.32v-4.82
	c0-0.34,0.22-0.61,0.52-0.61h2.37c2.12,0,2.87-1.05,2.87-1.92v-13.41c0-0.96-0.72-1.92-2.89-1.92h-17.25
	c-2.09,0-2.86,0.93-2.86,1.92v13.41c0,0.93,0.79,1.92,2.88,1.92h5.75c0,0,1.2,0.03,1.64,0.54L-251.23,491.88z"/>
<g>
	<rect x="-257" y="474" fill="#FFFFFF" width="2" height="8"/>
</g>
<g>
	<rect x="-255" y="477" fill="#FFFFFF" width="3" height="2"/>
</g>
<g>
	<rect x="-260" y="476.875" fill="#FFFFFF" width="3" height="2"/>
</g>
</svg>
