<?xml version="1.0" encoding="utf-8"?>
<!-- Generator: Avocode 2.4.3-3630f5a - http://avocode.com -->
<svg height="18" width="18" xmlns:xlink="http://www.w3.org/1999/xlink" xmlns="http://www.w3.org/2000/svg" viewBox="0 0 18 18">
    <path fill="#3caca2" fill-rule="evenodd" d="M 5 6 L 9 6 L 13 6 L 13 15 C 13 15 12.83 15.63 12 16 C 11.15 16.38 9.64 16.5 9 16.5 C 8.18 16.5 6.88 16.42 6 16 C 5.36 15.69 5 15 5 15 L 5 6 Z M 5 6" />
    <path fill="#3caca2" fill-rule="evenodd" d="M 9 17.68 C 13.79 17.68 17.68 13.79 17.68 9 C 17.68 4.21 13.79 0.32 9 0.32 C 4.21 0.32 0.32 4.21 0.32 9 C 0.32 13.79 4.21 17.68 9 17.68 L 9 17.68 Z M 9 15.68 C 5.31 15.68 2.32 12.69 2.32 9 C 2.32 5.31 5.31 2.32 9 2.32 C 12.69 2.32 15.68 5.31 15.68 9 C 15.68 12.69 12.69 15.68 9 15.68 L 9 15.68 Z M 9 15.68" />
</svg>