<?xml version="1.0" encoding="utf-8"?>
<!-- Generated by IcoMoon.io -->
<!DOCTYPE svg PUBLIC "-//W3C//DTD SVG 1.1//EN" "http://www.w3.org/Graphics/SVG/1.1/DTD/svg11.dtd">
<svg version="1.1" xmlns="http://www.w3.org/2000/svg" xmlns:xlink="http://www.w3.org/1999/xlink" width="1229" height="1024" viewBox="0 0 1229 1024">
<g id="icomoon-ignore">
</g>
<path fill="rgb(137, 155, 172)" d="M614.4 136.533h477.867c75.093 0 136.533 61.44 136.533 136.533v614.4c0 75.093-61.44 136.533-136.533 136.533h-955.733c-75.093 0-136.533-61.44-136.533-136.533v-750.933c0-75.093 61.44-136.533 136.533-136.533h341.333l136.533 136.533zM443.733 614.4c56.554 0 102.4-45.846 102.4-102.4s-45.846-102.4-102.4-102.4c-56.554 0-102.4 45.846-102.4 102.4s45.846 102.4 102.4 102.4v0zM955.733 819.2c0-60.123-76.41-136.533-170.667-136.533s-170.667 76.41-170.667 136.533h341.333zM785.067 614.4c56.554 0 102.4-45.846 102.4-102.4s-45.846-102.4-102.4-102.4c-56.554 0-102.4 45.846-102.4 102.4s45.846 102.4 102.4 102.4v0zM614.4 819.2c0-60.123-76.41-136.533-170.667-136.533s-170.667 76.41-170.667 136.533h341.333z"></path>
</svg>
