<?xml version="1.0" encoding="utf-8"?>
<!-- Generator: Adobe Illustrator 16.0.0, SVG Export Plug-In . SVG Version: 6.00 Build 0)  -->
<!DOCTYPE svg PUBLIC "-//W3C//DTD SVG 1.1//EN" "http://www.w3.org/Graphics/SVG/1.1/DTD/svg11.dtd">
<svg version="1.1" id="Layer_1" xmlns="http://www.w3.org/2000/svg" xmlns:xlink="http://www.w3.org/1999/xlink" x="0px" y="0px"
	 width="10px" height="12px" viewBox="0 0 10 12" enable-background="new 0 0 10 12" xml:space="preserve">
<title>hourglass-2</title>
<desc>Created with Sketch.</desc>
<path fill="#EBAF7C" d="M9.8,11.186H9.2v-0.771H8V8.443c0-0.455-0.236-0.881-0.629-1.133L5.4,6.043V5.528l1.971-1.267
	C7.764,4.009,8,3.583,8,3.128V1.193h1V1.157h0.2V0.386h0.6c0.11,0,0.2-0.086,0.2-0.193C10,0.086,9.91,0,9.8,0H9.2H9H1H0.8H0.2
	C0.09,0,0,0.086,0,0.193c0,0.106,0.09,0.193,0.2,0.193h0.6v0.771H1v0.036h1v1.936c0,0.455,0.236,0.88,0.628,1.133L4.6,5.529v0.514
	L2.628,7.311C2.236,7.562,2,7.988,2,8.443v1.971H0.8v0.771H0.2c-0.11,0-0.2,0.086-0.2,0.193c0,0.106,0.09,0.192,0.2,0.192h0.6H1
	v0.036h8v-0.036h0.2h0.6c0.11,0,0.2-0.086,0.2-0.192C10,11.271,9.91,11.186,9.8,11.186z"/>
</svg>
