<?xml version="1.0" encoding="utf-8"?>
<!-- Generator: Adobe Illustrator 21.0.2, SVG Export Plug-In . SVG Version: 6.00 Build 0)  -->
<svg version="1.1" id="Capa_1" xmlns="http://www.w3.org/2000/svg" xmlns:xlink="http://www.w3.org/1999/xlink" x="0px" y="0px"
	 viewBox="0 0 27.8 59.4" style="enable-background:new 0 0 27.8 59.4;" xml:space="preserve">
<path style="fill:#C5C5C5;" d="M20.8,0c4.7,0,6.1,2.7,6.1,5.8c0,3.9-3.1,7.5-8.4,7.5c-4.4,0-6.5-2.2-6.4-5.9C12,4.3,14.6,0,20.8,0z
	 M8.8,59.4c-3.2,0-5.5-1.9-3.3-10.5l3.7-15.1c0.6-2.4,0.7-3.4,0-3.4c-1,0-5.1,1.7-7.6,3.3L0,31.1c7.8-6.5,16.7-10.3,20.5-10.3
	c3.2,0,3.7,3.8,2.1,9.6l-4.2,15.9c-0.7,2.8-0.4,3.8,0.3,3.8c1,0,4.1-1.2,7.2-3.6l1.8,2.4C20.2,56.5,12,59.4,8.8,59.4z"/>
</svg>
