<?xml version="1.0" encoding="utf-8"?>
<!-- Generator: Adobe Illustrator 22.1.0, SVG Export Plug-In . SVG Version: 6.00 Build 0)  -->
<svg version="1.1" id="Layer_1" xmlns="http://www.w3.org/2000/svg" xmlns:xlink="http://www.w3.org/1999/xlink" x="0px" y="0px"
	 viewBox="0 0 45 45" style="enable-background:new 0 0 45 45;" xml:space="preserve">
<title>Group</title>
<desc>Created with Sketch.</desc>
<path id="kr" d="M14,24.4l1.7-2.2l4.1-4.4h4.5l-5.8,6.3l6.2,8.3H20l-4.2-5.9l-1.7,1.4v4.5h-4V12h4v9.1L14,24.4L14,24.4z M34.9,17.4
	c0.5,0,1,0,1.3,0.1l-0.3,3.7c-0.3-0.1-0.7-0.1-1.2-0.1c-1.3,0-2.3,0.3-3,1c-0.7,0.7-1.1,1.6-1.1,2.7v7.4h-4V17.7h3l0.6,2.5h0.2
	c0.5-0.8,1.1-1.5,1.8-2S34,17.4,34.9,17.4z"/>
</svg>
