<?xml version="1.0" encoding="utf-8"?>
<!-- Generator: Adobe Illustrator 18.1.1, SVG Export Plug-In . SVG Version: 6.00 Build 0)  -->
<svg version="1.1" id="Слой_1" xmlns="http://www.w3.org/2000/svg" xmlns:xlink="http://www.w3.org/1999/xlink" x="0px" y="0px"
	 width="18px" height="18px" viewBox="-270 472 18 18" enable-background="new -270 472 18 18" xml:space="preserve">
<path fill="#3CACA2" d="M-261,489.68c4.79,0,8.68-3.89,8.68-8.68s-3.89-8.68-8.68-8.68s-8.68,3.89-8.68,8.68
	S-265.79,489.68-261,489.68L-261,489.68z M-261,487.68c-3.69,0-6.68-2.99-6.68-6.68s2.99-6.68,6.68-6.68s6.68,2.99,6.68,6.68
	S-257.31,487.68-261,487.68L-261,487.68z"/>
<path fill="#3CACA2" d="M-259.42,484.37c-0.05-0.52-0.03-0.88-0.03-1.35c0.23-0.12,0.65-0.9,0.72-1.56c0.19-0.02,0.48-0.2,0.56-0.9
	c0.05-0.38-0.14-0.6-0.25-0.66c0.3-0.9,0.92-3.68-1.14-3.97c-0.22-0.38-0.76-0.56-1.47-0.56c-2.83,0.05-3.18,2.13-2.55,4.53
	c-0.11,0.06-0.3,0.28-0.25,0.66c0.08,0.7,0.37,0.88,0.56,0.9c0.07,0.66,0.5,1.44,0.74,1.56c0,0.47,0.01,0.83-0.03,1.35
	c-0.41,1.08-2.48,1.17-3.67,2.21c1.25,1.26,3.27,2.16,5.41,2.16c2.14,0,4.65-1.68,5.07-2.14
	C-256.94,485.54-259.02,485.46-259.42,484.37L-259.42,484.37z"/>
</svg>
