<?xml version="1.0" encoding="utf-8"?>
<!-- Generator: Adobe Illustrator 19.2.1, SVG Export Plug-In . SVG Version: 6.00 Build 0)  -->
<svg version="1.1" id="Layer_1" xmlns="http://www.w3.org/2000/svg" xmlns:xlink="http://www.w3.org/1999/xlink" x="0px" y="0px"
	 viewBox="0 0 12 10" style="enable-background:new 0 0 12 10;" xml:space="preserve">
<path style="fill:#76B0DB;" d="M11,0H2.3H1C0.5,0,0,0.5,0,1v5.5c0,0.6,0.5,1,1,1h1.8c0.1,0,0.3,0.1,0.3,0.3V10l2.2-2.4
	c0-0.1,0.1-0.1,0.2-0.1H11c0.6,0,1-0.5,1-1V4.2V1C12,0.5,11.5,0,11,0z M4.1,4.4C4,4.5,3.8,4.6,3.6,4.6c-0.2,0-0.4-0.1-0.5-0.2
	C3.1,4.3,3,4.2,3,4c0-0.2,0.1-0.3,0.2-0.4c0.1-0.1,0.3-0.2,0.5-0.2c0.2,0,0.4,0.1,0.5,0.2C4.2,3.7,4.2,3.8,4.2,4
	C4.2,4.2,4.2,4.3,4.1,4.4z M6.5,4.4C6.4,4.5,6.2,4.6,6,4.6c-0.2,0-0.4-0.1-0.5-0.2C5.4,4.3,5.4,4.2,5.4,4c0-0.2,0.1-0.3,0.2-0.4
	C5.6,3.5,5.8,3.4,6,3.4c0.2,0,0.4,0.1,0.5,0.2C6.6,3.7,6.6,3.8,6.6,4C6.6,4.2,6.6,4.3,6.5,4.4z M8.7,4.4C8.6,4.5,8.4,4.6,8.2,4.6
	C8,4.6,7.9,4.5,7.8,4.4C7.7,4.3,7.6,4.2,7.6,4c0-0.2,0.1-0.3,0.2-0.4C7.9,3.5,8,3.4,8.2,3.4c0.2,0,0.4,0.1,0.5,0.2
	C8.8,3.7,8.9,3.8,8.9,4C8.9,4.2,8.8,4.3,8.7,4.4z"/>
</svg>
