<?xml version="1.0" encoding="utf-8"?>
<!-- Generator: Avocode 2.4.3-3630f5a - http://avocode.com -->
<svg height="16" width="16" xmlns:xlink="http://www.w3.org/1999/xlink" xmlns="http://www.w3.org/2000/svg" viewBox="0 0 16 16">
    <path fill="#6c757a" fill-rule="evenodd" d="M 3 2 L 3 1 C 3 0.45 3.45 0 4 0 C 4.55 0 5 0.45 5 1 L 5 2 C 5 2.55 4.55 3 4 3 C 3.45 3 3 2.55 3 2 L 3 2 Z M 10 3 C 10.55 3 11 2.55 11 2 L 11 1 C 11 0.45 10.55 0 10 0 C 9.45 0 9 0.45 9 1 L 9 2 C 9 2.55 9.45 3 10 3 L 10 3 Z M 14 14 L 0 14 L 0 2 L 2.5 2 C 2.5 2.83 3.17 3.5 4 3.5 C 4.83 3.5 5.5 2.83 5.5 2 L 8.5 2 C 8.5 2.83 9.17 3.5 10 3.5 C 10.83 3.5 11.5 2.83 11.5 2 L 14 2 L 14 14 L 14 14 Z M 13 5 L 1 5 L 1 13 L 13 13 L 13 5 L 13 5 Z M 15 3 L 15 15 L 1 15 L 1 16 L 16 16 L 16 3 L 15 3 L 15 3 Z M 5 6 L 3 6 L 3 8 L 5 8 L 5 6 L 5 6 Z M 8 6 L 6 6 L 6 8 L 8 8 L 8 6 L 8 6 Z M 11 6 L 9 6 L 9 8 L 11 8 L 11 6 L 11 6 Z M 5 9 L 3 9 L 3 11 L 5 11 L 5 9 L 5 9 Z M 8 9 L 6 9 L 6 11 L 8 11 L 8 9 L 8 9 Z M 11 9 L 9 9 L 9 11 L 11 11 L 11 9 L 11 9 Z M 11 9" />
</svg>