<?xml version="1.0" encoding="utf-8"?>
<!-- Generated by IcoMoon.io -->
<!DOCTYPE svg PUBLIC "-//W3C//DTD SVG 1.1//EN" "http://www.w3.org/Graphics/SVG/1.1/DTD/svg11.dtd">
<svg version="1.1" xmlns="http://www.w3.org/2000/svg" xmlns:xlink="http://www.w3.org/1999/xlink" width="1024" height="1024" viewBox="0 0 1024 1024">
<g id="icomoon-ignore">
</g>
<path fill="rgb(0, 0, 0)" d="M61.44 0h901.12c33.932 0 61.44 27.508 61.44 61.44v901.12c0 33.932-27.508 61.44-61.44 61.44h-901.12c-33.932 0-61.44-27.508-61.44-61.44v-901.12c0-33.932 27.508-61.44 61.44-61.44z"></path>
<path fill="rgb(255, 255, 255)" d="M775.314 586.606v-339.383c0-23.333-19.090-42.423-42.423-42.423h-339.383c-70.273 0-127.269 56.995-127.269 127.269v339.383c0 70.273 56.995 127.269 127.269 127.269h339.383c23.333 0 42.423-19.090 42.423-42.423s-19.090-42.423-42.423-42.423v-84.846c23.333 0 42.423-19.090 42.423-42.423v0zM690.469 544.183h-212.114v-254.537h212.114v254.537zM351.086 332.069c0-23.396 19.027-42.423 42.423-42.423v254.537c-14.869 0-29.145 2.567-42.423 7.276v-219.39zM648.046 713.874h-254.537c-23.417 0-42.423-19.005-42.423-42.423s19.005-42.423 42.423-42.423h254.537v84.846z"></path>
</svg>
