<?xml version="1.0" encoding="utf-8"?>
<!-- Generator: Avocode 2.4.3-3630f5a - http://avocode.com -->
<svg height="15" width="16" xmlns:xlink="http://www.w3.org/1999/xlink" xmlns="http://www.w3.org/2000/svg" viewBox="0 0 16 15">
    <path fill="#bcc6cc" fill-rule="evenodd" d="M 5.23 14.4 C 3.91 14.4 2.67 13.89 1.73 12.95 C -0.2 11.02 -0.2 7.88 1.73 5.95 L 7.39 0.29 L 8.47 1.37 L 2.81 7.03 C 1.47 8.37 1.47 10.54 2.81 11.88 C 3.46 12.52 4.32 12.88 5.23 12.88 C 6.15 12.88 7.01 12.52 7.66 11.88 L 13.58 5.95 C 13.98 5.56 14.2 5.03 14.2 4.47 C 14.2 3.91 13.98 3.38 13.58 2.98 C 12.76 2.17 11.43 2.17 10.61 2.98 L 10.61 2.98 L 4.96 8.64 C 4.81 8.78 4.73 8.98 4.73 9.18 C 4.73 9.39 4.81 9.58 4.96 9.73 C 5.26 10.03 5.75 10.03 6.05 9.73 L 11.71 4.07 L 12.78 5.15 L 7.13 10.81 C 6.23 11.7 4.77 11.7 3.88 10.81 C 3.45 10.37 3.21 9.8 3.21 9.18 C 3.21 8.57 3.45 7.99 3.88 7.56 L 9.53 1.91 C 10.95 0.49 13.24 0.49 14.66 1.91 C 15.34 2.59 15.72 3.5 15.72 4.47 C 15.72 5.44 15.34 6.35 14.66 7.03 L 8.73 12.95 C 7.8 13.89 6.56 14.4 5.23 14.4 L 5.23 14.4 Z M 5.23 14.4" />
</svg>