<?xml version="1.0" encoding="utf-8"?>
<!-- Generator: Avocode 2.4.3-3630f5a - http://avocode.com -->
<svg height="20" width="20" xmlns:xlink="http://www.w3.org/1999/xlink" xmlns="http://www.w3.org/2000/svg" viewBox="0 0 20 20">
    <path fill="#6c757a" fill-rule="evenodd" d="M 15.83 8.07 C 15.83 3.2 13.21 1.55 10.77 1.18 C 10.77 1.16 10.77 1.13 10.77 1.1 C 10.77 0.49 10.23 0 9.57 0 C 8.9 0 8.38 0.49 8.38 1.1 C 8.38 1.13 8.38 1.16 8.38 1.18 C 5.93 1.55 3.3 3.21 3.3 8.08 C 3.3 13.75 1.89 14.35 0 15.95 L 19.13 15.95 C 17.25 14.35 15.83 13.74 15.83 8.07 L 15.83 8.07 Z M 15.83 8.07" />
    <path fill="#6c757a" fill-rule="evenodd" d="M 9.58 19.13 C 10.91 19.13 12.01 18.14 12.15 16.99 L 7 16.99 C 7.14 18.14 8.24 19.13 9.58 19.13 L 9.58 19.13 Z M 9.58 19.13" />
</svg>