<?xml version="1.0" encoding="utf-8"?>
<!-- Generated by IcoMoon.io -->
<!DOCTYPE svg PUBLIC "-//W3C//DTD SVG 1.1//EN" "http://www.w3.org/Graphics/SVG/1.1/DTD/svg11.dtd">
<svg version="1.1" xmlns="http://www.w3.org/2000/svg" xmlns:xlink="http://www.w3.org/1999/xlink" width="1024" height="1024" viewBox="0 0 1024 1024">
<g id="icomoon-ignore">
</g>
<path fill="rgb(0, 0, 0)" d="M61.44 0h901.12c33.932 0 61.44 27.508 61.44 61.44v901.12c0 33.932-27.508 61.44-61.44 61.44h-901.12c-33.932 0-61.44-27.508-61.44-61.44v-901.12c0-33.932 27.508-61.44 61.44-61.44z"></path>
<path fill="rgb(255, 255, 255)" d="M723.722 269.087h-382.464c-63.959 0-115.773 48.476-115.773 110.080l-0.205 327.148c0 16.855 13.742 30.536 30.72 30.536h501.678v-58.204h-470.958v-299.5c0-27.935 20.132-52.552 50.217-52.552 30.065 0 52.183 24.617 52.183 52.552v204.943c0 16.876 13.742 30.126 30.72 30.126h389.12c16.957 0 30.72-13.251 30.72-30.126v-204.943c0-61.604-51.999-110.060-115.958-110.060v0zM757.76 471.040v40.96h-286.72v-40.96h286.72zM471.040 430.080v-40.96h286.72v40.96h-286.72z"></path>
</svg>
