<?xml version="1.0" encoding="utf-8"?>
<!-- Generator: Adobe Illustrator 18.1.1, SVG Export Plug-In . SVG Version: 6.00 Build 0)  -->
<svg version="1.1" id="Слой_1" xmlns="http://www.w3.org/2000/svg" xmlns:xlink="http://www.w3.org/1999/xlink" x="0px" y="0px"
	 width="18px" height="18px" viewBox="-290 292 18 18" enable-background="new -290 292 18 18" xml:space="preserve">
<path fill="#3CACA2" d="M-285,298h4h4v9c0,0-0.17,0.63-1,1c-0.85,0.38-2.36,0.5-3,0.5c-0.82,0-2.12-0.08-3-0.5c-0.64-0.31-1-1-1-1
	V298z"/>
<path fill="#3CACA2" d="M-281,309.68c4.79,0,8.68-3.89,8.68-8.68s-3.89-8.68-8.68-8.68s-8.68,3.89-8.68,8.68
	S-285.79,309.68-281,309.68L-281,309.68z M-281,307.68c-3.69,0-6.68-2.99-6.68-6.68s2.99-6.68,6.68-6.68s6.68,2.99,6.68,6.68
	S-277.31,307.68-281,307.68L-281,307.68z"/>
</svg>
