<?xml version="1.0" encoding="utf-8"?>
<!-- Generator: Avocode 2.4.3-3630f5a - http://avocode.com -->
<svg height="14" width="127" xmlns:xlink="http://www.w3.org/1999/xlink" xmlns="http://www.w3.org/2000/svg" viewBox="0 0 127 14">
    <path fill="#ffffff" fill-rule="evenodd" d="M 7.71 2.37 C 10.25 2.37 12.31 4.43 12.31 6.97 C 12.31 9.51 10.25 11.57 7.71 11.57 C 5.17 11.57 3.11 9.51 3.11 6.97 C 3.11 4.43 5.17 2.37 7.71 2.37 M 7.71 0.03 C 3.88 0.03 0.77 3.14 0.77 6.97 C 0.77 10.8 3.88 13.91 7.71 13.91 C 11.54 13.91 14.65 10.8 14.65 6.97 C 14.65 3.14 11.54 0.03 7.71 0.03" />
    <path fill="#ffffff" fill-rule="evenodd" d="M 37.04 13.63 L 28.88 13.63 L 28.88 0.37 L 31.21 0.37 L 31.21 11.29 L 37.04 11.29 L 37.04 13.63" />
    <path fill="#ffffff" fill-rule="evenodd" d="M 52.6 0.32 L 54.93 0.32 L 54.93 13.57 L 52.6 13.57 L 52.6 0.32 Z M 52.6 0.32" />
    <path fill="#ffffff" fill-rule="evenodd" d="M 96.57 0.32 L 98.9 0.32 L 98.9 13.57 L 96.57 13.57 L 96.57 0.32 Z M 96.57 0.32" />
    <path fill="#ffffff" fill-rule="evenodd" d="M 82.4 0.42 L 75.75 13.43 L 69.1 0.42 L 71.61 0.42 L 75.75 8.41 L 79.9 0.42 L 82.4 0.42" />
    <path fill="#ffffff" fill-rule="evenodd" d="M 113.51 13.43 L 120.16 0.42 L 126.8 13.43 L 124.3 13.43 L 120.15 5.43 L 116 13.43 L 113.51 13.43" />
    <path fill="#ffffff" fill-rule="evenodd" d="M 117.31 8.68 L 123.59 8.68 L 123.59 11.01 L 117.31 11.01 L 117.31 8.68 Z M 117.31 8.68" />
</svg>