<?xml version="1.0" encoding="utf-8"?>
<!-- Generator: Avocode 2.4.3-3630f5a - http://avocode.com -->
<svg height="73" width="73" xmlns:xlink="http://www.w3.org/1999/xlink" xmlns="http://www.w3.org/2000/svg" viewBox="0 0 73 73">
    <path fill="#ffd5d5" fill-rule="evenodd" d="M 72.18 8.76 C 73.27 9.85 73.27 11.64 72.18 12.72 L 50.38 34.53 C 49.29 35.61 49.29 37.4 50.38 38.49 L 72.17 60.3 C 73.26 61.39 73.26 63.18 72.17 64.27 L 64.23 72.19 C 63.14 73.27 61.36 73.27 60.27 72.19 L 38.48 50.38 C 37.39 49.29 35.6 49.29 34.51 50.38 L 12.71 72.17 C 11.62 73.26 9.83 73.26 8.74 72.17 L 0.82 64.24 C -0.27 63.16 -0.27 61.37 0.82 60.28 L 22.63 38.48 C 23.72 37.39 23.72 35.61 22.63 34.51 L 0.83 12.7 C -0.26 11.61 -0.26 9.82 0.83 8.74 L 8.77 0.81 C 9.86 -0.27 11.65 -0.27 12.74 0.82 L 34.52 22.62 C 35.61 23.71 37.4 23.71 38.49 22.62 L 60.29 0.83 C 61.38 -0.25 63.16 -0.25 64.26 0.83 L 72.18 8.76 L 72.18 8.76 Z M 72.18 8.76" />
</svg>