<?xml version="1.0" encoding="utf-8"?>
<!-- Generated by IcoMoon.io -->
<!DOCTYPE svg PUBLIC "-//W3C//DTD SVG 1.1//EN" "http://www.w3.org/Graphics/SVG/1.1/DTD/svg11.dtd">
<svg version="1.1" xmlns="http://www.w3.org/2000/svg" xmlns:xlink="http://www.w3.org/1999/xlink" width="1280" height="1024" viewBox="0 0 1280 1024">
<g id="icomoon-ignore">
</g>
<path fill="rgb(189, 199, 204)" d="M1152 128c70.4 0 128 57.6 128 128v640c0 70.4-57.6 128-128 128h-1024c-70.4 0-128-57.6-128-128v-768c0-70.4 57.6-128 128-128h320l128 128h576zM480 640c53.019 0 96-42.981 96-96s-42.981-96-96-96c-53.019 0-96 42.981-96 96s42.981 96 96 96zM640 832c0-56.366-71.634-128-160-128s-160 71.634-160 128h320zM960 832c0-56.366-71.634-128-160-128s-160 71.634-160 128h320zM805.072 584.128l45.225 42.964 261.837-261.837-90.51-90.51-175.653 176.173-97.893-97.485-88.16 92.8 145.152 137.894z"></path>
</svg>
