<?xml version="1.0" encoding="UTF-8" standalone="no"?>
<svg width="16px" height="14px" viewBox="0 0 16 14" version="1.1" xmlns="http://www.w3.org/2000/svg" xmlns:xlink="http://www.w3.org/1999/xlink" xmlns:sketch="http://www.bohemiancoding.com/sketch/ns">
    <path d="M4.05131929,1.81242395 L4.05131929,1.19922698 C4.05131929,0.923676446 4.85306221,0 5.08157831,0 L5.33333333,0 L10.600823,0 L10.8525781,0 C11.1120794,0 11.9525539,0.985772342 11.9525539,1.19922698 L11.9525539,1.81242395 L15.1633987,1.81242395 L15.2331155,1.81242395 L15.2912128,1.82018594 C15.6707819,1.89780581 15.9380295,2.17723734 15.9922537,2.52264576 L16,2.56145569 L16,2.60026563 L16,2.62355159 L16,2.64683755 L16,5.92757335 L16,5.95085931 L16,5.97414527 L16,5.99743123 C15.9728879,6.17207593 15.8373275,7.3117917 15.6707819,7 L15.6126846,7 L9.03606875,7 L9.03606875,6.7762146 C9.03606875,6.54335499 8.7285161,6 8.5,6 L7.5,6 C7.26761075,6 6.96393125,6.54723599 6.96393125,6.7762146 L7,7 L0.422173808,7 L0.364076495,7 C0.158799322,7.3117917 0.0232389252,6.17207593 0,5.99743123 L0,5.97414527 L0,5.95085931 L0,5.92757335 L0,2.64683755 L0,2.62355159 L0,2.60026563 L0,2.56145569 L0.0077463084,2.52264576 C0.0619704672,2.17723734 0.329218107,1.89780581 0.670055677,1.82794792 L0.72815299,1.81630494 L0.790123457,1.81242395 L4.05131929,1.81242395 Z M5.60445413,0.989653335 C5.60445413,1.00517731 5.60832728,1.01682029 5.60832728,1.03234426 L5.60832728,1.81242395 L10.4807553,1.81242395 L10.4807553,1.03234426 C10.4807553,1.01682029 10.4807553,1.00517731 10.4846284,0.989653335 L5.60832728,0.989653335 L5.60445413,0.989653335 Z M0.499999997,8 L6.96393126,8 L6.96393126,8.5 C6.96393126,8.73285961 7.27148408,9.00000006 7.50000018,9.00000006 L8.50000018,9.00000006 C8.73238943,9.00000006 9.03606909,8.72897861 9.03606909,8.5 L9.03606909,8 L14.5000002,8 L16.0000002,8 L16.0000002,13.0000002 C16.0000002,13.4618384 15.5,14 14.5000002,14.0000002 L13.5000002,14.0000002 L2.5,14 L1.5,14 C0.499999997,14 -3.13099235e-09,13.4618382 -3.13099235e-09,13 L-3.13099235e-09,8 L0.499999997,8 Z" id="Shape" fill="#96A1A7"></path>
</svg>