<?xml version="1.0" encoding="utf-8"?>
<!-- Generator: Avocode 2.6.0 - http://avocode.com -->
<svg height="13" width="16" xmlns:xlink="http://www.w3.org/1999/xlink" xmlns="http://www.w3.org/2000/svg" viewBox="0 0 16 13">
    <path fill="#6c757a" fill-rule="evenodd" d="M 12.98 0.14 L 3.02 0.14 C 1.35 0.14 0.01 1.4 0.01 3.01 L 0 11.53 C 0 11.96 0.36 12.32 0.8 12.32 L 13.86 12.32 L 13.86 10.8 L 1.6 10.8 L 1.6 3.01 C 1.6 2.28 2.12 1.64 2.91 1.64 C 3.69 1.64 4.27 2.28 4.27 3.01 L 4.27 8.34 C 4.27 8.78 4.62 9.13 5.07 9.13 L 15.2 9.13 C 15.64 9.13 16 8.78 16 8.34 L 16 3.01 C 16 1.4 14.65 0.14 12.98 0.14 L 12.98 0.14 Z M 13.87 5.4 L 13.87 6.46 L 6.4 6.46 L 6.4 5.4 L 13.87 5.4 L 13.87 5.4 Z M 6.4 4.33 L 6.4 3.26 L 13.87 3.26 L 13.87 4.33 L 6.4 4.33 L 6.4 4.33 Z M 6.4 4.33" />
</svg>