<?xml version="1.0" encoding="utf-8"?>
<!-- Generator: Adobe Illustrator 19.2.1, SVG Export Plug-In . SVG Version: 6.00 Build 0)  -->
<svg version="1.1" id="Layer_1" xmlns="http://www.w3.org/2000/svg" xmlns:xlink="http://www.w3.org/1999/xlink" x="0px" y="0px"
	 viewBox="0 0 12 12" style="enable-background:new 0 0 12 12;" xml:space="preserve">
<path style="fill:#F99F54;" d="M6,0c3.3,0,6,2.7,6,6s-2.7,6-6,6S0,9.3,0,6S2.7,0,6,0z M9.6,7.8c0.8-0.8,0.8-2.1,0-2.9
	c-0.8-0.8-2.1-0.8-2.9,0L6.4,5.3C6.2,5.4,6.2,5.8,6.4,6c0.2,0.2,0.5,0.2,0.7,0l0.4-0.4c0.4-0.4,1.1-0.4,1.5,0c0.4,0.4,0.4,1.1,0,1.5
	c-0.4,0.4-1.1,0.4-1.5,0L5.3,4.9c-0.8-0.8-2.1-0.8-2.9,0C1.5,5.7,1.5,7,2.4,7.8s2.1,0.8,2.9,0l0.4-0.4c0.1-0.1,0.1-0.2,0.1-0.4
	c0-0.1-0.1-0.3-0.1-0.4c-0.2-0.2-0.5-0.2-0.7,0L4.5,7.1c-0.4,0.4-1.1,0.4-1.5,0C2.6,6.7,2.6,6,3.1,5.6c0.4-0.4,1.1-0.4,1.5,0
	l2.2,2.2c0.4,0.4,0.9,0.6,1.5,0.6S9.2,8.2,9.6,7.8z"/>
</svg>
