<?xml version="1.0" encoding="utf-8"?>
<!-- Generator: Avocode 2.5.2 - http://avocode.com -->
<svg height="14" width="14" xmlns:xlink="http://www.w3.org/1999/xlink" xmlns="http://www.w3.org/2000/svg" viewBox="0 0 14 14">
    <path fill="#d8d8d8" fill-rule="evenodd" d="M 12.25 12.25 L 1.75 12.25 L 1.75 1.75 L 7 1.75 L 7 0.25 L 1.75 0.25 C 0.92 0.25 0.25 0.92 0.25 1.75 L 0.25 12.25 C 0.25 13.08 0.92 13.75 1.75 13.75 L 12.25 13.75 C 13.08 13.75 13.75 13.08 13.75 12.25 L 13.75 7 L 12.25 7 L 12.25 12.25 L 12.25 12.25 Z M 8.5 0.25 L 8.5 1.75 L 11.19 1.75 L 3.82 9.12 L 4.88 10.18 L 12.25 2.81 L 12.25 5.5 L 13.75 5.5 L 13.75 0.25 L 8.5 0.25 L 8.5 0.25 Z M 8.5 0.25" />
</svg>