<?xml version="1.0" encoding="UTF-8" standalone="no"?>
<svg width="14px" height="17px" viewBox="0 0 14 17" version="1.1" xmlns="http://www.w3.org/2000/svg" xmlns:xlink="http://www.w3.org/1999/xlink" xmlns:sketch="http://www.bohemiancoding.com/sketch/ns">
    <!-- Generator: Sketch 3.4.4 (17249) - http://www.bohemiancoding.com/sketch -->
    <title>lock</title>
    <desc>Created with Sketch.</desc>
    <defs></defs>
    <g id="Forms" stroke="none" stroke-width="1" fill="none" fill-rule="evenodd" sketch:type="MSPage">
        <g id="EL-form-approved" sketch:type="MSArtboardGroup" transform="translate(-839.000000, -22.000000)" fill="#FFFFFF">
            <g id="lock" sketch:type="MSLayerGroup" transform="translate(839.000000, 22.000000)">
                <path d="M11.7705385,16.3468077 L1.31684615,16.3468077 C0.595,16.3468077 0.0104615385,15.7609615 0.0104615385,15.0384615 L0.0104615385,8.49607692 C0.0104615385,7.77357692 0.595653846,7.18707692 1.31684615,7.18707692 L1.97003846,7.18707692 L1.97003846,5.22488462 C1.97003846,2.69580769 4.01788462,0.645346154 6.54369231,0.645346154 C9.0695,0.645346154 11.1173462,2.69580769 11.1173462,5.22488462 L11.1173462,7.18707692 L11.7705385,7.18707692 C12.4923846,7.18707692 13.0769231,7.77292308 13.0769231,8.49607692 L13.0769231,15.0384615 C13.0769231,15.7603077 12.4917308,16.3468077 11.7705385,16.3468077 L11.7705385,16.3468077 Z M9.15711538,5.22488462 C9.15711538,3.77988462 7.98673077,2.60819231 6.54369231,2.60819231 C5.10065385,2.60819231 3.93026923,3.77988462 3.93026923,5.22488462 L3.93026923,7.18707692 L9.15711538,7.18707692 L9.15711538,5.22488462 L9.15711538,5.22488462 Z" id="Shape" sketch:type="MSShapeGroup"></path>
            </g>
        </g>
    </g>
</svg>