<?xml version="1.0" encoding="utf-8"?>
<!-- Generator: Avocode 2.4.3-3630f5a - http://avocode.com -->
<svg height="12" width="12" xmlns:xlink="http://www.w3.org/1999/xlink" xmlns="http://www.w3.org/2000/svg" viewBox="0 0 12 12">
    <path fill="#88959c" fill-rule="evenodd" d="M 6 12 C 9.31 12 12 9.31 12 6 C 12 2.69 9.31 0 6 0 C 2.69 0 0 2.69 0 6 C 0 9.31 2.69 12 6 12 Z M 6 12" />
    <path fill-opacity="0.5" fill="#ffffff" fill-rule="evenodd" d="M 2 5 L 4 5 L 4 7 L 2 7 L 2 5 Z M 2 5" />
    <path fill-opacity="0.5" fill="#ffffff" fill-rule="evenodd" d="M 5 5 L 7 5 L 7 7 L 5 7 L 5 5 Z M 5 5" />
    <path fill-opacity="0.5" fill="#ffffff" fill-rule="evenodd" d="M 8 5 L 10 5 L 10 7 L 8 7 L 8 5 Z M 8 5" />
</svg>