<?xml version="1.0" encoding="UTF-8" standalone="no"?>
<svg width="16px" height="15px" viewBox="0 0 16 15" version="1.1" xmlns="http://www.w3.org/2000/svg" xmlns:xlink="http://www.w3.org/1999/xlink" xmlns:sketch="http://www.bohemiancoding.com/sketch/ns">
	<g stroke="none" fill="none" id="user-team-icon" sketch:type="MSLayerGroup">
		<rect id="Rectangle-path" fill="none" sketch:type="MSShapeGroup" x="0" y="0" width="16" height="16"></rect>
		<path d="M8.34,6.68 C10.1846311,6.68 11.68,5.18463106 11.68,3.34 C11.68,1.49536894 10.1846311,0 8.34,0 C6.49536894,0 5,1.49536894 5,3.34 C5,5.18463106 6.49536894,6.68 8.34,6.68 L8.34,6.68 Z" id="Shape" fill="#96A1A7" sketch:type="MSShapeGroup"></path>
		<path d="M3.34,14.68 C5.18463106,14.68 6.68,13.1846311 6.68,11.34 C6.68,9.49536894 5.18463106,8 3.34,8 C1.49536894,8 0,9.49536894 0,11.34 C0,13.1846311 1.49536894,14.68 3.34,14.68 L3.34,14.68 Z" id="Shape-Copy" fill="#96A1A7" sketch:type="MSShapeGroup"></path>
		<path d="M12.34,14.68 C14.1846311,14.68 15.68,13.1846311 15.68,11.34 C15.68,9.49536894 14.1846311,8 12.34,8 C10.4953689,8 9,9.49536894 9,11.34 C9,13.1846311 10.4953689,14.68 12.34,14.68 L12.34,14.68 Z" id="Shape-Copy-2" fill="#96A1A7" sketch:type="MSShapeGroup"></path>
	</g>
</svg>