<?xml version="1.0" encoding="utf-8"?>
<!-- Generator: Adobe Illustrator 19.1.1, SVG Export Plug-In . SVG Version: 6.00 Build 0)  -->
<svg version="1.1" id="Layer_1" xmlns="http://www.w3.org/2000/svg" xmlns:xlink="http://www.w3.org/1999/xlink" x="0px" y="0px"
	 viewBox="-284.4 384.6 14.9 16" style="enable-background:new -284.4 384.6 14.9 16;" xml:space="preserve">
<style type="text/css">
	.st0{fill:#FF001F;}
	.st1{fill:#FFFFFF;}
</style>
<g id="Group-3" transform="translate(7.000000, 6.000000)">
	<path class="st0" d="M-280.6,386.6c-2.2,0-4,1.8-4,4s1.8,4,4,4s4-1.8,4-4S-278.4,386.6-280.6,386.6z M-279.9,393h-1.3v-1h1.3V393z
		 M-279.9,391.3h-1.3v-2.7h1.3V391.3z"/>
	<g>
		<path class="st0" d="M-285.5,391.4h-4.9v-7.8h10.8v2.2c0.3,0.1,0.7,0.2,1,0.3v-4.4c0-0.3-0.1-0.5-0.3-0.7s-0.4-0.3-0.7-0.3h-1
			v-0.7c0-0.3-0.1-0.6-0.4-0.9c-0.2-0.2-0.5-0.4-0.9-0.4h-0.5c-0.3,0-0.6,0.1-0.9,0.4c-0.2,0.2-0.4,0.5-0.4,0.9v0.7h-2.9v-0.7
			c0-0.3-0.1-0.6-0.4-0.9c-0.2-0.2-0.5-0.4-0.9-0.4h-0.5c-0.3,0-0.6,0.1-0.9,0.4c-0.2,0.2-0.4,0.5-0.4,0.9v0.7h-1
			c-0.3,0-0.5,0.1-0.7,0.3c-0.2,0.2-0.3,0.4-0.3,0.7v9.8c0,0.3,0.1,0.5,0.3,0.7s0.4,0.3,0.7,0.3h5.2
			C-285.4,392-285.5,391.7-285.5,391.4z M-282.6,379.8c0-0.1,0-0.1,0.1-0.2c0,0,0.1-0.1,0.2-0.1h0.5c0.1,0,0.1,0,0.2,0.1
			c0,0,0.1,0.1,0.1,0.2v2.2c0,0.1,0,0.1-0.1,0.2c0,0-0.1,0.1-0.2,0.1h-0.5c-0.1,0-0.1,0-0.2-0.1c0,0-0.1-0.1-0.1-0.2V379.8z
			 M-288.5,379.8c0-0.1,0-0.1,0.1-0.2c0,0,0.1-0.1,0.2-0.1h0.5c0.1,0,0.1,0,0.2,0.1c0,0,0.1,0.1,0.1,0.2v2.2c0,0.1,0,0.1-0.1,0.2
			c0,0-0.1,0.1-0.2,0.1h-0.5c-0.1,0-0.1,0-0.2-0.1c0,0-0.1-0.1-0.1-0.2V379.8z"/>
	</g>
	<rect x="-281.3" y="388.6" class="st1" width="1.3" height="2.7"/>
	<rect x="-281.3" y="392" class="st1" width="1.3" height="1"/>
</g>
</svg>
