<?xml version="1.0" encoding="UTF-8" standalone="no"?>
<svg width="50px" height="45px" viewBox="0 0 50 45" version="1.1" xmlns="http://www.w3.org/2000/svg" xmlns:xlink="http://www.w3.org/1999/xlink" xmlns:sketch="http://www.bohemiancoding.com/sketch/ns">
    <!-- Generator: Sketch 3.5.1 (25234) - http://www.bohemiancoding.com/sketch -->
    <title>action add user</title>
    <desc>Created with Sketch.</desc>
    <defs></defs>
    <g id="assets" stroke="none" stroke-width="1" fill="none" fill-rule="evenodd" sketch:type="MSPage">
        <g id="action-add-user" sketch:type="MSLayerGroup" transform="translate(0.000000, -2.000000)">
            <rect id="Rectangle-path" sketch:type="MSShapeGroup" x="0" y="0" width="50" height="50"></rect>
            <path d="M39.7120721,46.6599998 C45.9477833,42.169751 50,34.8988833 50,26.6931849 C50,13.0555155 38.8071187,2 25,2 C11.1928813,2 0,13.0555155 0,26.6931849 C0,34.7709217 3.92681976,41.9427565 9.99780453,46.4479123 C13.6674703,44.0835839 18.8557315,43.5799417 19.9553762,40.6385884 C20.09699,39.0828814 20.0436423,37.9971677 20.0436423,36.5756067 C19.3336336,36.2059815 18.0144917,33.848294 17.8011011,31.8583016 C17.2443457,31.8129429 16.3675043,31.2724987 16.1094957,29.1387095 C15.9717617,27.993161 16.5226975,27.3484884 16.8573327,27.1458218 C14.9746457,19.9366833 16.01056,13.6414743 24.5985617,13.4841665 C26.7450771,13.4841665 28.3969143,14.054528 29.0419359,15.1817401 C35.3097998,16.0483808 33.4280827,24.4349155 32.5221426,27.1458218 C32.8577478,27.3484884 33.4086836,27.993161 33.2699797,29.1387095 C33.012941,31.2724987 32.1351297,31.8129429 31.5783742,31.8583016 C31.3640136,33.8492591 30.0953095,36.2059815 29.3872407,36.5756067 C29.3872407,37.9971677 29.3329231,39.0828814 29.4745369,40.6385884 C30.6051695,43.6663307 36.0475041,44.11202 39.7120721,46.6599998 Z" id="Oval" fill="#96A0A6" sketch:type="MSShapeGroup"></path>
        </g>
    </g>
</svg>