<?xml version="1.0" encoding="UTF-8" standalone="no"?>
<svg width="50px" height="50px" viewBox="0 0 50 50" version="1.1" xmlns="http://www.w3.org/2000/svg" xmlns:xlink="http://www.w3.org/1999/xlink" xmlns:sketch="http://www.bohemiancoding.com/sketch/ns">
    <!-- Generator: Sketch 3.5.1 (25234) - http://www.bohemiancoding.com/sketch -->
    <title>action add task</title>
    <desc>Created with Sketch.</desc>
    <defs></defs>
    <g id="assets" stroke="none" stroke-width="1" fill="none" fill-rule="evenodd" sketch:type="MSPage">
        <g id="action-add-task" sketch:type="MSLayerGroup">
            <g id="Layer_1" sketch:type="MSShapeGroup">
                <path d="M46.875,0 L3.125,0 C1.39765625,0 0,1.39765625 0,3.125 L0,46.875 C0,48.6023437 1.39765625,50 3.125,50 L46.875,50 C48.6023437,50 50,48.6023437 50,46.875 L50,37.5 L50,12.5 L50,3.125 C50,1.39765625 48.6023437,0 46.875,0 L46.875,0 Z" id="Shape" fill="#FB6D06"></path>
                <path d="M34.0766602,35 L34.0766602,43 L15.9886475,43 L15.9886475,35 L7,35 L7,7 L43,7 L43,35 L34.0766602,35 Z" id="Path" fill-opacity="0.245103034" fill="#000000"></path>
                <path d="M32.8084961,12.4633789 L23.3724609,22.5830078 L19.0480469,17.9473633 L15.0625,22.2228516 L23.537207,31.2408203 L36.9314453,16.8823242 L32.8084961,12.4633789 Z" id="Shape" fill="#FFFFFF"></path>
            </g>
        </g>
    </g>
</svg>