<?xml version="1.0" encoding="utf-8"?>
<!-- Generator: Adobe Illustrator 19.2.1, SVG Export Plug-In . SVG Version: 6.00 Build 0)  -->
<!DOCTYPE svg PUBLIC "-//W3C//DTD SVG 1.1//EN" "http://www.w3.org/Graphics/SVG/1.1/DTD/svg11.dtd">
<svg version="1.1" id="Layer_1" xmlns="http://www.w3.org/2000/svg" xmlns:xlink="http://www.w3.org/1999/xlink" x="0px" y="0px"
	 viewBox="0 0 50 50" style="enable-background:new 0 0 50 50;" xml:space="preserve">
<path style="fill:#FAA41A;" d="M47,50H3c-1.657,0-3-1.343-3-3V3c0-1.657,1.343-3,3-3h44c1.657,0,3,1.343,3,3v44
	C50,48.657,48.657,50,47,50z"/>
<g>
	<path style="fill:#FFFFFF;" d="M15.458,22.81l-0.983-3.229H9.529L8.546,22.81H5.447L10.234,9.19h3.516l4.806,13.619H15.458z
		 M13.788,17.169c-0.909-2.925-1.421-4.58-1.536-4.963c-0.114-0.383-0.196-0.687-0.246-0.909c-0.204,0.792-0.789,2.75-1.753,5.873
		H13.788z"/>
	<path style="fill:#FFFFFF;" d="M26.826,22.81H23.95V11.64h-3.683V9.246H30.51v2.394h-3.684V22.81z"/>
	<path style="fill:#FFFFFF;" d="M39.159,22.81h-2.876V11.64h-3.683V9.246h10.242v2.394h-3.684V22.81z"/>
</g>
</svg>
