<?xml version="1.0" encoding="utf-8"?>
<!-- Generator: Avocode 2.5.2 - http://avocode.com -->
<svg height="57" width="55" xmlns:xlink="http://www.w3.org/1999/xlink" xmlns="http://www.w3.org/2000/svg" viewBox="0 0 55 57">
    <defs>
        <linearGradient y2="100%" y1="0%" x2="0%" x1="0%" id="gradient-1">
            <stop stop-color="#3caca2" offset="0%" />
            <stop stop-color="#39a299" offset="100%" />
        </linearGradient>
    </defs>
    <path fill="url(#gradient-1)" fill-rule="evenodd" d="M 27.68 54.64 C 42.68 54.64 54.84 42.47 54.84 27.47 C 54.84 12.47 42.68 0.31 27.68 0.31 C 12.67 0.31 0.51 12.47 0.51 27.47 C 0.51 42.47 12.67 54.64 27.68 54.64 Z M 27.68 54.64" />
    <path fill="#ffffff" fill-rule="evenodd" d="M 14 14 L 41 14 L 41 56.31 L 14 56.31 L 14 14 Z M 14 14" />
    <path fill="#3caca2" fill-rule="evenodd" d="M 18 18 L 22 18 L 22 23 L 18 23 L 18 18 Z M 18 18" />
    <path fill="#3caca2" fill-rule="evenodd" d="M 18 26 L 22 26 L 22 31 L 18 31 L 18 26 Z M 18 26" />
    <path fill="#3caca2" fill-rule="evenodd" d="M 18 34 L 22 34 L 22 39 L 18 39 L 18 34 Z M 18 34" />
    <path fill="#3caca2" fill-rule="evenodd" d="M 25 18 L 29 18 L 29 23 L 25 23 L 25 18 Z M 25 18" />
    <path fill="#3caca2" fill-rule="evenodd" d="M 25 26 L 29 26 L 29 31 L 25 31 L 25 26 Z M 25 26" />
    <path fill="#3caca2" fill-rule="evenodd" d="M 32 18 L 36 18 L 36 23 L 32 23 L 32 18 Z M 32 18" />
</svg>