<?xml version="1.0" encoding="utf-8"?>
<!-- Generator: Adobe Illustrator 18.1.1, SVG Export Plug-In . SVG Version: 6.00 Build 0)  -->
<svg version="1.1" id="Layer_1" xmlns="http://www.w3.org/2000/svg" xmlns:xlink="http://www.w3.org/1999/xlink" x="0px" y="0px"
	 width="16px" height="16px" viewBox="-0.332 -0.333 16 16" enable-background="new -0.332 -0.333 16 16" xml:space="preserve">
<rect x="-0.332" y="-0.333" fill="#62BF41" width="16" height="16"/>
<g>
	<path display="none" fill="#FFFFFF" d="M6.781,8.207H3.563v2.455h3.765v1.053h-5.06V3.894H7.29v1.063H3.563v2.208H6.78L6.781,8.207
		L6.781,8.207z"/>
	<path display="none" fill="#FFFFFF" d="M10.213,10.662h3.728v1.053H8.924V3.894h1.289C10.213,3.894,10.213,10.662,10.213,10.662z"
		/>
</g>
<g display="none">
	<path display="inline" fill="#FFFFFF" d="M7.247,4.619h-2.62v7.371h-1.4V4.619H0.626v-1.16h6.621
		C7.247,3.459,7.247,4.619,7.247,4.619z"/>
	<path display="inline" fill="#FFFFFF" d="M11.267,8.662h-1.43v3.328H8.431V3.459h2.695c0.438,0.004,0.841,0.06,1.21,0.167
		s0.688,0.268,0.958,0.48c0.27,0.212,0.479,0.479,0.627,0.8s0.223,0.695,0.223,1.125c0,0.289-0.038,0.552-0.114,0.788
		s-0.183,0.45-0.319,0.642S13.41,7.82,13.219,7.965s-0.402,0.268-0.633,0.369l1.805,3.586v0.07h-1.5L11.267,8.662z M9.837,7.525
		h1.295c0.234,0,0.449-0.033,0.645-0.1s0.364-0.16,0.506-0.283s0.253-0.273,0.331-0.451s0.117-0.382,0.117-0.612
		c0-0.238-0.037-0.449-0.111-0.633s-0.181-0.338-0.319-0.463s-0.308-0.22-0.507-0.284S11.372,4.6,11.126,4.596H9.837V7.525z"/>
</g>
<g>
	<path fill="#FFFFFF" d="M7.117,9.313c-0.039,0.41-0.137,0.784-0.293,1.122s-0.363,0.627-0.621,0.867s-0.562,0.426-0.911,0.557
		s-0.739,0.196-1.169,0.196c-0.52,0-0.973-0.101-1.359-0.302s-0.709-0.474-0.967-0.817s-0.451-0.746-0.58-1.207
		S1.021,8.776,1.018,8.252V7.086c0.004-0.52,0.072-1.011,0.205-1.474S1.552,4.745,1.812,4.4s0.583-0.619,0.97-0.82
		s0.836-0.302,1.348-0.302c0.449,0,0.85,0.066,1.201,0.199s0.652,0.32,0.902,0.563S6.682,4.577,6.83,4.924s0.244,0.734,0.287,1.16
		H5.711C5.688,5.834,5.64,5.607,5.567,5.402S5.396,5.021,5.271,4.874S4.989,4.616,4.8,4.537S4.387,4.42,4.129,4.42
		c-0.316,0-0.582,0.072-0.797,0.217S2.943,4.976,2.811,5.22S2.583,5.746,2.526,6.067S2.441,6.723,2.441,7.075v1.178
		c0,0.367,0.028,0.712,0.085,1.035s0.149,0.604,0.278,0.847s0.301,0.434,0.516,0.574s0.482,0.211,0.803,0.211
		c0.492,0,0.867-0.14,1.125-0.419s0.41-0.675,0.457-1.187H7.117z"/>
	<path fill="#FFFFFF" d="M14.318,9.313c-0.039,0.41-0.137,0.784-0.293,1.122s-0.363,0.627-0.621,0.867s-0.562,0.426-0.911,0.557
		s-0.739,0.196-1.169,0.196c-0.52,0-0.973-0.101-1.359-0.302s-0.709-0.474-0.967-0.817s-0.451-0.746-0.58-1.207
		S8.223,8.776,8.219,8.252V7.086c0.004-0.52,0.072-1.011,0.205-1.474S8.753,4.745,9.013,4.4s0.583-0.619,0.97-0.82
		s0.836-0.302,1.348-0.302c0.449,0,0.85,0.066,1.201,0.199s0.652,0.32,0.902,0.563s0.449,0.537,0.598,0.885s0.244,0.734,0.287,1.16
		h-1.406c-0.023-0.25-0.071-0.478-0.144-0.683s-0.171-0.381-0.296-0.527s-0.282-0.259-0.472-0.337S11.588,4.42,11.33,4.42
		c-0.316,0-0.582,0.072-0.797,0.217s-0.389,0.339-0.521,0.583S9.784,5.746,9.728,6.067S9.643,6.723,9.643,7.075v1.178
		c0,0.367,0.028,0.712,0.085,1.035s0.149,0.604,0.278,0.847s0.301,0.434,0.516,0.574s0.482,0.211,0.803,0.211
		c0.492,0,0.867-0.14,1.125-0.419s0.41-0.675,0.457-1.187H14.318z"/>
</g>
</svg>
