<svg xmlns="http://www.w3.org/2000/svg" width="70" height="70" viewBox="0 0 70 70"><title>Comission Calculation</title><path d="M3.043 0h63.913C68.636 0 70 1.363 70 3.043v63.913C70 68.636 68.637 70 66.957 70H3.043C1.363 70 0 68.637 0 66.957V3.043C0 1.363 1.363 0 3.043 0z" fill="#62BF41"/><g fill="#FFF"><path d="M21.674 25.07c-.09.958-.32 1.83-.684 2.62-.365.788-.848 1.462-1.45 2.022s-1.31.994-2.125 1.3c-.816.304-1.725.457-2.728.457-1.212 0-2.27-.236-3.172-.705S9.86 29.66 9.26 28.858c-.603-.802-1.054-1.74-1.355-2.816-.3-1.075-.456-2.224-.465-3.445v-2.72c.01-1.213.168-2.36.48-3.44.31-1.08.767-2.022 1.373-2.83.606-.806 1.36-1.443 2.263-1.913.902-.47 1.95-.704 3.145-.704 1.05 0 1.983.155 2.804.465.82.31 1.522.748 2.105 1.313.582.565 1.047 1.253 1.394 2.064.346.812.57 1.714.67 2.707h-3.28c-.056-.584-.168-1.115-.336-1.594-.17-.48-.4-.89-.69-1.23-.292-.342-.66-.604-1.1-.786-.443-.182-.965-.273-1.566-.273-.738 0-1.358.17-1.86.506-.5.337-.906.79-1.216 1.36-.31.57-.53 1.23-.663 1.976-.132.747-.198 1.53-.198 2.35v2.75c0 .856.066 1.66.198 2.412s.35 1.41.65 1.976c.3.565.7 1.012 1.202 1.34.5.328 1.125.492 1.873.492 1.148 0 2.023-.326 2.625-.978.602-.65.957-1.574 1.066-2.77h3.294zM38.477 25.07c-.09.958-.32 1.83-.684 2.62-.364.788-.848 1.462-1.45 2.022s-1.31.994-2.125 1.3-1.725.457-2.728.457c-1.212 0-2.27-.236-3.172-.705s-1.654-1.105-2.256-1.907c-.602-.802-1.053-1.74-1.354-2.816-.3-1.075-.456-2.224-.465-3.445v-2.72c.01-1.213.168-2.36.48-3.44.31-1.08.767-2.022 1.373-2.83.606-.806 1.36-1.443 2.263-1.913.9-.47 1.95-.704 3.144-.704 1.048 0 1.982.155 2.803.465.82.31 1.522.748 2.105 1.313s1.048 1.253 1.395 2.064c.347.812.57 1.714.67 2.707h-3.28c-.056-.584-.167-1.115-.336-1.594s-.397-.89-.69-1.23-.657-.604-1.1-.786c-.442-.182-.964-.273-1.565-.273-.738 0-1.358.17-1.86.506-.5.337-.906.79-1.216 1.36-.31.57-.532 1.23-.664 1.976-.132.747-.198 1.53-.198 2.35v2.75c0 .856.066 1.66.198 2.412s.35 1.41.65 1.976c.3.565.7 1.012 1.202 1.34.5.328 1.125.492 1.873.492 1.15 0 2.024-.326 2.626-.978.602-.65.957-1.574 1.066-2.77h3.295z"/></g></svg>