<?xml version="1.0" encoding="utf-8"?>
<!-- Generator: Adobe Illustrator 21.0.2, SVG Export Plug-In . SVG Version: 6.00 Build 0)  -->
<svg version="1.1" id="Слой_1" xmlns="http://www.w3.org/2000/svg" xmlns:xlink="http://www.w3.org/1999/xlink" x="0px" y="0px"
	 viewBox="0 0 21 21" style="enable-background:new 0 0 21 21;" xml:space="preserve">
<style type="text/css">
	.st0{fill:#88959C;}
	.st1{fill:#FFFFFF;}
</style>
<title>Group</title>
<desc>Created with Sketch.</desc>
<g id="STATUSES" transform="translate(-724.000000, -151.000000)">
	<g id="Group" transform="translate(726.000000, 153.000000)">
		<g id="Oval-12-Copy">
			<g>
				<path id="path-1" class="st0" d="M8.5,19C14.3,19,19,14.3,19,8.5S14.3-2,8.5-2S-2,2.7-2,8.5S2.7,19,8.5,19z"/>
			</g>
		</g>
		<g id="_x30_06-padlock" transform="translate(6.000000, 4.000000)">
			<path id="Combined-Shape" class="st1" d="M5.7,10h-6.5C-1.5,10-2,9.4-2,8.7V4.6C-2,4-1.6,3.5-1,3.4V1.5c0-2,1.6-3.6,3.5-3.6
				S6-0.5,6,1.5v1.8c0.6,0.1,1,0.6,1,1.2v4.1l0,0C7,9.4,6.4,10,5.7,10z M2.5,5.3c-0.6,0-1.1,0.5-1.1,1.1c0,0.4,0.2,0.8,0.6,1v1.2
				h1.1V7.3c0.3-0.2,0.6-0.6,0.6-1C3.6,5.8,3.1,5.3,2.5,5.3z M2.5-0.2c-0.9,0-1.7,0.8-1.7,1.7v1.8h3.4V1.5C4.2,0.6,3.4-0.2,2.5-0.2z
				"/>
		</g>
	</g>
</g>
</svg>
