<?xml version="1.0" encoding="UTF-8" standalone="no"?>
<svg
   xmlns:dc="http://purl.org/dc/elements/1.1/"
   xmlns:cc="http://creativecommons.org/ns#"
   xmlns:rdf="http://www.w3.org/1999/02/22-rdf-syntax-ns#"
   xmlns:svg="http://www.w3.org/2000/svg"
   xmlns="http://www.w3.org/2000/svg"
   id="svg8"
   version="1.1"
   viewBox="0 0 3.1749799 2.6458321"
   height="2.6458321mm"
   width="3.1749799mm">
  <defs
     id="defs2" />
  <metadata
     id="metadata5">
    <rdf:RDF>
      <cc:Work
         rdf:about="">
        <dc:format>image/svg+xml</dc:format>
        <dc:type
           rdf:resource="http://purl.org/dc/dcmitype/StillImage" />
        <dc:title></dc:title>
      </cc:Work>
    </rdf:RDF>
  </metadata>
  <g
     transform="translate(-169.44659,-49.236419)"
     id="layer1">
    <path
       id="path10"
       d="m 169.71117,49.236419 c -0.13229,0 -0.26458,0.132291 -0.26458,0.264583 v 1.455208 c 0,0.15875 0.13229,0.264584 0.26458,0.264584 h 0.47643 c 0.0265,0 0.0796,0.02667 0.0796,0.07958 v 0.581877 l 0.58187,-0.634587 c 0,-0.02646 0.0263,-0.02687 0.0527,-0.02687 h 1.45521 c 0.15875,0 0.26459,-0.132292 0.26459,-0.264584 v -0.608232 -0.846976 c 0,-0.132292 -0.13232,-0.264583 -0.26459,-0.264583 h -2.30169 z m -0.0532,0.256831 h 2.75227 v 1.4118 h -2.75227 z m 0.74723,0.635103 a 0.16831751,0.16536458 0 0 0 -0.16846,0.165364 0.16831751,0.16536458 0 0 0 0.16846,0.165365 0.16831751,0.16536458 0 0 0 0.16846,-0.165365 0.16831751,0.16536458 0 0 0 -0.16846,-0.165364 z m 1.23714,0 a 0.16831751,0.16536458 0 0 0 -0.16796,0.165364 0.16831751,0.16536458 0 0 0 0.16796,0.165365 0.16831751,0.16536458 0 0 0 0.16846,-0.165365 0.16831751,0.16536458 0 0 0 -0.16846,-0.165364 z m -0.60822,0.01188 a 0.16831751,0.16536458 0 0 0 -0.16796,0.165364 0.16831751,0.16536458 0 0 0 0.16796,0.165365 0.16831751,0.16536458 0 0 0 0.16846,-0.165365 0.16831751,0.16536458 0 0 0 -0.16846,-0.165364 z"
       style="fill:#76b0db;stroke-width:0.26458332" />
  </g>
</svg>
