<svg id="Layer_1" data-name="Layer 1" xmlns="http://www.w3.org/2000/svg" viewBox="0 0 16 16"><defs><style>.cls-1{fill:#f93;}.cls-2{fill:#fff;}</style></defs><title>cp-sm-orange</title><rect class="cls-1" width="16" height="16"/><path class="cls-2" d="M7.1,9.3a3.43,3.43,0,0,1-.29,1.12,2.68,2.68,0,0,1-1.53,1.42,3.31,3.31,0,0,1-1.17.2,2.9,2.9,0,0,1-1.36-.3,2.83,2.83,0,0,1-1-.82A3.6,3.6,0,0,1,1.2,9.72,5.62,5.62,0,0,1,1,8.24V7.08A5.47,5.47,0,0,1,1.21,5.6a3.69,3.69,0,0,1,.59-1.21,2.83,2.83,0,0,1,1-.82,2.88,2.88,0,0,1,1.35-.3,3.38,3.38,0,0,1,1.2.2,2.59,2.59,0,0,1,.9.56,2.69,2.69,0,0,1,.6.89A3.93,3.93,0,0,1,7.1,6.08H5.69a2.85,2.85,0,0,0-.14-0.68,1.63,1.63,0,0,0-.3-0.53,1.22,1.22,0,0,0-.47-0.34,1.76,1.76,0,0,0-.67-0.12,1.39,1.39,0,0,0-.8.22,1.62,1.62,0,0,0-.52.58,2.75,2.75,0,0,0-.28.85,5.84,5.84,0,0,0-.09,1V8.24a5.94,5.94,0,0,0,.09,1,2.86,2.86,0,0,0,.28.85,1.52,1.52,0,0,0,.52.57,1.44,1.44,0,0,0,.8.21,1.46,1.46,0,0,0,1.13-.42A2,2,0,0,0,5.69,9.3H7.1Z" transform="translate(0.33 0.33)"/><path class="cls-2" d="M10.05,8.65v3.27H8.65V3.39H11.5a3.76,3.76,0,0,1,1.18.19,2.76,2.76,0,0,1,.94.53,2.38,2.38,0,0,1,.61.83A2.67,2.67,0,0,1,14.45,6a2.56,2.56,0,0,1-.22,1.08,2.39,2.39,0,0,1-.61.82,2.73,2.73,0,0,1-.94.52,3.82,3.82,0,0,1-1.18.19H10.05Zm0-1.14H11.5a1.78,1.78,0,0,0,.64-0.11,1.39,1.39,0,0,0,.48-0.3,1.31,1.31,0,0,0,.31-0.46A1.58,1.58,0,0,0,13,6.06a1.74,1.74,0,0,0-.1-0.61A1.35,1.35,0,0,0,12.62,5a1.39,1.39,0,0,0-.48-0.31,1.81,1.81,0,0,0-.64-0.12H10.05v3Z" transform="translate(0.33 0.33)"/></svg>