<?xml version="1.0" encoding="utf-8"?>
<!-- Generator: Adobe Illustrator 19.2.1, SVG Export Plug-In . SVG Version: 6.00 Build 0)  -->
<!DOCTYPE svg PUBLIC "-//W3C//DTD SVG 1.1//EN" "http://www.w3.org/Graphics/SVG/1.1/DTD/svg11.dtd">
<svg version="1.1" id="Layer_1" xmlns="http://www.w3.org/2000/svg" xmlns:xlink="http://www.w3.org/1999/xlink" x="0px" y="0px"
	 viewBox="0 0 50 50" style="enable-background:new 0 0 50 50;" xml:space="preserve">
<path style="fill:#62B146;" d="M47,50H3c-1.657,0-3-1.343-3-3V3c0-1.657,1.343-3,3-3h44c1.657,0,3,1.343,3,3v44
	C50,48.657,48.657,50,47,50z"/>
<g>
	<path style="fill:#FFFFFF;" d="M12.916,9.993c-1.083,0-1.92,0.407-2.514,1.22c-0.594,0.813-0.891,1.947-0.891,3.4
		c0,3.024,1.135,4.537,3.405,4.537c0.952,0,2.106-0.238,3.46-0.714v2.412c-1.113,0.464-2.356,0.696-3.729,0.696
		c-1.973,0-3.482-0.599-4.527-1.795c-1.045-1.197-1.568-2.915-1.568-5.154c0-1.41,0.256-2.646,0.77-3.707
		c0.513-1.061,1.251-1.874,2.213-2.439c0.961-0.566,2.088-0.849,3.381-0.849c1.317,0,2.641,0.319,3.971,0.956l-0.928,2.338
		c-0.507-0.241-1.018-0.451-1.531-0.631C13.914,10.083,13.41,9.993,12.916,9.993z"/>
	<path style="fill:#FFFFFF;" d="M29.962,12.025c0,1.46-0.456,2.576-1.368,3.349c-0.913,0.773-2.21,1.16-3.893,1.16h-1.234v4.824
		h-2.876V7.794h4.333c1.646,0,2.896,0.354,3.753,1.062C29.533,9.565,29.962,10.621,29.962,12.025z M23.467,14.177h0.947
		c0.885,0,1.546-0.175,1.985-0.524c0.439-0.349,0.659-0.858,0.659-1.526c0-0.674-0.185-1.172-0.553-1.494
		c-0.368-0.321-0.944-0.482-1.73-0.482h-1.308V14.177z"/>
</g>
</svg>
