<?xml version="1.0" encoding="utf-8"?>
<!-- Generator: Adobe Illustrator 22.1.0, SVG Export Plug-In . SVG Version: 6.00 Build 0)  -->
<svg version="1.1" id="Layer_1" xmlns="http://www.w3.org/2000/svg" xmlns:xlink="http://www.w3.org/1999/xlink" x="0px" y="0px"
	 viewBox="0 0 11 19" style="enable-background:new 0 0 11 19;" xml:space="preserve">
<style type="text/css">
	.st0{fill:none;}
	.st1{fill:#767E83;}
</style>
<title>$</title>
<desc>Created with Sketch.</desc>
<path class="st0" d="M2.7,3.5c0,0.4,0.1,0.8,0.4,1.2C3.3,5,4,5.6,5,6.2V1.4c-0.6,0-1.1,0.2-1.5,0.5C3,2.3,2.7,2.9,2.7,3.5z"/>
<path class="st0" d="M6.1,11.3v5.4c0.7-0.2,1.2-0.4,1.6-0.9C8,15.5,8.2,15,8.2,14.4c0-0.5-0.1-1-0.4-1.5C7.4,12.4,6.9,11.9,6.1,11.3
	z"/>
<g>
	<path class="st0" d="M6.1,11.3v5.4c0.7-0.2,1.2-0.4,1.6-0.9C8,15.5,8.2,15,8.2,14.4c0-0.5-0.1-1-0.4-1.5
		C7.4,12.4,6.9,11.9,6.1,11.3z"/>
	<path class="st0" d="M2.7,3.5c0,0.4,0.1,0.8,0.4,1.2C3.3,5,4,5.6,5,6.2V1.4c-0.6,0-1.1,0.2-1.5,0.5C3,2.3,2.7,2.9,2.7,3.5z"/>
	<path class="st1" d="M9.9,9.8C9.3,9.1,8.1,8.2,6.1,6.9V1.5c0.7,0.2,1.2,0.4,1.6,0.7C8.2,2.5,8.7,3,9,3.5c0.3,0.5,0.6,1.2,0.9,2h0.5
		V1.9C8.9,1.1,7.5,0.7,6.1,0.6V0H5v0.6C3.3,0.8,2.1,1.3,1.2,2.1C0.4,3,0,3.9,0,5c0,1,0.3,1.9,1,2.6c0.7,0.7,2,1.7,4,3v6.1
		c-0.8-0.1-1.5-0.2-2-0.5c-0.5-0.3-1-0.7-1.4-1.3c-0.4-0.6-0.6-1.3-0.8-2.2H0.3v4c0.9,0.3,1.7,0.6,2.4,0.7c0.7,0.1,1.5,0.2,2.3,0.2
		V19h1.1v-1.5c1.5-0.1,2.7-0.6,3.6-1.5c0.9-0.9,1.3-2,1.3-3.2C11,11.6,10.6,10.6,9.9,9.8z M5,6.2C4,5.6,3.3,5,3.1,4.7
		C2.8,4.3,2.7,3.9,2.7,3.5c0-0.6,0.3-1.1,0.9-1.6C3.9,1.6,4.4,1.5,5,1.4V6.2z M7.7,15.9c-0.3,0.4-0.9,0.7-1.6,0.9v-5.4
		c0.8,0.6,1.3,1.1,1.6,1.6c0.3,0.5,0.4,0.9,0.4,1.5C8.2,15,8,15.5,7.7,15.9z"/>
</g>
</svg>
