<?xml version="1.0" encoding="UTF-8" standalone="no"?>
<svg width="69px" height="69px" viewBox="0 0 69 69" version="1.1" xmlns="http://www.w3.org/2000/svg" xmlns:xlink="http://www.w3.org/1999/xlink">
    <!-- Generator: Sketch 3.6.1 (26313) - http://www.bohemiancoding.com/sketch -->
    <title>Customer 72 Dis</title>
    <desc>Created with Sketch.</desc>
    <defs></defs>
    <g id="assets" stroke="none" stroke-width="1" fill="none" fill-rule="evenodd">
        <g id="Customer-72-Dis">
            <rect id="Rectangle-128" fill="#CFD5E0" x="0" y="0" width="69" height="69" rx="3"></rect>
            <path d="M23.6132812,26.765625 C23.5494788,27.7682342 23.3330097,28.6705689 22.9638672,29.4726562 C22.5947247,30.2747436 22.1002635,30.9583305 21.4804688,31.5234375 C20.860674,32.0885445 20.1224001,32.5237615 19.265625,32.8291016 C18.4088499,33.1344416 17.4609427,33.2871094 16.421875,33.2871094 C15.2460879,33.2871094 14.2024785,33.0706402 13.2910156,32.6376953 C12.3795527,32.2047504 11.6139354,31.5986367 10.9941406,30.8193359 C10.3743459,30.0400352 9.90039227,29.1035211 9.57226562,28.0097656 C9.24413898,26.9160102 9.08007812,25.7128972 9.08007812,24.4003906 L9.08007812,21.7207031 C9.08007812,20.3990819 9.25325348,19.1914117 9.59960938,18.0976562 C9.94596527,17.0039008 10.4381479,16.0651081 11.0761719,15.28125 C11.7141959,14.4973919 12.4866491,13.8889996 13.3935547,13.4560547 C14.3004603,13.0231098 15.3190048,12.8066406 16.4492188,12.8066406 C17.5429742,12.8066406 18.5159463,12.961587 19.3681641,13.2714844 C20.2203819,13.5813818 20.9472626,14.0234346 21.5488281,14.5976562 C22.1503936,15.1718779 22.6243472,15.8736938 22.9707031,16.703125 C23.317059,17.5325562 23.5358068,18.4667917 23.6269531,19.5058594 L19.7988281,19.5058594 C19.7623696,18.9134085 19.6735033,18.3938824 19.5322266,17.9472656 C19.3909498,17.5006488 19.1858737,17.1292333 18.9169922,16.8330078 C18.6481106,16.5367824 18.3108744,16.3134773 17.9052734,16.1630859 C17.4996725,16.0126946 17.0143257,15.9375 16.4492188,15.9375 C15.8567679,15.9375 15.3417991,16.0651029 14.9042969,16.3203125 C14.4667947,16.5755221 14.1044936,16.9492163 13.8173828,17.4414062 C13.530272,17.9335962 13.3183601,18.5374313 13.1816406,19.2529297 C13.0449212,19.9684281 12.9765625,20.7818965 12.9765625,21.6933594 L12.9765625,24.4003906 C12.9765625,26.3600358 13.2522759,27.8092401 13.8037109,28.7480469 C14.355146,29.6868537 15.2278586,30.15625 16.421875,30.15625 C17.4244842,30.15625 18.217445,29.8896511 18.8007812,29.3564453 C19.3841175,28.8232395 19.707682,27.9596414 19.7714844,26.765625 L23.6132812,26.765625 Z M27.4414062,13.09375 L38.953125,13.09375 L38.953125,16.1972656 L35.0703125,16.1972656 L35.0703125,29.9101562 L38.953125,29.9101562 L38.953125,33 L27.4414062,33 L27.4414062,29.9101562 L31.2285156,29.9101562 L31.2285156,16.1972656 L27.4414062,16.1972656 L27.4414062,13.09375 Z M56.0292969,24.7558594 L47.4980469,24.7558594 L47.4980469,33 L43.6425781,33 L43.6425781,13.09375 L57.0957031,13.09375 L57.0957031,16.2246094 L47.4980469,16.2246094 L47.4980469,21.6386719 L56.0292969,21.6386719 L56.0292969,24.7558594 Z" id="CIF" fill="#FFFFFF"></path>
        </g>
    </g>
</svg>