<?xml version="1.0" encoding="UTF-8" standalone="no"?>
<svg width="16px" height="16px" viewBox="0 0 16 16" version="1.1" xmlns="http://www.w3.org/2000/svg" xmlns:xlink="http://www.w3.org/1999/xlink">
    <!-- Generator: Sketch 3.6.1 (26313) - http://www.bohemiancoding.com/sketch -->
    <title>Customer private 16 Dis</title>
    <desc>Created with Sketch.</desc>
    <defs></defs>
    <g id="assets" stroke="none" stroke-width="1" fill="none" fill-rule="evenodd">
        <g id="Customer-private-16-Dis">
            <rect id="Rectangle-128" fill="#CFD5E0" x="0" y="0" width="16" height="16"></rect>
            <path d="M5.90332031,9.44140625 C5.88736971,9.69205854 5.83325241,9.91764223 5.7409668,10.1181641 C5.64868118,10.3186859 5.52506588,10.4895826 5.37011719,10.6308594 C5.2151685,10.7721361 5.03060003,10.8809404 4.81640625,10.9572754 C4.60221247,11.0336104 4.36523567,11.0717773 4.10546875,11.0717773 C3.81152197,11.0717773 3.55061963,11.01766 3.32275391,10.9094238 C3.09488818,10.8011876 2.90348385,10.6496592 2.74853516,10.454834 C2.59358646,10.2600088 2.47509807,10.0258803 2.39306641,9.75244141 C2.31103475,9.47900254 2.27001953,9.1782243 2.27001953,8.85009766 L2.27001953,8.18017578 C2.27001953,7.84977048 2.31331337,7.54785293 2.39990234,7.27441406 C2.48649132,7.0009752 2.60953696,6.76627702 2.76904297,6.5703125 C2.92854897,6.37434798 3.12166228,6.22224989 3.34838867,6.11401367 C3.57511507,6.00577745 3.82975119,5.95166016 4.11230469,5.95166016 C4.38574355,5.95166016 4.62898656,5.99039675 4.84204102,6.06787109 C5.05509547,6.14534544 5.23681565,6.25585866 5.38720703,6.39941406 C5.53759841,6.54296947 5.65608681,6.71842344 5.74267578,6.92578125 C5.82926476,7.13313906 5.88395171,7.36669792 5.90673828,7.62646484 L4.94970703,7.62646484 C4.9405924,7.47835212 4.91837583,7.34847061 4.88305664,7.23681641 C4.84773745,7.1251622 4.79646844,7.03230831 4.72924805,6.95825195 C4.66202766,6.88419559 4.57771861,6.82836933 4.47631836,6.79077148 C4.37491811,6.75317364 4.25358144,6.734375 4.11230469,6.734375 C3.96419197,6.734375 3.83544977,6.76627572 3.72607422,6.83007812 C3.61669867,6.89388053 3.52612341,6.98730407 3.4543457,7.11035156 C3.382568,7.23339905 3.32959001,7.38435783 3.29541016,7.56323242 C3.2612303,7.74210701 3.24414062,7.94547412 3.24414062,8.17333984 L3.24414062,8.85009766 C3.24414062,9.34000896 3.31306897,9.70231002 3.45092773,9.93701172 C3.5887865,10.1717134 3.80696465,10.2890625 4.10546875,10.2890625 C4.35612104,10.2890625 4.55436125,10.2224128 4.70019531,10.0891113 C4.84602938,9.95580988 4.92692049,9.73991035 4.94287109,9.44140625 L5.90332031,9.44140625 Z M6.86035156,6.0234375 L9.73828125,6.0234375 L9.73828125,6.79931641 L8.76757812,6.79931641 L8.76757812,10.2275391 L9.73828125,10.2275391 L9.73828125,11 L6.86035156,11 L6.86035156,10.2275391 L7.80712891,10.2275391 L7.80712891,6.79931641 L6.86035156,6.79931641 L6.86035156,6.0234375 Z M14.0073242,8.93896484 L11.8745117,8.93896484 L11.8745117,11 L10.9106445,11 L10.9106445,6.0234375 L14.2739258,6.0234375 L14.2739258,6.80615234 L11.8745117,6.80615234 L11.8745117,8.15966797 L14.0073242,8.15966797 L14.0073242,8.93896484 Z" id="EL" fill="#FFFFFF"></path>
        </g>
    </g>
</svg>