<?xml version="1.0" encoding="UTF-8"?>
<svg width="50px" height="45px" viewBox="0 0 50 45" version="1.1" xmlns="http://www.w3.org/2000/svg" xmlns:xlink="http://www.w3.org/1999/xlink">
    <!-- Generator: Sketch 51.3 (57544) - http://www.bohemiancoding.com/sketch -->
    <title>Customer 55</title>
    <desc>Created with Sketch.</desc>
    <defs>
        <linearGradient x1="50%" y1="0%" x2="50%" y2="100%" id="linearGradient-1">
            <stop stop-color="#3CACA2" offset="0%"></stop>
            <stop stop-color="#39A299" offset="100%"></stop>
        </linearGradient>
    </defs>
    <g id="assets" stroke="none" stroke-width="1" fill="none" fill-rule="evenodd">
        <g id="Customer-55">
            <rect id="Rectangle-path" x="1.75438596" y="1.56641604" width="47.556391" height="47.556391"></rect>
            <path d="M10.3415617,44.729679 C4.34451474,40.2240957 0.465519267,33.0515804 0.465519267,24.9730772 C0.465519267,11.3341138 11.5220837,0.277549342 25.1610471,0.277549342 C38.8000106,0.277549342 49.856575,11.3341138 49.856575,24.9730772 C49.856575,33.1795541 45.8537098,40.4511117 39.6939427,44.9417866 C36.074005,42.393565 30.6979519,41.9478334 29.5810892,38.9198038 C29.4412001,37.3639492 29.4948562,36.2781326 29.4948562,34.8564366 C30.1943015,34.4867764 31.4475542,32.1298304 31.6593041,30.1386839 C32.2092789,30.0933209 33.0763995,29.5528255 33.3303077,27.4188338 C33.4673223,26.2731766 32.9230964,25.6284428 32.5915784,25.4257571 C33.4864852,22.7145935 35.3452851,14.3272631 29.1537568,13.4605401 C28.5165909,12.3332211 26.8848712,11.7628055 24.7644979,11.7628055 C16.2810885,11.9201282 15.2577904,18.2159345 17.1175485,25.4257571 C16.7869887,25.6284428 16.2427628,26.2731766 16.3788192,27.4188338 C16.6336856,29.5528255 17.499848,30.0933209 18.0498228,30.1386839 C18.2606146,32.1288652 19.5636908,34.4867764 20.2650524,34.8564366 C20.2650524,36.2781326 20.3177503,37.3639492 20.1778613,38.9198038 C19.0916089,41.8614362 13.966535,42.3651262 10.3415617,44.729679 Z" id="Oval" fill="url(#linearGradient-1)"></path>
        </g>
    </g>
</svg>