<?xml version="1.0" encoding="utf-8"?>
<!-- Generator: Adobe Illustrator 19.2.1, SVG Export Plug-In . SVG Version: 6.00 Build 0)  -->
<!DOCTYPE svg PUBLIC "-//W3C//DTD SVG 1.1//EN" "http://www.w3.org/Graphics/SVG/1.1/DTD/svg11.dtd">
<svg version="1.1" id="Layer_1" xmlns="http://www.w3.org/2000/svg" xmlns:xlink="http://www.w3.org/1999/xlink" x="0px" y="0px"
	 width="70px" height="70px" viewBox="0 0 70 70" style="enable-background:new 0 0 70 70;" xml:space="preserve">
<title>Engagement letter 69</title>
<desc>Created with Sketch.</desc>
<path id="Rectangle-128" style="fill:#3CACA2;" d="M3.043,0h63.913C68.637,0,70,1.363,70,3.043v63.913
	C70,68.637,68.637,70,66.957,70H3.043C1.363,70,0,68.637,0,66.957V3.043C0,1.363,1.363,0,3.043,0z"/>
<g>
	<path style="fill:#FFFFFF;" d="M21.674,25.071c-0.091,0.957-0.319,1.83-0.684,2.618c-0.365,0.789-0.848,1.463-1.449,2.023
		s-1.311,0.994-2.126,1.299c-0.816,0.305-1.725,0.458-2.728,0.458c-1.212,0-2.27-0.235-3.172-0.704s-1.654-1.105-2.256-1.907
		c-0.602-0.802-1.053-1.741-1.354-2.816c-0.301-1.075-0.456-2.224-0.465-3.445v-2.721c0.009-1.212,0.168-2.358,0.479-3.438
		c0.31-1.08,0.768-2.023,1.374-2.83c0.606-0.807,1.36-1.444,2.263-1.914c0.902-0.469,1.95-0.704,3.145-0.704
		c1.048,0,1.982,0.155,2.803,0.465c0.82,0.31,1.522,0.748,2.105,1.313c0.583,0.565,1.048,1.253,1.395,2.064
		c0.346,0.812,0.569,1.714,0.67,2.707h-3.281c-0.055-0.583-0.167-1.114-0.335-1.593c-0.169-0.479-0.399-0.889-0.69-1.23
		c-0.292-0.342-0.659-0.604-1.101-0.786c-0.442-0.182-0.964-0.273-1.565-0.273c-0.738,0-1.358,0.169-1.859,0.506
		c-0.501,0.337-0.907,0.791-1.217,1.36c-0.31,0.57-0.531,1.229-0.663,1.976c-0.132,0.748-0.198,1.531-0.198,2.352v2.748
		c0,0.857,0.066,1.661,0.198,2.413c0.132,0.752,0.349,1.411,0.649,1.976c0.301,0.565,0.702,1.012,1.203,1.34
		c0.501,0.328,1.125,0.492,1.873,0.492c1.148,0,2.023-0.326,2.625-0.978c0.602-0.651,0.957-1.574,1.066-2.769H21.674z"/>
	<path style="fill:#FFFFFF;" d="M25.475,11.276h11.84v2.721h-4.307v14.479h4.307v2.707h-11.84v-2.707h4.211V13.997h-4.211V11.276z"
		/>
	<path style="fill:#FFFFFF;" d="M53.762,22.706h-8.354v8.477H42.1V11.276h12.893v2.707h-9.584v6.029h8.354V22.706z"/>
</g>
</svg>
