<?xml version="1.0" encoding="UTF-8" standalone="no"?>
<svg width="18px" height="15px" viewBox="0 0 18 15" version="1.1" xmlns="http://www.w3.org/2000/svg" xmlns:xlink="http://www.w3.org/1999/xlink" xmlns:sketch="http://www.bohemiancoding.com/sketch/ns">
    <!-- Generator: Sketch 3.5.2 (25235) - http://www.bohemiancoding.com/sketch -->
    <title>Deal icon team</title>
    <desc>Created with Sketch.</desc>
    <defs></defs>
    <g id="assets" stroke="none" stroke-width="1" fill="none" fill-rule="evenodd" sketch:type="MSPage">
        <g id="Deal-icon-team" sketch:type="MSLayerGroup">
            <g id="1441128893_folder" fill="#899BAC" sketch:type="MSShapeGroup">
                <path d="M9,2 L7,0 L2,0 C0.9,0 0,0.9 0,2 L0,13 C0,14.1 0.9,15 2,15 L16,15 C17.1,15 18,14.1 18,13 L18,4 C18,2.9 17.1,2 16,2 L9,2 Z" id="Shape"></path>
            </g>
            <g id="Group-2" transform="translate(4.000000, 6.000000)" fill="#CFD5E0" sketch:type="MSShapeGroup">
                <circle id="Oval-180" cx="2.5" cy="1.5" r="1.5"></circle>
                <circle id="Oval-180" cx="7.5" cy="1.5" r="1.5"></circle>
                <path d="M5,6 C5,5.11928813 3.88071187,4 2.5,4 C1.11928813,4 0,5.11928813 0,6 L5,6 Z" id="Oval-182"></path>
                <path d="M10,6 C10,5.11928813 8.88071187,4 7.5,4 C6.11928813,4 5,5.11928813 5,6 L10,6 Z" id="Oval-182"></path>
            </g>
        </g>
    </g>
</svg>