<?xml version="1.0" encoding="utf-8"?>
<!-- Generator: Adobe Illustrator 21.0.2, SVG Export Plug-In . SVG Version: 6.00 Build 0)  -->
<svg version="1.1" id="Слой_1" xmlns="http://www.w3.org/2000/svg" xmlns:xlink="http://www.w3.org/1999/xlink" x="0px" y="0px"
	 viewBox="0 0 14 14" enable-background="new 0 0 14 14" xml:space="preserve">
<g>
	<g transform="translate(-243 -119)">
		<g>
			<g>
				<path id="_x35_p8ga" fill="#097BF2" d="M250,133c3.9,0,7-3.1,7-7c0-3.9-3.1-7-7-7s-7,3.1-7,7C243,129.9,246.1,133,250,133
					L250,133z"/>
			</g>
		</g>
		<g>
			<g>
				<g>
					<path id="_x35_p8gb" fill="#FFFFFF" d="M251.1,123.4l1.4,1.3l-3.4,3.4l-1.4-1.3L251.1,123.4z M253.5,123.8l-0.7,0.7l-1.4-1.3
						l0.6-0.6c0.2-0.2,0.6-0.2,0.8,0l0.6,0.6C253.7,123.3,253.7,123.6,253.5,123.8z M247.3,127.2l1.4,1.3l-1.5,0.4
						c-0.1,0-0.2,0-0.2-0.1c0,0,0-0.1,0-0.1L247.3,127.2z"/>
				</g>
			</g>
		</g>
	</g>
</g>
</svg>
