<?xml version="1.0" encoding="UTF-8"?>
<svg width="22px" height="23px" viewBox="0 0 22 23" version="1.1" xmlns="http://www.w3.org/2000/svg" xmlns:xlink="http://www.w3.org/1999/xlink">
    <!-- Generator: Sketch 51.1 (57501) - http://www.bohemiancoding.com/sketch -->
    <title>pointer-crosstree</title>
    <desc>Created with Sketch.</desc>
    <defs>
        <path d="M10.712,7.608 C12.979,7.608 14.816,9.446 14.816,11.712 C14.816,13.978 12.979,15.816 10.712,15.816 C8.446,15.816 6.608,13.979 6.608,11.712 C6.608,9.446 8.446,7.608 10.712,7.608 Z" id="path-1"></path>
        <filter x="-85.3%" y="-60.9%" width="270.6%" height="270.6%" filterUnits="objectBoundingBox" id="filter-2">
            <feOffset dx="0" dy="2" in="SourceAlpha" result="shadowOffsetOuter1"></feOffset>
            <feGaussianBlur stdDeviation="2" in="shadowOffsetOuter1" result="shadowBlurOuter1"></feGaussianBlur>
            <feColorMatrix values="0 0 0 0 0   0 0 0 0 0   0 0 0 0 0  0 0 0 0.5 0" type="matrix" in="shadowBlurOuter1"></feColorMatrix>
        </filter>
    </defs>
    <g id="Page-1" stroke="none" stroke-width="1" fill="none" fill-rule="evenodd">
        <g id="Layout_updated_drag@2x" transform="translate(-347.000000, -563.000000)" fill-rule="nonzero">
            <g id="Group-53" transform="translate(0.000000, 520.000000)">
                <g id="Group-44" transform="translate(118.000000, 29.000000)">
                    <g id="pointer-crosstree" transform="translate(229.000000, 14.000000)">
                        <g id="Group" fill="#FFFFFF">
                            <polygon id="Shape" points="13.616 18.709 13.616 18.709 14.397 18.709 10.711 22.424 7.026 18.709 7.807 18.709 7.807 18.709"></polygon>
                            <polygon id="Shape" points="13.5741437 4.33072727 13.5741437 4.33072727 14.3438869 4.33072727 10.712 0.669272727 7.08011306 4.33072727 7.84985626 4.33072727 7.84985626 4.33072727"></polygon>
                            <polygon id="Shape" transform="translate(19.857500, 11.685500) rotate(-90.000000) translate(-19.857500, -11.685500) " points="22.762 9.828 22.762 9.828 23.543 9.828 19.857 13.543 16.172 9.828 16.953 9.828 16.953 9.828"></polygon>
                            <polygon id="Shape" transform="translate(1.830727, 11.631887) rotate(-90.000000) translate(-1.830727, -11.631887) " points="4.69287101 13.4626142 4.69287101 13.4626142 5.46261422 13.4626142 1.83072727 9.80115967 -1.80115967 13.4626142 -1.03141647 13.4626142 -1.03141647 13.4626142"></polygon>
                        </g>
                        <g id="Shape">
                            <use fill="black" fill-opacity="1" filter="url(#filter-2)" xlink:href="#path-1"></use>
                            <use fill="#FFFFFF" xlink:href="#path-1"></use>
                        </g>
                    </g>
                </g>
            </g>
        </g>
    </g>
</svg>