<?xml version="1.0" encoding="utf-8"?>
<!-- Generator: Adobe Illustrator 19.2.1, SVG Export Plug-In . SVG Version: 6.00 Build 0)  -->
<svg version="1.1" id="Layer_1" xmlns="http://www.w3.org/2000/svg" xmlns:xlink="http://www.w3.org/1999/xlink" x="0px" y="0px"
	 viewBox="0 0 25 25" style="enable-background:new 0 0 25 25;" xml:space="preserve">
<g>
	<path id="a" style="fill:#097BF2;" d="M12.5,23C18.3,23,23,18.3,23,12.5S18.3,2,12.5,2S2,6.7,2,12.5S6.7,23,12.5,23z"/>
</g>
<path style="fill:none;stroke:#FFFFFF;stroke-width:2;" d="M12.5,24C6.1,24,1,18.9,1,12.5S6.1,1,12.5,1S24,6.1,24,12.5
	S18.9,24,12.5,24z"/>
<g id="miu">
	<g id="Artboard-1" transform="translate(-899.000000, -227.000000)">
		<g id="slice" transform="translate(215.000000, 119.000000)">
		</g>
		<path id="editor-pencil-pen-edit-write-glyph" style="fill:#FFFFFF;" d="M909.7,243.9l5.1-5.6l0,0l-2.2-2.5l-5.1,5.6L909.7,243.9z
			 M909.4,244.3l-2.7,0.5l0.5-3L909.4,244.3z M915.2,237.9l1-1.1c0.3-0.4,0-0.7,0-0.7l-1.6-1.8c0,0-0.3-0.4-0.6,0l-1,1.1
			L915.2,237.9L915.2,237.9z"/>
	</g>
</g>
</svg>
