<svg id="Layer_1" data-name="Layer 1" xmlns="http://www.w3.org/2000/svg" viewBox="0 0 70 70"><defs><style>.cls-1{fill:#62b146;}.cls-2{fill:#fff;}</style></defs><title>fr</title><path class="cls-1" d="M3,0H67a3,3,0,0,1,3,3V67a3,3,0,0,1-3,3H3a3,3,0,0,1-3-3V3A3,3,0,0,1,3,0Z"/><path class="cls-2" d="M7.52,11H19.58v3.13H11.33v5.77H19V23H11.33v8.87H7.52V11Z"/><path class="cls-2" d="M23.3,11.26a36.22,36.22,0,0,1,5.77-.43c3,0,5.05.5,6.45,1.67a5.29,5.29,0,0,1,1.8,4.19,5.57,5.57,0,0,1-3.78,5.24V22c1.49,0.56,2.39,2,2.91,4a41.69,41.69,0,0,0,1.64,5.83H34.15a29.44,29.44,0,0,1-1.4-4.93c-0.59-2.73-1.58-3.6-3.75-3.66H27.08v8.59H23.3V11.26Zm3.78,9.24h2.26c2.57,0,4.19-1.36,4.19-3.44,0-2.29-1.61-3.35-4.09-3.35a11,11,0,0,0-2.36.19v6.6Z"/></svg>