<?xml version="1.0" encoding="UTF-8" standalone="no"?>
<svg width="66px" height="65px" viewBox="0 0 66 65" version="1.1" xmlns="http://www.w3.org/2000/svg" xmlns:xlink="http://www.w3.org/1999/xlink" xmlns:sketch="http://www.bohemiancoding.com/sketch/ns">
    <!-- Generator: Sketch 3.4 (15588) - http://www.bohemiancoding.com/sketch -->
    <title>Get funds</title>
    <desc>Created with Sketch.</desc>
    <defs></defs>
    <g id="assets" stroke="none" stroke-width="1" fill="none" fill-rule="evenodd" sketch:type="MSPage">
        <path d="M32.0136719,18.0073242 C32.0354819,17.6801741 32.1009109,17.3748387 32.2099609,17.0913086 C32.319011,16.8077785 32.5098456,16.5515148 32.7824707,16.3225098 C33.0550958,16.0935047 33.4204079,15.9135749 33.878418,15.7827148 C34.3364281,15.6518548 34.9143845,15.5864258 35.6123047,15.5864258 C36.1793648,15.5864258 36.637368,15.7663556 36.9863281,16.1262207 C37.3352882,16.4860858 37.5097656,17.0149705 37.5097656,17.7128906 L37.2480469,22.4238281 C38.6656972,22.5983082 39.7888956,22.8491195 40.6176758,23.1762695 C41.446456,23.5034196 41.8608398,23.9178035 41.8608398,24.4194336 C41.8608398,24.6157236 41.8281253,24.8501777 41.7626953,25.1228027 C41.6972653,25.3954278 41.5227879,25.8370738 41.2392578,26.4477539 C40.9339177,27.014814 40.612225,27.4346503 40.2741699,27.7072754 C39.9361148,27.9799005 39.483564,28.1162109 38.9165039,28.1162109 L36.9536133,28.1162109 L36.5610352,35.5424805 C37.7387754,36.3058306 38.954665,37.1400508 40.2087402,38.045166 C41.4628155,38.9502812 42.5969188,39.9262643 43.611084,40.9731445 C44.6252492,42.0200248 45.4594694,43.1268659 46.1137695,44.2937012 C46.7680697,45.4605364 47.0952148,46.676426 47.0952148,47.9414062 C47.0952148,49.3590566 46.7680697,50.6076606 46.1137695,51.6872559 C45.4594694,52.7668511 44.6252492,53.6665003 43.611084,54.3862305 C42.5969188,55.1059606 41.4737204,55.6512026 40.2414551,56.0219727 C39.0091898,56.3927427 37.8042051,56.578125 36.6264648,56.578125 L36.0375977,56.578125 C35.8413076,56.578125 35.6341157,56.5563153 35.4160156,56.5126953 L35.1542969,62.2705078 C35.1324869,62.5976579 35.0670578,62.9029934 34.9580078,63.1865234 C34.8489578,63.4700535 34.6635755,63.7263172 34.4018555,63.9553223 C34.1401354,64.1843273 33.7748233,64.3642572 33.3059082,64.4951172 C32.8369931,64.6259772 32.2426794,64.6914062 31.5229492,64.6914062 C30.9558891,64.6914062 30.5033383,64.506024 30.1652832,64.1352539 C29.8272281,63.7644838 29.6582031,63.2301467 29.6582031,62.5322266 L30.0507812,55.2368164 C28.851231,54.7351863 27.7171277,54.1136105 26.6484375,53.3720703 C25.5797473,52.6305301 24.6473835,51.7854051 23.8513184,50.8366699 C23.0552532,49.8879347 22.4282249,48.8574274 21.9702148,47.7451172 C21.5122047,46.6328069 21.2832031,45.4659892 21.2832031,44.2446289 C21.2832031,43.7648088 21.3159176,43.2795435 21.3813477,42.7888184 C21.4467777,42.2980932 21.5721833,41.8564473 21.7575684,41.4638672 C21.9429534,41.0712871 22.1883123,40.7550468 22.4936523,40.5151367 C22.7989924,40.2752267 23.2024715,40.1552734 23.7041016,40.1552734 C23.8785816,40.1552734 24.0367018,40.1716307 24.1784668,40.2043457 C24.3202318,40.2370607 24.478352,40.2752276 24.652832,40.3188477 L25.2416992,40.5151367 C25.4816093,40.5587567 25.7324206,40.6514479 25.9941406,40.7932129 C26.2558607,40.9349779 26.4957671,41.1040029 26.7138672,41.300293 C26.9319672,41.496583 27.1118971,41.7255846 27.2536621,41.9873047 C27.3954271,42.2490247 27.4663086,42.5325506 27.4663086,42.8378906 C27.4663086,43.9938209 27.7280247,45.0570427 28.2514648,46.0275879 C28.774905,46.9981331 29.4946243,47.854163 30.4106445,48.5957031 L30.8686523,39.1738281 C29.538242,38.3232379 28.2732807,37.5162799 27.0737305,36.7529297 C25.8741802,35.9895795 24.8164108,35.2316932 23.9003906,34.479248 C22.9843704,33.7268029 22.2537462,32.9689166 21.7084961,32.2055664 C21.163246,31.4422162 20.890625,30.6134485 20.890625,29.7192383 C20.890625,28.672358 21.2232226,27.7290895 21.8884277,26.8894043 C22.5536329,26.0497191 23.4096627,25.3190949 24.456543,24.6975098 C25.5034232,24.0759246 26.670241,23.5688496 27.9570312,23.1762695 C29.2438215,22.7836894 30.5087828,22.5110685 31.7519531,22.3583984 L32.0136719,18.0073242 Z M35.7431641,51.0166016 C36.0485041,51.0602216 36.3538396,51.0929361 36.6591797,51.1147461 C36.9645198,51.1365561 37.2698552,51.1474609 37.5751953,51.1474609 C37.9677754,51.1474609 38.365802,51.109294 38.7692871,51.032959 C39.1727722,50.956624 39.5435367,50.8366707 39.8815918,50.6730957 C40.2196469,50.5095207 40.4977203,50.2859715 40.7158203,50.0024414 C40.9339204,49.7189113 41.0429688,49.3699565 41.0429688,48.9555664 C41.0429688,48.5193663 40.9066583,48.0231961 40.6340332,47.467041 C40.3614081,46.9108859 40.0015485,46.3438343 39.5544434,45.7658691 C39.1073383,45.187904 38.5893584,44.6263048 38.0004883,44.0810547 C37.4116181,43.5358046 36.8009472,43.0559917 36.168457,42.6416016 L35.7431641,51.0166016 Z M28.1206055,29.3920898 C28.1206055,29.6756199 28.218749,29.9536933 28.4150391,30.2263184 C28.6113291,30.4989434 28.8621404,30.7606596 29.1674805,31.0114746 C29.4728205,31.2622897 29.8108705,31.4967437 30.1816406,31.7148438 C30.5524107,31.9329438 30.9122704,32.1401357 31.2612305,32.3364258 L31.4575195,27.5600586 C31.0431294,27.6036786 30.634198,27.6636552 30.2307129,27.7399902 C29.8272278,27.8163253 29.4728205,27.9253736 29.1674805,28.0671387 C28.8621404,28.2089037 28.6113291,28.3833811 28.4150391,28.5905762 C28.218749,28.7977712 28.1206055,29.0649398 28.1206055,29.3920898 Z M56.9360352,1.4453125 C56.9490561,1.24999902 56.9881182,1.06770918 57.0532227,0.8984375 C57.1183271,0.72916582 57.2322583,0.576172559 57.3950195,0.439453125 C57.5577808,0.302733691 57.7758775,0.195312891 58.0493164,0.1171875 C58.3227553,0.0390621094 58.6678039,0 59.0844727,0 C59.423016,0 59.6964508,0.107420801 59.9047852,0.322265625 C60.1131195,0.537110449 60.2172852,0.8528625 60.2172852,1.26953125 L60.0610352,4.08203125 C60.9073936,4.18619844 61.5779598,4.33593652 62.0727539,4.53125 C62.567548,4.72656348 62.8149414,4.97395684 62.8149414,5.2734375 C62.8149414,5.39062559 62.7954104,5.53059814 62.7563477,5.69335938 C62.717285,5.85612061 62.6131193,6.11978984 62.4438477,6.484375 C62.2615551,6.82291836 62.0694997,7.07356689 61.8676758,7.23632812 C61.6658519,7.39908936 61.3956723,7.48046875 61.0571289,7.48046875 L59.8852539,7.48046875 L59.6508789,11.9140625 C60.3540074,12.3697939 61.0799116,12.8678358 61.8286133,13.4082031 C62.5773149,13.9485704 63.2543915,14.5312469 63.8598633,15.15625 C64.4653351,15.7812531 64.963377,16.4420538 65.3540039,17.1386719 C65.7446309,17.8352899 65.9399414,18.5611941 65.9399414,19.3164062 C65.9399414,20.1627646 65.7446309,20.9081999 65.3540039,21.5527344 C64.963377,22.1972688 64.4653351,22.7343729 63.8598633,23.1640625 C63.2543915,23.5937521 62.5838253,23.9192697 61.8481445,24.140625 C61.1124638,24.3619803 60.3930699,24.4726562 59.6899414,24.4726562 L59.3383789,24.4726562 C59.2211908,24.4726562 59.0974941,24.4596355 58.9672852,24.4335938 L58.8110352,27.8710938 C58.7980143,28.0664072 58.7589521,28.2486971 58.6938477,28.4179688 C58.6287432,28.5872404 58.5180672,28.7402337 58.3618164,28.8769531 C58.2055656,29.0136726 57.9874688,29.1210934 57.7075195,29.1992188 C57.4275702,29.2773441 57.0727561,29.3164062 56.6430664,29.3164062 C56.304523,29.3164062 56.0343435,29.2057303 55.8325195,28.984375 C55.6306956,28.7630197 55.5297852,28.4440125 55.5297852,28.0273438 L55.7641602,23.671875 C55.0480107,23.3723943 54.3709342,23.0013043 53.7329102,22.5585938 C53.0948861,22.1158832 52.5382511,21.611331 52.0629883,21.0449219 C51.5877255,20.4785128 51.2133803,19.8632846 50.9399414,19.1992188 C50.6665025,18.5351529 50.5297852,17.8385453 50.5297852,17.109375 C50.5297852,16.8229152 50.5493162,16.5332046 50.5883789,16.2402344 C50.6274416,15.9472642 50.7023106,15.6835949 50.8129883,15.4492188 C50.9236659,15.2148426 51.0701488,15.0260424 51.2524414,14.8828125 C51.434734,14.7395826 51.675617,14.6679688 51.9750977,14.6679688 C52.0792648,14.6679688 52.1736649,14.6777343 52.2583008,14.6972656 C52.3429366,14.716797 52.4373367,14.7395832 52.5415039,14.765625 L52.8930664,14.8828125 C53.0362963,14.9088543 53.1860344,14.9641923 53.3422852,15.0488281 C53.4985359,15.133464 53.6417637,15.2343744 53.7719727,15.3515625 C53.9021816,15.4687506 54.0096024,15.605468 54.0942383,15.7617187 C54.1788741,15.9179695 54.2211914,16.0872387 54.2211914,16.2695312 C54.2211914,16.9596389 54.3774398,17.5943981 54.6899414,18.1738281 C55.002443,18.7532581 55.4321262,19.2643207 55.9790039,19.7070312 L56.2524414,14.0820312 C55.4581666,13.5742162 54.7029658,13.0924502 53.9868164,12.6367188 C53.270667,12.1809873 52.6391629,11.7285179 52.0922852,11.2792969 C51.5454074,10.8300759 51.1092139,10.3776064 50.7836914,9.921875 C50.4581689,9.46614355 50.2954102,8.97135684 50.2954102,8.4375 C50.2954102,7.81249688 50.4939759,7.24935146 50.8911133,6.74804688 C51.2882507,6.24674229 51.7993133,5.81054873 52.4243164,5.43945312 C53.0493195,5.06835752 53.7459271,4.76562617 54.5141602,4.53125 C55.2823932,4.29687383 56.0375939,4.13411504 56.7797852,4.04296875 L56.9360352,1.4453125 Z M59.1625977,21.1523438 C59.3448902,21.1783855 59.5271801,21.1979166 59.7094727,21.2109375 C59.8917652,21.2239584 60.0740551,21.2304688 60.2563477,21.2304688 C60.4907238,21.2304688 60.7283517,21.2076825 60.9692383,21.1621094 C61.2101249,21.1165362 61.4314769,21.0449224 61.6333008,20.9472656 C61.8351247,20.8496089 62.0011387,20.7161467 62.1313477,20.546875 C62.2615566,20.3776033 62.3266602,20.1692721 62.3266602,19.921875 C62.3266602,19.661457 62.2452808,19.365236 62.0825195,19.0332031 C61.9197583,18.7011702 61.7049167,18.3626319 61.4379883,18.0175781 C61.1710599,17.6725243 60.8618182,17.3372412 60.5102539,17.0117188 C60.1586896,16.6861963 59.79411,16.3997408 59.4165039,16.1523438 L59.1625977,21.1523438 Z M54.6118164,8.2421875 C54.6118164,8.41145918 54.6704096,8.57747314 54.7875977,8.74023438 C54.9047857,8.90299561 55.0545238,9.05924404 55.2368164,9.20898438 C55.419109,9.35872471 55.6209299,9.49869727 55.8422852,9.62890625 C56.0636404,9.75911523 56.278482,9.88281191 56.4868164,10 L56.6040039,7.1484375 C56.3566068,7.1744793 56.1124687,7.21028623 55.871582,7.25585938 C55.6306954,7.30143252 55.419109,7.36653604 55.2368164,7.45117188 C55.0545238,7.53580771 54.9047857,7.63997334 54.7875977,7.76367188 C54.6704096,7.88737041 54.6118164,8.04687402 54.6118164,8.2421875 Z M5.81054688,13.3041992 C5.82194016,13.1332999 5.85611951,12.9737963 5.91308594,12.8256836 C5.97005237,12.6775709 6.06974213,12.5437018 6.2121582,12.4240723 C6.35457428,12.3044428 6.54540896,12.2104496 6.78466797,12.1420898 C7.02392698,12.0737301 7.32584453,12.0395508 7.69042969,12.0395508 C7.98665513,12.0395508 8.22591055,12.133544 8.40820312,12.3215332 C8.5904957,12.5095224 8.68164062,12.7858055 8.68164062,13.1503906 L8.54492188,15.6113281 C9.28548547,15.7024744 9.87223091,15.8334952 10.3051758,16.0043945 C10.7381207,16.1752938 10.9545898,16.391763 10.9545898,16.6538086 C10.9545898,16.7563482 10.9375002,16.8788242 10.9033203,17.0212402 C10.8691405,17.1636563 10.7779955,17.3943669 10.6298828,17.7133789 C10.4703768,18.0096043 10.3023284,18.2289218 10.1257324,18.3713379 C9.94913649,18.513754 9.71272935,18.5849609 9.41650391,18.5849609 L8.39111328,18.5849609 L8.18603516,22.4643555 C8.80127261,22.8631205 9.43643878,23.2989071 10.0915527,23.7717285 C10.7466667,24.2445499 11.3391087,24.7543918 11.8688965,25.3012695 C12.3986843,25.8481473 12.8344709,26.4263479 13.1762695,27.0358887 C13.5180681,27.6454295 13.6889648,28.2805957 13.6889648,28.9414062 C13.6889648,29.6819698 13.5180681,30.3342257 13.1762695,30.8981934 C12.8344709,31.462161 12.3986843,31.932127 11.8688965,32.3081055 C11.3391087,32.6840839 10.7523632,32.9689118 10.1086426,33.1625977 C9.46492191,33.3562835 8.83545229,33.453125 8.22021484,33.453125 L7.91259766,33.453125 C7.81005808,33.453125 7.70182349,33.4417319 7.58789062,33.4189453 L7.45117188,36.4267578 C7.43977859,36.5976571 7.40559924,36.7571607 7.34863281,36.9052734 C7.29166638,37.0533862 7.1948249,37.1872553 7.05810547,37.3068848 C6.92138604,37.4265143 6.73055135,37.5205075 6.4855957,37.5888672 C6.24064005,37.6572269 5.93017766,37.6914062 5.55419922,37.6914062 C5.25797378,37.6914062 5.02156664,37.5945648 4.8449707,37.4008789 C4.66837477,37.207193 4.58007812,36.9280617 4.58007812,36.5634766 L4.78515625,32.7524414 C4.15852551,32.4903958 3.56608352,32.165692 3.0078125,31.7783203 C2.44954148,31.3909486 1.9624858,30.9494654 1.54663086,30.4538574 C1.13077592,29.9582495 0.803223853,29.4199248 0.563964844,28.8388672 C0.324705835,28.2578096 0.205078125,27.6482779 0.205078125,27.0102539 C0.205078125,26.7596016 0.222167798,26.5061048 0.256347656,26.2497559 C0.290527515,25.9934069 0.356037927,25.7626963 0.452880859,25.5576172 C0.549723792,25.352538 0.677896338,25.1873379 0.837402344,25.0620117 C0.99690835,24.9366856 1.20768098,24.8740234 1.46972656,24.8740234 C1.56087285,24.8740234 1.64347294,24.8825683 1.7175293,24.8996582 C1.79158566,24.9167481 1.87418574,24.9366861 1.96533203,24.9594727 L2.27294922,25.0620117 C2.39827537,25.0847983 2.52929619,25.133219 2.66601562,25.2072754 C2.80273506,25.2813318 2.92805933,25.3696284 3.04199219,25.472168 C3.15592505,25.5747075 3.24991825,25.6943353 3.32397461,25.8310547 C3.39803097,25.9677741 3.43505859,26.1158846 3.43505859,26.2753906 C3.43505859,26.8792348 3.57177598,27.4346492 3.84521484,27.9416504 C4.11865371,28.4486516 4.49462651,28.8958314 4.97314453,29.2832031 L5.21240234,24.3613281 C4.51741189,23.91699 3.85661121,23.4954447 3.22998047,23.0966797 C2.60334973,22.6979147 2.05078364,22.3020039 1.57226562,21.9089355 C1.09374761,21.5158672 0.712078247,21.1199564 0.427246094,20.7211914 C0.14241394,20.3224264 0,19.889488 0,19.4223633 C0,18.8754855 0.173745007,18.3827333 0.521240234,17.9440918 C0.868735461,17.5054503 1.31591523,17.1237809 1.86279297,16.7990723 C2.4096707,16.4743636 3.01920237,16.2094737 3.69140625,16.0043945 C4.36361013,15.7993154 5.02441082,15.6569014 5.67382812,15.5771484 L5.81054688,13.3041992 Z M7.75878906,30.5478516 C7.91829507,30.5706381 8.07779868,30.5877278 8.23730469,30.5991211 C8.39681069,30.6105144 8.55631431,30.6162109 8.71582031,30.6162109 C8.92089946,30.6162109 9.12882382,30.596273 9.33959961,30.5563965 C9.5503754,30.51652 9.74405836,30.4538578 9.9206543,30.3684082 C10.0972502,30.2829586 10.2425125,30.1661791 10.3564453,30.0180664 C10.4703782,29.8699537 10.5273438,29.6876638 10.5273438,29.4711914 C10.5273438,29.2433257 10.4561368,28.9841323 10.3137207,28.6936035 C10.1713046,28.4030747 9.98331823,28.1068537 9.74975586,27.8049316 C9.51619349,27.5030096 9.24560701,27.2096368 8.93798828,26.9248047 C8.63036956,26.6399725 8.31136233,26.389324 7.98095703,26.1728516 L7.75878906,30.5478516 Z M3.77685547,19.2514648 C3.77685547,19.3995776 3.82812449,19.5448398 3.93066406,19.6872559 C4.03320364,19.8296719 4.16422446,19.9663893 4.32373047,20.0974121 C4.48323647,20.2284349 4.65982976,20.3509109 4.85351562,20.4648438 C5.04720149,20.5787766 5.23518789,20.6870112 5.41748047,20.7895508 L5.52001953,18.2944336 C5.30354709,18.3172202 5.08992618,18.3485512 4.87915039,18.3884277 C4.6683746,18.4283042 4.48323647,18.4852698 4.32373047,18.5593262 C4.16422446,18.6333825 4.03320364,18.7245275 3.93066406,18.8327637 C3.82812449,18.9409999 3.77685547,19.0805656 3.77685547,19.2514648 L3.77685547,19.2514648 Z" id="Get-funds" fill="#2CAF24" sketch:type="MSShapeGroup"></path>
    </g>
</svg>