<?xml version="1.0" encoding="utf-8"?>
<!-- Generator: Adobe Illustrator 21.0.2, SVG Export Plug-In . SVG Version: 6.00 Build 0)  -->
<svg version="1.1" id="Layer_1" xmlns="http://www.w3.org/2000/svg" xmlns:xlink="http://www.w3.org/1999/xlink" x="0px" y="0px"
	 viewBox="0 0 10 10" style="enable-background:new 0 0 10 10;" xml:space="preserve">
<style type="text/css">
	.st0{fill:#F99F54;}
</style>
<path class="st0" d="M5,0c2.7,0,5,2.2,5,5s-2.2,5-5,5S0,7.7,0,5S2.3,0,5,0z M8,6.5c0.7-0.7,0.7-1.7,0-2.4s-1.7-0.7-2.4,0L5.3,4.4
	C5.2,4.5,5.2,4.8,5.3,5s0.4,0.2,0.6,0l0.3-0.3c0.3-0.3,0.9-0.3,1.2,0s0.3,0.9,0,1.2c-0.3,0.3-0.9,0.3-1.2,0L4.4,4.1
	C3.8,3.4,2.7,3.4,2,4.1S1.3,5.8,2,6.5s1.7,0.7,2.4,0l0.3-0.3C4.8,6.1,4.8,6,4.8,5.8c0-0.1-0.1-0.2-0.1-0.3c-0.2-0.2-0.4-0.2-0.6,0
	L3.8,5.9c-0.3,0.3-0.9,0.3-1.2,0C2.2,5.6,2.2,5,2.6,4.7c0.3-0.3,0.9-0.3,1.2,0l1.8,1.8C6,6.8,6.4,7,6.9,7S7.7,6.8,8,6.5z"/>
</svg>
