<?xml version="1.0" encoding="utf-8"?>
<!-- Generator: Adobe Illustrator 21.0.2, SVG Export Plug-In . SVG Version: 6.00 Build 0)  -->
<svg version="1.1" id="Layer_1" xmlns="http://www.w3.org/2000/svg" xmlns:xlink="http://www.w3.org/1999/xlink" x="0px" y="0px"
	 viewBox="0 0 12 12" style="enable-background:new 0 0 12 12;" xml:space="preserve">
<style type="text/css">
	.st0{fill:#F99F54;}
</style>
<path class="st0" d="M6,1c2.7,0,5,2.2,5,5s-2.2,5-5,5S1,8.7,1,6S3.3,1,6,1z M9,7.5c0.7-0.7,0.7-1.7,0-2.4s-1.7-0.7-2.4,0L6.3,5.4
	C6.2,5.5,6.2,5.8,6.3,6s0.4,0.2,0.6,0l0.3-0.3c0.3-0.3,0.9-0.3,1.2,0s0.3,0.9,0,1.2c-0.3,0.3-0.9,0.3-1.2,0L5.4,5.1
	C4.8,4.4,3.7,4.4,3,5.1S2.3,6.8,3,7.5s1.7,0.7,2.4,0l0.3-0.3C5.8,7.1,5.8,7,5.8,6.8c0-0.1-0.1-0.2-0.1-0.3c-0.2-0.2-0.4-0.2-0.6,0
	L4.8,6.9c-0.3,0.3-0.9,0.3-1.2,0C3.2,6.6,3.2,6,3.6,5.7c0.3-0.3,0.9-0.3,1.2,0l1.8,1.8C7,7.8,7.4,8,7.9,8S8.7,7.8,9,7.5z"/>
</svg>
