<?xml version="1.0" encoding="utf-8"?>
<!-- Generator: Adobe Illustrator 22.1.0, SVG Export Plug-In . SVG Version: 6.00 Build 0)  -->
<svg version="1.1" id="Layer_1" xmlns="http://www.w3.org/2000/svg" xmlns:xlink="http://www.w3.org/1999/xlink" x="0px" y="0px"
	 viewBox="0 0 14 8" style="enable-background:new 0 0 14 8;" xml:space="preserve">
<style type="text/css">
	.st0{fill:#00a3f4;}
</style>
<title>Shape</title>
<desc>Created with Sketch.</desc>
<g>
	<path class="st0" d="M1.2,3.7c0-1.3,0.9-2.3,2-2.3h2.6V0H3.3C1.5,0,0,1.7,0,3.7s1.5,3.7,3.3,3.7h2.6V6.1H3.3C2.2,6.1,1.2,5,1.2,3.7
		z"/>
	<path class="st0" d="M9.9,0H7.2v1.4h2.6c1.1,0,2,1,2,2.3c0,1.3-0.9,2.3-2,2.3H7.2v1.4h2.6c1.8,0,3.3-1.7,3.3-3.7S11.7,0,9.9,0z"/>
	<rect x="3.9" y="3" class="st0" width="5.3" height="1.5"/>
</g>
</svg>