<?xml version="1.0" encoding="utf-8"?>
<!-- Generator: Adobe Illustrator 19.2.1, SVG Export Plug-In . SVG Version: 6.00 Build 0)  -->
<!DOCTYPE svg PUBLIC "-//W3C//DTD SVG 1.1//EN" "http://www.w3.org/Graphics/SVG/1.1/DTD/svg11.dtd">
<svg version="1.1" id="Layer_1" xmlns="http://www.w3.org/2000/svg" xmlns:xlink="http://www.w3.org/1999/xlink" x="0px" y="0px"
	 width="70px" height="70px" viewBox="0 0 70 70" style="enable-background:new 0 0 70 70;" xml:space="preserve">
<title>Engagement letter 69</title>
<desc>Created with Sketch.</desc>
<path id="Rectangle-128" style="fill:#ECBC23;" d="M3.043,0h63.913C68.637,0,70,1.363,70,3.043v63.913
	C70,68.637,68.637,70,66.957,70H3.043C1.363,70,0,68.637,0,66.957V3.043C0,1.363,1.363,0,3.043,0z"/>
<g>
	<path style="fill:#FFFFFF;" d="M8.07,31.183V11.276h4.867c1.367,0.009,2.595,0.237,3.685,0.684
		c1.089,0.447,2.014,1.076,2.775,1.887c0.761,0.812,1.347,1.78,1.757,2.905c0.41,1.126,0.62,2.372,0.629,3.739v1.504
		c-0.009,1.367-0.219,2.614-0.629,3.739c-0.41,1.126-0.994,2.092-1.75,2.898c-0.757,0.807-1.673,1.434-2.748,1.88
		c-1.076,0.447-2.283,0.67-3.623,0.67H8.07z M11.406,13.929v14.615h1.627c0.902-0.009,1.69-0.171,2.365-0.485
		c0.674-0.314,1.237-0.756,1.688-1.326c0.451-0.569,0.788-1.255,1.012-2.058c0.223-0.802,0.339-1.695,0.349-2.68v-1.531
		c-0.009-0.957-0.125-1.832-0.349-2.625c-0.224-0.793-0.563-1.479-1.019-2.058c-0.456-0.579-1.028-1.03-1.716-1.354
		c-0.688-0.323-1.497-0.49-2.427-0.499H11.406z"/>
	<path style="fill:#FFFFFF;" d="M28.92,11.276l2.475,8.6l2.734-8.6h4.074v19.906h-3.09v-6.836l0.191-8.723l-3.063,9.543H30.52
		l-2.775-9.215l0.191,8.395v6.836h-3.09V11.276H28.92z"/>
</g>
</svg>
