<?xml version="1.0" encoding="utf-8"?>
<!-- Generator: Adobe Illustrator 18.1.1, SVG Export Plug-In . SVG Version: 6.00 Build 0)  -->
<svg version="1.1" id="Слой_1" xmlns:sketch="http://www.bohemiancoding.com/sketch/ns"
	 xmlns="http://www.w3.org/2000/svg" xmlns:xlink="http://www.w3.org/1999/xlink" x="0px" y="0px" width="69px" height="69px"
	 viewBox="-245 446 69 69" enable-background="new -245 446 69 69" xml:space="preserve">
<title>Deal Memo 69</title>
<desc>Created with Sketch.</desc>
<g id="assets" sketch:type="MSPage">
	<g id="Deal-Memo-69" sketch:type="MSLayerGroup">
		
			<linearGradient id="Rectangle-128_1_" gradientUnits="userSpaceOnUse" x1="-485.9493" y1="954.5507" x2="-485.9493" y2="953.5507" gradientTransform="matrix(69 0 0 -69 33320 66310)">
			<stop  offset="0" style="stop-color:#ECBC23"/>
			<stop  offset="1" style="stop-color:#E9B000"/>
		</linearGradient>
		<path id="Rectangle-128" sketch:type="MSShapeGroup" fill="url(#Rectangle-128_1_)" d="M-242,446h63c1.657,0,3,1.343,3,3v63
			c0,1.657-1.343,3-3,3h-63c-1.657,0-3-1.343-3-3v-63C-245,447.343-243.657,446-242,446z"/>
		<path id="Rectangle-128-Copy" sketch:type="MSShapeGroup" fill="#FFFFFF" d="M-210.5,479.382l15.5-19.839V459h8v44h-8v-30.463
			l-10.424,13.342l0.042,0.054l-0.217,0.169l-3.716,4.756l-1.186-0.926l-1.186,0.926l-3.716-4.756l-0.217-0.169l0.042-0.054
			L-226,472.537V503h-8v-44h8v0.543L-210.5,479.382z"/>
		
			<rect id="Rectangle-1668" x="-210" y="490" sketch:type="MSShapeGroup" opacity="0.4427" fill="#FFFFFF" enable-background="new    " width="1" height="1">
		</rect>
		
			<rect id="Rectangle-1668-Copy" x="-212" y="490" sketch:type="MSShapeGroup" opacity="0.4427" fill="#FFFFFF" enable-background="new    " width="1" height="1">
		</rect>
		<rect id="Rectangle-1668-Copy-2" x="-211" y="490" sketch:type="MSShapeGroup" fill="#FFFFFF" width="1" height="1">
		</rect>
	</g>
</g>
</svg>
