<?xml version="1.0" encoding="utf-8"?>
<!-- Generator: Adobe Illustrator 18.1.1, SVG Export Plug-In . SVG Version: 6.00 Build 0)  -->
<svg version="1.1" id="Layer_1" xmlns="http://www.w3.org/2000/svg" xmlns:xlink="http://www.w3.org/1999/xlink" x="0px" y="0px"
	 width="16px" height="16px" viewBox="0.08 0 16 16" enable-background="new 0.08 0 16 16" xml:space="preserve">
<rect x="0.08" fill="#ECBC23" width="16" height="16"/>
<g>
	<path display="none" fill="#FFFFFF" d="M6.781,8.207H3.563v2.455h3.765v1.053h-5.06V3.894H7.29v1.063H3.563v2.208H6.78v1.042H6.781
		z"/>
	<path display="none" fill="#FFFFFF" d="M10.213,10.662h3.728v1.053H8.924V3.894h1.289C10.213,3.894,10.213,10.662,10.213,10.662z"
		/>
</g>
<g>
	<path fill="#FFFFFF" d="M1.681,11.715V3.184h2.086c0.586,0.004,1.112,0.102,1.579,0.293s0.863,0.461,1.189,0.809
		s0.577,0.763,0.753,1.245s0.266,1.017,0.27,1.603v0.645c-0.004,0.585-0.094,1.12-0.27,1.602s-0.426,0.896-0.75,1.242
		s-0.717,0.614-1.178,0.806s-0.979,0.287-1.553,0.287H1.681z M3.111,4.321v6.263h0.697c0.387-0.004,0.725-0.073,1.014-0.208
		s0.53-0.324,0.724-0.568S5.883,9.27,5.979,8.926s0.146-0.727,0.149-1.148V7.122c-0.004-0.41-0.054-0.785-0.149-1.125
		S5.738,5.363,5.542,5.115s-0.44-0.441-0.735-0.58s-0.642-0.21-1.04-0.214H3.111z"/>
	<path fill="#FFFFFF" d="M10.617,3.184l1.061,3.686l1.172-3.686h1.746v8.531h-1.324v-2.93l0.082-3.738l-1.313,4.089h-0.738
		l-1.189-3.949l0.082,3.597v2.93H8.871V3.184H10.617z"/>
</g>
</svg>
