<?xml version="1.0" encoding="UTF-8" standalone="no"?>
<svg width="110px" height="106px" viewBox="0 0 110 106" version="1.1" xmlns="http://www.w3.org/2000/svg" xmlns:xlink="http://www.w3.org/1999/xlink" xmlns:sketch="http://www.bohemiancoding.com/sketch/ns">
    <!-- Generator: Sketch 3.4 (15588) - http://www.bohemiancoding.com/sketch -->
    <title>Get paid</title>
    <desc>Created with Sketch.</desc>
    <defs></defs>
    <g id="assets" stroke="none" stroke-width="1" fill="none" fill-rule="evenodd" sketch:type="MSPage">
        <g id="Get-paid" sketch:type="MSLayerGroup">
            <path d="M39.9641624,29.3599201 C40.5237582,29.3599201 41.0542005,29.4036378 41.5555051,29.4910747 C42.0568097,29.5785115 42.5114745,29.6717761 42.9195131,29.7708712 C43.3275517,29.8699663 43.6772938,29.9632308 43.96875,30.0506677 C44.2602062,30.1381045 44.4700514,30.1818223 44.5982922,30.1818223 C44.7032164,30.1818223 44.80231,30.1264465 44.8955759,30.0156931 C44.9888419,29.9049398 45.1054226,29.7854446 45.2453216,29.6572039 C45.3852205,29.5289631 45.5717497,29.4094679 45.8049146,29.2987146 C46.0380795,29.1879612 46.3470184,29.1325854 46.7317406,29.1325854 C47.1747539,29.1325854 47.5244961,29.2462516 47.7809775,29.4735874 C48.0374589,29.7009232 48.1656977,29.9836314 48.1656977,30.3217206 C48.1656977,34.5886387 48.0199718,38.2113844 47.7285156,41.1900663 C47.4370595,44.1687482 46.9649076,46.5907126 46.3120458,48.456032 C45.659184,50.3213514 44.8139738,51.6736877 43.7763899,52.5130814 C42.738806,53.3524751 41.4797343,53.7721657 39.999137,53.7721657 C39.3229587,53.7721657 38.6205599,53.6206108 37.8919195,53.3174964 C37.1632791,53.014382 36.4958545,52.6267511 35.8896257,52.1545921 C35.2833969,51.6824331 34.7850144,51.1607344 34.3944631,50.5894804 C34.0039119,50.0182263 33.8086392,49.470297 33.8086392,48.9456759 C33.8086392,48.7708022 33.9019037,48.5667859 34.0884357,48.333621 C34.2749676,48.1004561 34.5023,47.8731237 34.7704397,47.651617 C35.0385793,47.4301103 35.3183731,47.2435812 35.6098292,47.092024 C35.9012854,46.9404668 36.1519339,46.8646893 36.3617823,46.8646893 C36.583289,46.8646893 36.7698182,46.9550394 36.9213754,47.1357422 C37.0729326,47.316445 37.2157439,47.5408629 37.3498138,47.8090025 C37.4838836,48.0771422 37.6208659,48.3715085 37.7607649,48.6921103 C37.9006639,49.0127121 38.0755349,49.3070784 38.2853834,49.575218 C38.4952318,49.8433577 38.7517094,50.0677756 39.0548238,50.2484784 C39.3579382,50.4291812 39.7368255,50.5195312 40.1914971,50.5195312 C42.7329948,50.5195312 44.2252279,46.6373935 44.6682413,38.8730015 C44.6682413,38.5232541 44.5691477,38.348383 44.3709575,38.348383 C44.207742,38.348383 44.0795033,38.4299895 43.9862373,38.5932049 C42.8903621,40.0738022 41.6108888,41.1842335 40.1477789,41.9245322 C38.684669,42.6648308 37.0612825,43.0349746 35.2775709,43.0349746 C34.4498354,43.0349746 33.6862317,42.9096503 32.9867369,42.658998 C32.2872421,42.4083457 31.6839369,42.0586036 31.1768032,41.6097611 C30.6696695,41.1609186 30.2762096,40.6246473 29.9964117,40.0009311 C29.7166138,39.377215 29.5767169,38.6923033 29.5767169,37.9461755 C29.5767169,37.211706 29.7078702,36.485991 29.9701808,35.7690089 C30.2324913,35.0520268 30.5997206,34.3758586 31.0718795,33.7404842 C31.5440385,33.1051098 32.1065405,32.5192917 32.7594023,31.9830124 C33.412264,31.446733 34.1234064,30.9833247 34.8928507,30.5927734 C35.6622949,30.2022222 36.4754454,29.8991123 37.3323265,29.6834348 C38.1892076,29.4677572 39.0664775,29.3599201 39.9641624,29.3599201 L39.9641624,29.3599201 Z M35.8196766,39.8173147 C37.4168563,39.8173147 38.8799443,39.3131031 40.2089844,38.3046648 C41.5380245,37.2962265 42.6746864,35.830224 43.6190044,33.9066134 C43.6423209,33.8366639 43.659808,33.7812881 43.6714662,33.7404842 C43.6831245,33.6996803 43.6889535,33.6559626 43.6889535,33.6093296 C43.6889535,33.4927471 43.5665437,33.3703374 43.3217206,33.2420967 C43.0768974,33.1138559 42.7563004,33.0031043 42.3599201,32.9098383 C41.9635397,32.8165723 41.5117894,32.7378803 41.0046557,32.67376 C40.497522,32.6096396 39.9874814,32.5775799 39.4745185,32.5775799 C38.646783,32.5775799 37.8482052,32.7174768 37.0787609,32.9972747 C36.3093166,33.2770726 35.6273195,33.6501309 35.0327489,34.1164608 C34.4381783,34.5827906 33.9601974,35.1132329 33.5987918,35.7078034 C33.2373862,36.302374 33.056686,36.9202518 33.056686,37.5614553 C33.056686,38.2492918 33.3102491,38.7972212 33.8173828,39.2052598 C34.3245165,39.6132984 34.9919411,39.8173147 35.8196766,39.8173147 L35.8196766,39.8173147 Z M65.9677507,39.1702852 C66.3058399,38.8788291 66.6380949,38.7331032 66.9645258,38.7331032 C67.1510577,38.7331032 67.3200998,38.7797355 67.471657,38.8730015 C67.6232142,38.9662674 67.7922562,39.1119933 67.9787882,39.3101835 C68.1536618,39.5783232 68.2789861,39.796912 68.3547647,39.9659566 C68.4305433,40.1350011 68.468432,40.3011287 68.468432,40.4643441 C68.468432,40.8140915 68.293561,41.1463465 67.9438136,41.4611192 C67.3842178,41.927449 66.7779981,42.3442251 66.1251363,42.7114598 C65.4722745,43.0786946 64.7902773,43.390548 64.0791243,43.6470294 C63.3679713,43.9035109 62.6335128,44.0987835 61.8757267,44.2328534 C61.1179407,44.3669232 60.3659951,44.4339571 59.6198674,44.4339571 C58.6755494,44.4339571 57.789536,44.3144619 56.9618005,44.0754678 C56.134065,43.8364738 55.396692,43.4954752 54.7496593,43.0524618 C54.1026267,42.6094485 53.5576118,42.0760917 53.1145985,41.4523755 C52.6715851,40.8286594 52.3568172,40.1262606 52.1702852,39.3451581 C52.065361,39.0187272 51.9691819,38.8059674 51.8817451,38.7068723 C51.7943082,38.6077772 51.6514969,38.5582304 51.4533067,38.5582304 C51.0219516,38.5582304 50.6896965,38.4533077 50.4565316,38.2434593 C50.2233667,38.0336109 50.106786,37.730501 50.106786,37.3341206 C50.106786,37.1709052 50.118444,37.0659825 50.1417605,37.0193496 L50.1767351,36.6696039 C50.2350263,36.2499071 50.3486925,35.9467972 50.5177371,35.7602653 C50.6867817,35.5737333 50.9520028,35.4804688 51.3134084,35.4804688 L51.5757177,35.4804688 C52.065364,35.4804688 52.4092771,35.2531364 52.6074673,34.7984648 C52.9688729,33.9940458 53.4293668,33.2595873 53.9889626,32.5950672 C54.5485584,31.9305472 55.1780942,31.3622162 55.877589,30.8900572 C56.5770838,30.4178983 57.3261149,30.050669 58.1247048,29.7883585 C58.9232946,29.5260479 59.7364451,29.3948946 60.5641806,29.3948946 C61.4268908,29.3948946 62.2342123,29.5202189 62.9861691,29.7708712 C63.738126,30.0215235 64.3938926,30.3683511 64.9534884,30.8113645 C65.5130842,31.2543778 65.9531764,31.773162 66.2737782,32.3677326 C66.5943799,32.9623031 66.7546784,33.603497 66.7546784,34.2913336 C66.7546784,34.7693217 66.6614138,35.2064994 66.4748819,35.6028797 C66.28835,35.9992601 66.0202143,36.3460877 65.6704669,36.643373 C65.3207195,36.9406583 64.8981145,37.1825633 64.402639,37.3690952 C63.9071635,37.5556271 63.3446616,37.6780369 62.7151163,37.7363281 L56.6470294,38.348383 C56.4138645,38.348383 56.2244208,38.4066734 56.0786928,38.5232558 C55.9329647,38.6398383 55.8601017,38.7972222 55.8601017,38.9954124 C55.8601017,39.2985268 55.9737679,39.5899786 56.2011037,39.8697765 C56.4284395,40.1495744 56.7315494,40.3973085 57.1104424,40.612986 C57.4893354,40.8286636 57.9265131,41.0006201 58.4219886,41.1288608 C58.917464,41.2571015 59.4275046,41.3212209 59.9521257,41.3212209 C60.4534303,41.3212209 60.9693,41.2716741 61.4997502,41.172579 C62.0302004,41.0734839 62.5548136,40.9306726 63.0736056,40.7441406 C63.5923975,40.5576087 64.0966091,40.3331908 64.5862555,40.0708803 C65.0759018,39.8085697 65.5363956,39.5083744 65.9677507,39.1702852 L65.9677507,39.1702852 Z M62.0680868,34.6585665 C62.2429605,34.6235918 62.3945155,34.5390707 62.5227562,34.4050009 C62.6509969,34.2709311 62.7151163,34.1048036 62.7151163,33.9066134 C62.7151163,33.7317397 62.6509969,33.5685267 62.5227562,33.4169695 C62.3945155,33.2654123 62.2196444,33.1284299 61.9981377,33.0060184 C61.776631,32.8836068 61.5201535,32.7874277 61.2286973,32.7174782 C60.9372412,32.6475287 60.6283023,32.6125545 60.3018714,32.6125545 C59.8238833,32.6125545 59.3342443,32.6825029 58.8329397,32.8224019 C58.3316351,32.9623008 57.8769703,33.1459155 57.4689317,33.3732513 C57.0608931,33.6005871 56.728638,33.8512356 56.4721566,34.1252044 C56.2156752,34.3991732 56.0874364,34.6702233 56.0874364,34.938363 C56.0874364,35.2065027 56.2506494,35.3405705 56.5770803,35.3405705 C56.7752705,35.3405705 57.0958675,35.3172544 57.5388808,35.2706214 C57.9818942,35.2239884 58.4715332,35.1686125 59.0078125,35.1044922 C59.5440918,35.0403718 60.0861921,34.9675089 60.6341297,34.8859012 C61.1820673,34.8042934 61.6600482,34.728516 62.0680868,34.6585665 L62.0680868,34.6585665 Z M71.196448,22.8021893 C71.196448,22.1843023 71.3713191,21.7500391 71.7210665,21.4993868 C72.0708139,21.2487345 72.6478884,21.1234102 73.4523074,21.1234102 C73.7437636,21.1234102 73.9914976,21.1496409 74.1955169,21.202103 C74.3995362,21.2545651 74.5744073,21.3507442 74.7201354,21.4906432 C74.8658634,21.6305421 74.9824441,21.8141567 75.069881,22.0414926 C75.1573178,22.2688284 75.2301808,22.5573656 75.288472,22.907113 C75.428371,23.9913299 75.5828404,25.1105048 75.751885,26.2646711 C75.9209296,27.4188375 76.0987152,28.5788156 76.2852471,29.7446403 C76.3551966,30.2692613 76.6291612,30.531568 77.1071493,30.531568 C77.2353901,30.531568 77.4481499,30.5169954 77.7454351,30.4878497 C78.0427204,30.4587041 78.3953771,30.4237299 78.8034157,30.3829261 C79.2114543,30.3421222 79.6515465,30.2984044 80.1237055,30.2517714 C80.5958645,30.2051385 81.0680164,30.1614207 81.5401753,30.1206168 C82.0123343,30.079813 82.4611701,30.0448387 82.886696,30.0156931 C83.312222,29.9865475 83.6881948,29.9719749 84.0146257,29.9719749 C84.2711071,29.9719749 84.4751234,30.0215217 84.6266806,30.1206168 C84.7782378,30.2197119 84.897733,30.3479507 84.9851699,30.505337 C85.0726067,30.6627234 85.1308971,30.8375944 85.1600427,31.0299555 C85.1891883,31.2223166 85.2037609,31.4175892 85.2037609,31.6157794 C85.2037609,31.7906531 85.1717012,31.9713532 85.1075809,32.1578852 C85.0434605,32.3444171 84.956025,32.5105446 84.8452716,32.6562727 C84.7345183,32.8020008 84.5975359,32.921496 84.4343205,33.014762 C84.271105,33.108028 84.0845759,33.1546602 83.8747275,33.1546602 C82.86046,33.1546602 81.8374643,33.1867199 80.8057095,33.2508403 C79.7739547,33.3149607 78.7451299,33.3994817 77.7192042,33.5044059 C77.1945831,33.5743554 76.9322765,33.836662 76.9322765,34.2913336 C76.9322765,34.3263083 76.9381056,34.3700261 76.9497638,34.4224882 C76.9614221,34.4749503 76.9672511,34.5186681 76.9672511,34.5536428 C77.10715,35.5679102 77.2383033,36.5180431 77.3607149,37.4040698 C77.4831265,38.2900965 77.5880492,39.0799308 77.675486,39.7735965 C77.7629229,40.4672621 77.8328713,41.0443367 77.8853334,41.5048374 C77.9377955,41.9653381 77.9640262,42.2713625 77.9640262,42.4229197 C77.9640262,42.8426166 77.9232229,43.1952732 77.8416152,43.4809003 C77.7600075,43.7665273 77.6259396,43.9996887 77.4394077,44.1803915 C77.2528758,44.3610944 77.0051417,44.4893331 76.6961982,44.5651117 C76.3872547,44.6408903 75.9996238,44.6787791 75.533294,44.6787791 C75.0902806,44.6787791 74.7638546,44.5738564 74.5540062,44.364008 C74.3441577,44.1541596 74.227577,43.8335626 74.2042605,43.4022075 C74.1343111,42.0265344 74.0235594,40.6421384 73.8720022,39.248978 C73.720445,37.8558176 73.5455739,36.4655926 73.3473837,35.0782613 C73.2424595,34.5769567 72.9801529,34.3263081 72.560456,34.3263081 C72.5254813,34.3263081 72.484678,34.3321372 72.4380451,34.3437954 C72.3914121,34.3554537 72.3506088,34.3612827 72.3156341,34.3612827 C71.5928228,34.5244982 70.9108256,34.6877112 70.2696221,34.8509266 C69.6284185,35.014142 69.0280279,35.1890131 68.468432,35.3755451 C68.1536594,35.4804693 67.8738657,35.5533322 67.6290425,35.5941361 C67.3842193,35.6349399 67.162716,35.6553416 66.9645258,35.6553416 C66.6963861,35.6553416 66.4981989,35.5358463 66.3699582,35.2968523 C66.2417175,35.0578582 66.1775981,34.7576629 66.1775981,34.3962573 C66.1775981,34.2680166 66.1892562,34.1193761 66.2125727,33.9503316 C66.2358892,33.781287 66.2796069,33.612245 66.3437273,33.4432004 C66.4078476,33.2741558 66.5011122,33.1167719 66.6235238,32.9710438 C66.7459354,32.8253157 66.9120629,32.7058205 67.1219113,32.6125545 C67.6115577,32.4143643 68.2644097,32.2074336 69.0804869,31.991756 C69.8965642,31.7760784 70.8175518,31.5749767 71.8434775,31.3884448 C72.0766424,31.3301535 72.260257,31.2339744 72.3943269,31.0999046 C72.5283967,30.9658348 72.5954306,30.7647331 72.5954306,30.4965934 L72.5954306,30.3129769 C72.5954306,30.2488566 72.5837725,30.1818227 72.560456,30.1118732 C72.3739241,29.0393145 72.1961385,28.062951 72.0270939,27.1827535 C71.8580494,26.3025559 71.7123235,25.5476957 71.5899119,24.9181504 C71.4675003,24.2886051 71.3713212,23.7931371 71.3013717,23.4317315 C71.2314223,23.0703258 71.196448,22.8604805 71.196448,22.8021893 L71.196448,22.8021893 Z" id="get" fill="#4A90E2" sketch:type="MSShapeGroup" transform="translate(57.390239, 37.447788) rotate(10.000000) translate(-57.390239, -37.447788) "></path>
            <path d="M25.1255223,60.7938772 C25.1255223,60.3392056 25.3295386,59.992378 25.7375772,59.7533839 C26.1456158,59.5143899 26.7285194,59.3948946 27.4863054,59.3948946 C27.6611791,59.3948946 27.8185631,59.4182108 27.958462,59.4648438 C28.098361,59.5114767 28.2236853,59.6018268 28.3344386,59.7358966 C28.4451919,59.8699665 28.5472001,60.0535811 28.640466,60.286746 C28.733732,60.5199109 28.8269966,60.8171917 28.9202625,61.1785974 C29.0135285,61.586636 29.1067931,61.7906523 29.200059,61.7906523 C29.2816668,61.7906523 29.3807604,61.6216102 29.4973428,61.2835211 C29.7071913,60.619001 29.9840705,60.039012 30.3279887,59.5435365 C30.671907,59.0480611 31.0595379,58.6341995 31.490893,58.3019395 C31.9222481,57.9696795 32.3914855,57.7219455 32.8986192,57.55873 C33.4057529,57.3955146 33.9391097,57.3139081 34.4987055,57.3139081 C35.6295554,57.3139081 36.6846108,57.5266679 37.6639035,57.9521939 C38.6431962,58.3777198 39.4884064,58.9664525 40.1995594,59.7184093 C40.9107124,60.4703662 41.4702999,61.3563797 41.8783385,62.3764762 C42.2863771,63.3965727 42.4903934,64.501175 42.4903934,65.6903161 C42.4903934,66.9494067 42.2718045,68.1152139 41.8346203,69.1877725 C41.397436,70.2603312 40.7883018,71.1842333 40.0071993,71.9595067 C39.2260968,72.7347801 38.2963656,73.3409998 37.2179778,73.778184 C36.1395901,74.2153683 34.9592103,74.4339571 33.6768032,74.4339571 L32.7849519,74.3989826 C32.2603308,74.3989826 31.9980242,74.6962634 31.9980242,75.2908339 L32.8898755,83.3174964 C32.8782173,83.5156866 32.8111834,83.6993012 32.6887718,83.8683457 C32.5663602,84.0373903 32.4031472,84.1860307 32.1991279,84.3142714 C31.9951086,84.4425121 31.7561181,84.5416058 31.4821493,84.6115552 C31.2081806,84.6815047 30.9254723,84.7164789 30.6340162,84.7164789 C29.7946224,84.7164789 29.3399577,84.4425142 29.2700082,83.8945767 C29.025185,81.7727758 28.7541348,79.7559295 28.4568496,77.8439771 C28.1595643,75.9320247 27.8564544,74.1512543 27.5475109,72.5016125 C27.2385674,70.8519706 26.938372,69.3509939 26.6469159,67.9986374 C26.3554597,66.6462808 26.0960676,65.4688156 25.8687318,64.4662064 C25.641396,63.4635972 25.4606959,62.6475322 25.3266261,62.0179869 C25.1925563,61.3884416 25.1255223,60.9804091 25.1255223,60.7938772 L25.1255223,60.7938772 Z M30.808889,65.4105196 C30.808889,66.1683056 30.8380342,66.9173367 30.8963254,67.6576354 C30.9546166,68.397934 31.0478812,69.1994264 31.1761219,70.0621366 C31.2460714,70.5867577 31.5316941,70.8840385 32.0329987,70.953988 C32.3361131,71.0239375 32.6771117,71.0909714 33.0560047,71.1550918 C33.4348977,71.2192121 33.7525802,71.2512718 34.0090616,71.2512718 C34.7551894,71.2512718 35.4313575,71.1405201 36.0375863,70.9190134 C36.6438151,70.6975068 37.1625993,70.3798243 37.5939544,69.9659566 C38.0253095,69.5520888 38.3575645,69.0595353 38.5907295,68.4882812 C38.8238944,67.9170272 38.9404751,67.2816623 38.9404751,66.5821675 C38.9404751,65.7311155 38.8238944,64.9354522 38.5907295,64.1951535 C38.3575645,63.4548549 38.0398821,62.8107464 37.6376726,62.2628089 C37.2354631,61.7148713 36.7633112,61.2835226 36.2212028,60.96875 C35.6790943,60.6539774 35.0932762,60.4965934 34.4637309,60.4965934 C33.9157933,60.4965934 33.4174108,60.6160886 32.9685683,60.8550827 C32.5197258,61.0940767 32.1350095,61.4263318 31.8144077,61.8518577 C31.4938059,62.2773837 31.2460719,62.7932534 31.0711982,63.3994822 C30.8963245,64.005711 30.808889,64.6760501 30.808889,65.4105196 L30.808889,65.4105196 Z M55.430982,57.7161156 C56.0721856,57.7161156 56.6900633,57.8152092 57.2846339,58.0133993 C57.8792045,58.2115895 58.4038177,58.4855542 58.8584893,58.8353016 C59.3131609,59.185049 59.6774756,59.6047396 59.9514444,60.0943859 C60.2254132,60.5840322 60.3623955,61.1261326 60.3623955,61.7207031 C60.3623955,61.9655263 60.3070197,62.2016022 60.1962664,62.428938 C60.085513,62.6562738 59.9368726,62.8544611 59.7503407,63.0235056 C59.5638087,63.1925502 59.3510489,63.326618 59.1120549,63.4257131 C58.8730608,63.5248082 58.6253268,63.574355 58.3688454,63.574355 C58.3455289,63.574355 58.3251273,63.5772695 58.3076399,63.5830987 C58.2901525,63.5889278 58.2697509,63.5918423 58.2464344,63.5918423 C58.2231179,63.6035005 58.1998018,63.6093296 58.1764853,63.6093296 L58.2464344,65.0083121 C58.2930674,66.6754414 58.5291433,67.8937098 58.9546693,68.6631541 C59.3801953,69.4325983 59.9368682,69.8173147 60.6247048,69.8173147 C60.8695279,69.8173147 61.0881168,69.7939985 61.2804778,69.7473656 C61.4728389,69.7007326 61.653539,69.6453567 61.8225836,69.5812364 C61.9916281,69.517116 62.1519266,69.4617402 62.3034838,69.4151072 C62.455041,69.3684742 62.606596,69.3451581 62.7581532,69.3451581 C63.0262928,69.3451581 63.2623688,69.4617388 63.4663881,69.6949037 C63.6704074,69.9280686 63.7724155,70.2078623 63.7724155,70.5342932 C63.7724155,70.8607241 63.6470912,71.1871501 63.396439,71.513581 C63.1457867,71.8400119 62.8164461,72.1343782 62.4084075,72.3966888 C62.0003689,72.6589993 61.5398751,72.8717591 61.0269122,73.0349746 C60.5139494,73.19819 59.9951652,73.2797965 59.4705441,73.2797965 C58.5612009,73.2797965 57.762623,72.9038237 57.0747865,72.1518668 C56.38695,71.3999099 55.897311,70.2953077 55.6058548,68.8380269 C55.5359054,68.604862 55.4426408,68.4882812 55.3260583,68.4882812 C55.1861594,68.4882812 55.0637496,68.5582297 54.9588254,68.6981286 C53.804659,70.1554094 52.5747325,71.2483536 51.2690089,71.976994 C49.9632853,72.7056344 48.6750684,73.0699491 47.4043196,73.0699491 C46.809749,73.0699491 46.2734777,72.9825136 45.7954896,72.8076399 C45.3175015,72.6327662 44.9123836,72.3850322 44.5801235,72.0644304 C44.2478635,71.7438286 43.991386,71.3532832 43.8106831,70.8927825 C43.6299803,70.4322818 43.5396303,69.9164121 43.5396303,69.3451581 C43.5396303,68.5407391 43.7174159,67.6955289 44.0729924,66.8095022 C44.4285689,65.9234755 44.9094643,65.0491201 45.5156931,64.1864099 C46.1219219,63.3236997 46.8243207,62.5018056 47.6229106,61.7207031 C48.4215005,60.9396006 49.2608816,60.2517744 50.1410792,59.6572039 C51.0212768,59.0626333 51.9160338,58.5904814 52.825377,58.240734 C53.7347202,57.8909866 54.6032465,57.7161156 55.430982,57.7161156 L55.430982,57.7161156 Z M54.8539017,63.7667151 C55.0637501,63.3703347 55.2561083,63.0817975 55.430982,62.9010947 C55.6058557,62.7203918 55.8565042,62.6008966 56.1829351,62.5426054 C56.4394166,62.5076306 56.5676553,62.4260241 56.5676553,62.2977834 C56.5676553,62.2045175 56.5326811,62.1054239 56.4627316,62.0004996 C56.241225,61.6973852 56.0080635,61.4321641 55.7632404,61.2048283 C55.5184172,60.9774925 55.1919912,60.8638263 54.7839526,60.8638263 C54.3409392,60.8638263 53.8454712,60.9920651 53.2975336,61.2485465 C52.749596,61.5050279 52.1929231,61.8460265 51.6274982,62.2715525 C51.0620732,62.6970785 50.5083148,63.1808885 49.9662064,63.7229969 C49.4240979,64.2651054 48.9432025,64.8217783 48.5235056,65.3930323 C48.1038088,65.9642864 47.7657247,66.5297029 47.5092433,67.0892987 C47.2527619,67.6488945 47.1245231,68.1501916 47.1245231,68.5932049 C47.1245231,68.9895853 47.2323602,69.2985242 47.4480378,69.5200309 C47.6637153,69.7415376 47.9580816,69.8522892 48.3311455,69.8522892 C49.2871217,69.8522892 50.3305191,69.3451631 51.461369,68.3308957 C52.5922189,67.3166283 53.7230518,65.79525 54.8539017,63.7667151 L54.8539017,63.7667151 Z M66.9551008,55.1629724 C66.6170117,55.1629724 66.2993292,55.1134256 66.002044,55.0143305 C65.7047587,54.9152354 65.4482811,54.7753385 65.2326036,54.5946357 C65.016926,54.4139329 64.8449695,54.2011731 64.7167287,53.9563499 C64.588488,53.7115268 64.5243686,53.4433911 64.5243686,53.151935 C64.5243686,52.6622886 64.7196413,52.2659142 65.1101926,51.9627998 C65.5007438,51.6596854 66.0224425,51.5081305 66.6753043,51.5081305 C66.9784187,51.5081305 67.2698705,51.5635063 67.5496684,51.6742596 C67.8294663,51.785013 68.0772004,51.9336534 68.2928779,52.1201853 C68.5085555,52.3067173 68.680512,52.5253061 68.8087527,52.7759584 C68.9369934,53.0266107 69.0011128,53.2860028 69.0011128,53.5541424 C69.0011128,54.055447 68.8174982,54.4489069 68.4502634,54.734534 C68.0830287,55.020161 67.5846461,55.1629724 66.9551008,55.1629724 L66.9551008,55.1629724 Z M64.5593432,60.4965934 C64.5593432,60.0885548 64.7371288,59.7533852 65.0927053,59.4910747 C65.4482818,59.2287641 65.9175192,59.0976108 66.5004315,59.0976108 C67.5496737,59.0976108 68.1092611,59.459011 68.1792106,60.1818223 C68.2258436,60.6831269 68.2753904,61.2485434 68.3278525,61.8780887 C68.3803146,62.507634 68.4327759,63.1750585 68.485238,63.8803824 C68.5377001,64.5857063 68.5843324,65.3143358 68.6251363,66.0662927 C68.6659401,66.8182496 68.7038289,67.5585371 68.7388036,68.2871775 C68.7737783,69.0158179 68.8029235,69.7182167 68.82624,70.394395 C68.8495565,71.0705733 68.8612146,71.6884511 68.8612146,72.2480469 C68.8612146,72.8309592 68.6542838,73.2681369 68.2404161,73.559593 C67.8265483,73.8510492 67.2232431,73.9967751 66.4304824,73.9967751 C66.0690767,73.9967751 65.7863685,73.9122541 65.5823492,73.7432095 C65.3783299,73.5741649 65.2763218,73.3264309 65.2763218,73 C65.2763218,71.391162 65.238433,69.8843563 65.1626544,68.4795376 C65.0868758,67.0747189 65.0052693,65.8243908 64.9178325,64.7285156 C64.8303956,63.6326405 64.7487891,62.7203964 64.6730105,61.991756 C64.5972319,61.2631156 64.5593432,60.7647331 64.5593432,60.4965934 L64.5593432,60.4965934 Z M83.7953534,60.2167969 C83.8419864,60.2401134 83.9119348,60.2517714 84.0052008,60.2517714 C84.2616822,60.2517714 84.389921,60.0827294 84.389921,59.7446403 L84.389921,54.3060956 C84.389921,53.618259 84.5443904,53.12862 84.8533339,52.8371639 C85.1622775,52.5457077 85.6781471,52.3999818 86.4009584,52.3999818 C87.1354279,52.3999818 87.6542121,52.5515368 87.9573265,52.8546512 C88.2604409,53.1577656 88.4119958,53.6765497 88.4119958,54.4110193 C88.4119958,54.6908172 88.3945087,55.1017642 88.359534,55.6438726 C88.3245592,56.1859811 88.2866705,56.8009444 88.2458666,57.4887809 C88.2050628,58.1766174 88.167174,58.9139904 88.1321993,59.7009221 C88.0972246,60.4878537 88.0797375,61.2660299 88.0797375,62.0354742 C88.0797375,63.2246153 88.161344,64.2505256 88.3245594,65.1132358 C88.4877749,65.9759461 88.7209363,66.6900029 89.0240507,67.2554279 C89.3271651,67.8208528 89.6885653,68.2405434 90.1082622,68.5145122 C90.527959,68.788481 91.0001109,68.9254633 91.524732,68.9254633 C91.8161882,68.9254633 92.0814093,68.8875746 92.3204033,68.811796 C92.5593974,68.7360174 92.8421056,68.6981286 93.1685365,68.6981286 C93.4017014,68.6981286 93.5969741,68.8176239 93.7543605,69.0566179 C93.9117468,69.295612 93.9904388,69.5841492 93.9904388,69.9222384 C93.9904388,70.2253528 93.9000887,70.5109755 93.7193859,70.7791152 C93.5386831,71.0472549 93.2938636,71.2804163 92.9849201,71.4786065 C92.6759765,71.6767967 92.3174908,71.8312661 91.9094522,71.9420194 C91.5014136,72.0527728 91.075894,72.1081486 90.6328806,72.1081486 C89.6769044,72.1081486 88.8025491,71.8137823 88.0097883,71.2250409 C87.2170276,70.6362994 86.6224659,69.7357134 86.2260856,68.5232558 C86.1911108,68.3367239 86.1328205,68.2434593 86.0512128,68.2434593 C85.9579468,68.2434593 85.8821693,68.3367239 85.8238781,68.5232558 C85.5091054,69.3743078 85.0981584,70.140826 84.5910247,70.8228334 C84.083891,71.5048408 83.4951584,72.0877444 82.8248092,72.5715616 C82.1544601,73.0553788 81.4200016,73.4255226 80.6214117,73.682004 C79.8228218,73.9384854 78.9805262,74.0667242 78.0944995,74.0667242 C77.1618398,74.0667242 76.307886,73.9122548 75.5326126,73.6033112 C74.7573393,73.2943677 74.0899147,72.8630191 73.5303189,72.3092524 C72.970723,71.7554857 72.5335454,71.1026337 72.2187727,70.3506768 C71.9040001,69.5987199 71.7466161,68.7855694 71.7466161,67.9112009 C71.7466161,66.7920093 71.9797775,65.7369538 72.4461074,64.7460029 C72.9124372,63.755052 73.5448876,62.8894402 74.3434775,62.1491415 C75.1420673,61.4088429 76.0717985,60.8230248 77.1326989,60.3916697 C78.1935994,59.9603146 79.3244323,59.7446403 80.5252316,59.7446403 C81.014878,59.7446403 81.5336622,59.782529 82.0815997,59.8583076 C82.6295373,59.9340862 83.2007828,60.0535814 83.7953534,60.2167969 L83.7953534,60.2167969 Z M78.7765035,70.9190134 C79.4410235,70.9190134 80.0326706,70.7732876 80.5514626,70.4818314 C81.0702545,70.1903752 81.5307484,69.8202315 81.9329578,69.371389 C82.3351673,68.9225465 82.6761659,68.4270785 82.9559638,67.88497 C83.2357618,67.3428616 83.4630941,66.8153338 83.6379678,66.302371 C83.8128415,65.7894082 83.9410803,65.3289143 84.022688,64.9208757 C84.1042958,64.5128371 84.145099,64.2213853 84.145099,64.0465116 C84.145099,63.9182709 84.1101248,63.8046047 84.0401753,63.7055096 C83.9702258,63.6064145 83.8653032,63.5277226 83.7254043,63.4694313 C83.4106316,63.3878236 83.0842056,63.3149607 82.7461165,63.2508403 C82.4080273,63.1867199 82.0757723,63.1313441 81.7493414,63.0847111 C81.4229105,63.0380781 81.1110571,63.0031039 80.8137718,62.9797874 C80.5164865,62.9564709 80.2454364,62.9448129 80.0006132,62.9448129 C79.3011184,62.9448129 78.6657535,63.0497355 78.0944995,63.2595839 C77.5232454,63.4694324 77.0365209,63.7667132 76.6343114,64.1514353 C76.2321019,64.5361574 75.9202485,64.9937367 75.6987418,65.524187 C75.4772351,66.0546372 75.3664835,66.6346262 75.3664835,67.2641715 C75.3664835,67.8237673 75.4510045,68.3279789 75.6200491,68.7768214 C75.7890936,69.2256639 76.0222551,69.6074657 76.3195403,69.9222384 C76.6168256,70.237011 76.9753113,70.4818305 77.3950082,70.6567042 C77.814705,70.8315779 78.2751989,70.9190134 78.7765035,70.9190134 L78.7765035,70.9190134 Z" id="PAID" fill="#C374D3" sketch:type="MSShapeGroup"></path>
            <path d="M98.3601935,27.7288479 L108.360194,20.7288479 C109.038867,20.2537761 109.20392,19.3184804 108.728848,18.6398065 C108.253776,17.9611325 107.31848,17.7960804 106.639806,18.2711521 L96.6398065,25.2711521 C95.9611325,25.7462239 95.7960804,26.6815196 96.2711521,27.3601935 C96.7462239,28.0388675 97.6815196,28.2039196 98.3601935,27.7288479 L98.3601935,27.7288479 Z" id="Shape" fill="#C374D3" sketch:type="MSShapeGroup"></path>
            <path d="M83.3278003,15.1664421 L81.7309378,17.1664421 C81.2140429,17.8138301 81.3198285,18.7576679 81.9672166,19.2745627 C82.6146046,19.7914575 83.5584423,19.6856719 84.0753371,19.0382839 L85.6721997,17.0382839 C86.1890945,16.3908959 86.0833089,15.4470582 85.4359209,14.9301633 C84.7885329,14.4132685 83.8446952,14.5190541 83.3278003,15.1664421 L83.3278003,15.1664421 Z" id="Shape" fill="#E7B721" sketch:type="MSShapeGroup"></path>
            <path d="M61.1054422,14.0763933 L60.8941082,1.87166724 C60.8797655,1.04336429 60.1966662,0.383519115 59.3683633,0.397861801 C58.5400603,0.412204487 57.8802152,1.09530375 57.8945578,1.92360671 L58.1058918,14.1283328 C58.1202345,14.9566357 58.8033338,15.6164809 59.6316367,15.6021382 C60.4599397,15.5877955 61.1197848,14.9046963 61.1054422,14.0763933 L61.1054422,14.0763933 Z" id="Shape" fill="#C374D3" sketch:type="MSShapeGroup"></path>
            <path d="M61.1054422,104.076393 L60.8941082,91.8716672 C60.8797655,91.0433643 60.1966662,90.3835191 59.3683633,90.3978618 C58.5400603,90.4122045 57.8802152,91.0953037 57.8945578,91.9236067 L58.1058918,104.128333 C58.1202345,104.956636 58.8033338,105.616481 59.6316367,105.602138 C60.4599397,105.587796 61.1197848,104.904696 61.1054422,104.076393 L61.1054422,104.076393 Z" id="Shape" fill="#C374D3" sketch:type="MSShapeGroup"></path>
            <circle id="Oval-295-Copy-5" fill="#3CACA2" sketch:type="MSShapeGroup" cx="61.5" cy="80.5" r="1.5"></circle>
            <circle id="Oval-295-Copy-6" fill="#3CACA2" sketch:type="MSShapeGroup" cx="69.75" cy="88.75" r="0.75"></circle>
            <circle id="Oval-295-Copy" fill="#CFD5E0" sketch:type="MSShapeGroup" cx="86" cy="27" r="1"></circle>
            <circle id="Oval-295-Copy-2" fill="#3CACA2" sketch:type="MSShapeGroup" cx="85" cy="46" r="1"></circle>
            <circle id="Oval-295-Copy-3" fill="#3CACA2" sketch:type="MSShapeGroup" cx="25" cy="23" r="1"></circle>
            <path d="M107.550143,90.6609359 C108.191311,91.1855273 109.136345,91.0910239 109.660936,90.4498567 C110.185527,89.8086895 110.091024,88.8636554 109.449857,88.3390641 L98.4498567,79.3390641 C97.8086895,78.8144727 96.8636554,78.9089761 96.3390641,79.5501433 C95.8144727,80.1913105 95.9089761,81.1363446 96.5501433,81.6609359 L107.550143,90.6609359 Z" id="Shape" fill="#4A90E2" sketch:type="MSShapeGroup"></path>
            <path d="M79.2142058,89.2724851 L81.6173432,93.2724851 C82.0439749,93.9826096 82.965498,94.212426 83.6756225,93.7857942 C84.3857471,93.3591625 84.6155634,92.4376395 84.1889317,91.7275149 L81.7857942,87.7275149 C81.3591625,87.0173904 80.4376395,86.787574 79.7275149,87.2142058 C79.0173904,87.6408375 78.787574,88.5623605 79.2142058,89.2724851 L79.2142058,89.2724851 Z" id="Shape" fill="#E7B721" sketch:type="MSShapeGroup"></path>
            <path d="M32.2142058,13.7724851 L34.6173432,17.7724851 C35.0439749,18.4826096 35.965498,18.712426 36.6756225,18.2857942 C37.3857471,17.8591625 37.6155634,16.9376395 37.1889317,16.2275149 L34.7857942,12.2275149 C34.3591625,11.5173904 33.4376395,11.287574 32.7275149,11.7142058 C32.0173904,12.1408375 31.787574,13.0623605 32.2142058,13.7724851 L32.2142058,13.7724851 Z" id="Shape" fill="#E7B721" sketch:type="MSShapeGroup"></path>
            <path d="M102,53.102363 L98.9031374,53.102363" id="Line-Copy-6" stroke="#E7B721" stroke-width="3" stroke-linecap="round" sketch:type="MSShapeGroup"></path>
            <path d="M13.6361966,54.5447862 L9.63619656,55.5447862 C8.8325042,55.7457093 8.34386316,56.5601111 8.54478625,57.3638034 C8.74570934,58.1674958 9.56011108,58.6561368 10.3638034,58.4552138 L14.3638034,57.4552138 C15.1674958,57.2542907 15.6561368,56.4398889 15.4552138,55.6361966 C15.2542907,54.8325042 14.4398889,54.3438632 13.6361966,54.5447862 L13.6361966,54.5447862 Z" id="Shape" fill="#C374D3" sketch:type="MSShapeGroup"></path>
            <path d="M16.2442084,27.1976353 L2.24420841,19.1976353 C1.52493224,18.7866203 0.608650241,19.0365154 0.197635287,19.7557916 C-0.213379667,20.4750678 0.0365154227,21.3913498 0.755791592,21.8023647 L14.7557916,29.8023647 C15.4750678,30.2133797 16.3913498,29.9634846 16.8023647,29.2442084 C17.2133797,28.5249322 16.9634846,27.6086502 16.2442084,27.1976353 L16.2442084,27.1976353 Z" id="Shape" fill="#4A90E2" sketch:type="MSShapeGroup"></path>
            <path d="M12.6398065,83.2711521 L2.63980648,90.2711521 C1.96113254,90.7462239 1.79608036,91.6815196 2.27115212,92.3601935 C2.74622388,93.0388675 3.68151957,93.2039196 4.36019352,92.7288479 L14.3601935,85.7288479 C15.0388675,85.2537761 15.2039196,84.3184804 14.7288479,83.6398065 C14.2537761,82.9611325 13.3184804,82.7960804 12.6398065,83.2711521 L12.6398065,83.2711521 Z" id="Shape" fill="#E7B721" sketch:type="MSShapeGroup"></path>
        </g>
    </g>
</svg>