<?xml version="1.0" encoding="utf-8"?>
<!-- Generator: Adobe Illustrator 22.1.0, SVG Export Plug-In . SVG Version: 6.00 Build 0)  -->
<svg version="1.1" id="Layer_1" xmlns="http://www.w3.org/2000/svg" xmlns:xlink="http://www.w3.org/1999/xlink" x="0px" y="0px"
	 viewBox="0 0 11 23" style="enable-background:new 0 0 11 23;" xml:space="preserve">
<style type="text/css">
	.st0{fill:#373D41;}
	.st1{fill:#767E83;}
	.st2{fill:#FFFFFF;}
</style>
<title>Group 3</title>
<desc>Created with Sketch.</desc>
<g>
	<path class="st0" d="M5.4,9.8c2.4,0,4.4-2,4.4-4.4C9.8,3,7.9,1,5.4,1S1,3,1,5.4C1,7.9,3,9.8,5.4,9.8z M5.4,2.4c1.7,0,3,1.4,3,3
		c0,1.7-1.4,3-3,3c-1.7,0-3-1.4-3-3C2.4,3.7,3.7,2.4,5.4,2.4z"/>
	<path class="st1" d="M5.4,10.8c3,0,5.4-2.4,5.4-5.4S8.4,0,5.4,0S0,2.4,0,5.4S2.4,10.8,5.4,10.8z M5.4,1c2.4,0,4.4,2,4.4,4.4
		c0,2.4-2,4.4-4.4,4.4S1,7.9,1,5.4C1,3,3,1,5.4,1z"/>
	<path class="st2" d="M5.4,8.5c1.7,0,3-1.4,3-3c0-1.7-1.4-3-3-3c-1.7,0-3,1.4-3,3C2.4,7.1,3.7,8.5,5.4,8.5z"/>
	<circle class="st0" cx="5.4" cy="17.6" r="4.4"/>
	<path class="st1" d="M5.4,12.2c-3,0-5.4,2.4-5.4,5.4S2.4,23,5.4,23s5.4-2.4,5.4-5.4S8.4,12.2,5.4,12.2z M1,17.6
		c0-2.4,2-4.4,4.4-4.4s4.4,2,4.4,4.4S7.9,22,5.4,22S1,20,1,17.6z"/>
</g>
</svg>
