<?xml version="1.0" encoding="utf-8"?>
<!-- Generator: Adobe Illustrator 21.0.2, SVG Export Plug-In . SVG Version: 6.00 Build 0)  -->
<svg version="1.1" id="Слой_1" xmlns="http://www.w3.org/2000/svg" xmlns:xlink="http://www.w3.org/1999/xlink" x="0px" y="0px"
	 viewBox="0 0 21 21" style="enable-background:new 0 0 21 21;" xml:space="preserve">
<style type="text/css">
	.st0{fill:#FF001F;}
	.st1{display:none;fill:none;stroke:#FFFFFF;stroke-width:2;}
	.st2{fill:#FFFFFF;}
</style>
<title>24209F0D-BFF4-4626-AD80-BE35255A4CC5</title>
<desc>Created with sketchtool.</desc>
<g id="REP-Dashboard">
	<g id="ME_x5F_Step_x5F_4.1_x40_2x" transform="translate(-539.000000, -610.000000)">
		<g id="Group-2" transform="translate(390.000000, 432.000000)">
			<g id="task-deadline-overdue-copy" transform="translate(151.000000, 180.000000)">
				<g id="Oval-12-Copy">
					<g>
						<path id="path-1" class="st0" d="M8.5,19C14.3,19,19,14.3,19,8.5S14.3-2,8.5-2S-2,2.7-2,8.5S2.7,19,8.5,19z"/>
					</g>
					<path class="st1" d="M8.5,20C2.1,20-3,14.8-3,8.5S2.1-3,8.5-3S20,2.1,20,8.5S14.8,20,8.5,20z"/>
				</g>
				<path id="Rectangle-2834" class="st2" d="M6.7,3.2h3.5v7H6.7V3.2z M6.7,12h3.5v1.8H6.7V12z"/>
			</g>
		</g>
	</g>
</g>
</svg>
