<?xml version="1.0" encoding="UTF-8"?>
<svg width="50px" height="50px" viewBox="0 0 50 50" version="1.1" xmlns="http://www.w3.org/2000/svg" xmlns:xlink="http://www.w3.org/1999/xlink">
    <!-- Generator: Sketch 51.3 (57544) - http://www.bohemiancoding.com/sketch -->
    <title>SR_icon Copy</title>
    <desc>Created with Sketch.</desc>
    <defs></defs>
    <g id="ISSUER" stroke="none" stroke-width="1" fill="none" fill-rule="evenodd">
        <g id="SR_icon-Copy">
            <g id="Customer-55">
                <rect id="Rectangle-path" x="1.75438596" y="1.56641604" width="47.556391" height="47.556391"></rect>
                <rect id="Rectangle-128" fill="#CFD5E0" x="0" y="0" width="50" height="50" rx="3"></rect>
            </g>
            <path d="M16.1054688,19.5107422 C16.1054688,20.653326 15.6923869,21.5498014 14.8662109,22.2001953 C14.0400349,22.8505892 12.9003979,23.1757812 11.4472656,23.1757812 C9.99413336,23.1757812 8.80469213,22.9501976 7.87890625,22.4990234 L7.87890625,20.5126953 C8.46484668,20.7880873 9.08739905,21.004882 9.74658203,21.1630859 C10.405765,21.3212899 11.0195284,21.4003906 11.5878906,21.4003906 C12.419926,21.4003906 13.0336894,21.2421891 13.4291992,20.9257812 C13.824709,20.6093734 14.0224609,20.184573 14.0224609,19.6513672 C14.0224609,19.170896 13.8408221,18.7636735 13.4775391,18.4296875 C13.114256,18.0957015 12.3642635,17.7001976 11.2275391,17.2431641 C10.0556582,16.7685523 9.22949459,16.2265655 8.74902344,15.6171875 C8.26855229,15.0078095 8.02832031,14.2753949 8.02832031,13.4199219 C8.02832031,12.3476509 8.40917588,11.5039093 9.17089844,10.8886719 C9.932621,10.2734344 10.9550717,9.96582031 12.2382812,9.96582031 C13.4687562,9.96582031 14.6933533,10.2353489 15.9121094,10.7744141 L15.2441406,12.4882812 C14.1015568,12.0078101 13.0820357,11.7675781 12.1855469,11.7675781 C11.505856,11.7675781 10.9902361,11.9155259 10.6386719,12.2114258 C10.2871076,12.5073257 10.1113281,12.8984351 10.1113281,13.3847656 C10.1113281,13.7187517 10.1816399,14.0043933 10.3222656,14.2416992 C10.4628913,14.4790051 10.6943343,14.7031239 11.0166016,14.9140625 C11.3388688,15.1250011 11.9189411,15.4033186 12.7568359,15.7490234 C13.7002,16.1416035 14.3915994,16.5078108 14.8310547,16.8476562 C15.27051,17.1875017 15.5927724,17.5712869 15.7978516,17.9990234 C16.0029307,18.42676 16.1054688,18.9306612 16.1054688,19.5107422 Z M20.6933594,16.1269531 L22.1523438,16.1269531 C23.1308643,16.1269531 23.8398416,15.9453143 24.2792969,15.5820312 C24.7187522,15.2187482 24.9384766,14.6796911 24.9384766,13.9648438 C24.9384766,13.2382776 24.7011742,12.7167985 24.2265625,12.4003906 C23.7519508,12.0839828 23.0371142,11.9257812 22.0820312,11.9257812 L20.6933594,11.9257812 L20.6933594,16.1269531 Z M20.6933594,17.8671875 L20.6933594,23 L18.5927734,23 L18.5927734,10.1503906 L22.2226562,10.1503906 C23.8808677,10.1503906 25.1083945,10.4609344 25.9052734,11.0820312 C26.7021524,11.7031281 27.1005859,12.6406187 27.1005859,13.8945312 C27.1005859,15.4941486 26.268563,16.6337857 24.6044922,17.3134766 L28.234375,23 L25.84375,23 L22.7675781,17.8671875 L20.6933594,17.8671875 Z" id="SR" fill="#FFFFFF"></path>
        </g>
    </g>
</svg>