<?xml version="1.0" encoding="UTF-8"?>
<svg width="25px" height="25px" viewBox="0 0 25 25" version="1.1" xmlns="http://www.w3.org/2000/svg" xmlns:xlink="http://www.w3.org/1999/xlink">
    <!-- Generator: sketchtool 46.2 (44496) - http://www.bohemiancoding.com/sketch -->
    <title>24209F0D-BFF4-4626-AD80-BE35255A4CC5</title>
    <desc>Created with sketchtool.</desc>
    <defs>
        <path d="M10.5,21 C16.2989899,21 21,16.2989899 21,10.5 C21,4.70101013 16.2989899,0 10.5,0 C4.70101013,0 0,4.70101013 0,10.5 C0,16.2989899 4.70101013,21 10.5,21 Z" id="path-1"></path>
    </defs>
    <g id="REP-Dashboard" stroke="none" stroke-width="1" fill="none" fill-rule="evenodd">
        <g id="ME_Step_4.1@2x" transform="translate(-539.000000, -610.000000)">
            <g id="Group-2" transform="translate(390.000000, 432.000000)">
                <g id="task-deadline-overdue-copy" transform="translate(151.000000, 180.000000)">
                    <g id="Oval-12-Copy">
                        <use fill="#FF001F" fill-rule="evenodd" xlink:href="#path-1"></use>
                        <path stroke="#FFFFFF" stroke-width="2" d="M10.5,22 C4.14872538,22 -1,16.8512746 -1,10.5 C-1,4.14872538 4.14872538,-1 10.5,-1 C16.8512746,-1 22,4.14872538 22,10.5 C22,16.8512746 16.8512746,22 10.5,22 Z"></path>
                    </g>
                    <path d="M8.75,5.25 L12.25,5.25 L12.25,12.25 L8.75,12.25 L8.75,5.25 Z M8.75,14 L12.25,14 L12.25,15.75 L8.75,15.75 L8.75,14 Z" id="Rectangle-2834" fill="#FFFFFF"></path>
                </g>
            </g>
        </g>
    </g>
</svg>