<?xml version="1.0" encoding="utf-8"?>
<!-- Generator: Adobe Illustrator 16.0.0, SVG Export Plug-In . SVG Version: 6.00 Build 0)  -->
<!DOCTYPE svg PUBLIC "-//W3C//DTD SVG 1.1//EN" "http://www.w3.org/Graphics/SVG/1.1/DTD/svg11.dtd">
<svg version="1.1" id="Layer_1" xmlns="http://www.w3.org/2000/svg" xmlns:xlink="http://www.w3.org/1999/xlink" x="0px" y="0px"
	 width="16px" height="16px" viewBox="0 0 16 16" enable-background="new 0 0 16 16" xml:space="preserve">
<title>Group 11</title>
<desc>Created with Sketch.</desc>
<g>
	<polygon fill="#C374D3" points="9.814,5.404 9.814,6.246 10.656,5.404 	"/>
	<path fill="#C374D3" d="M3.524,12V5.41H1.145V4.18h6.306v1.23H5.039v5.612l3.266-3.266V4.18h2.621c0.312,0,0.597,0.036,0.866,0.089
		L16,0.061V0H0v16h0.061l4-4H3.524z"/>
	<path fill="#0076FF" d="M10.932,7.854c0.426,0,0.754-0.108,0.985-0.325c0.23-0.216,0.347-0.513,0.347-0.889
		c0-0.39-0.113-0.694-0.339-0.91c-0.226-0.217-0.559-0.325-0.999-0.325h-0.27L9.814,6.246v1.607H10.932z"/>
	<path fill="#0076FF" d="M16,0.061l-4.208,4.208c0.104,0.021,0.212,0.036,0.31,0.064c0.352,0.102,0.651,0.251,0.9,0.448
		c0.248,0.197,0.44,0.442,0.574,0.736c0.135,0.293,0.201,0.634,0.201,1.021c0,0.279-0.033,0.531-0.099,0.754
		c-0.066,0.224-0.161,0.425-0.285,0.602c-0.123,0.178-0.272,0.333-0.445,0.465c-0.174,0.132-0.368,0.247-0.583,0.344l1.682,3.228V12
		H12.43l-1.472-2.922H9.814V12h-1.51V7.756l-3.266,3.266V12H4.061l-4,4H16V0.061z"/>
	<polygon fill="#FFFFFF" points="7.451,5.41 7.451,4.18 1.145,4.18 1.145,5.41 3.524,5.41 3.524,12 4.061,12 5.039,11.021 
		5.039,5.41 	"/>
	<path fill="#FFFFFF" d="M8.305,4.18v3.576l1.51-1.51V5.404h0.842l1.136-1.135c-0.27-0.053-0.554-0.089-0.866-0.089H8.305z"/>
	<polygon fill="#FFFFFF" points="5.039,12 5.039,11.021 4.061,12 	"/>
	<path fill="#FFFFFF" d="M10.926,5.404c0.44,0,0.773,0.108,0.999,0.325c0.226,0.216,0.339,0.52,0.339,0.91
		c0,0.376-0.116,0.672-0.347,0.889c-0.231,0.217-0.56,0.325-0.985,0.325H9.814V6.246l-1.51,1.51V12h1.51V9.078h1.144L12.43,12h1.617
		v-0.07l-1.682-3.228c0.215-0.097,0.409-0.211,0.583-0.344c0.173-0.132,0.322-0.287,0.445-0.465
		c0.124-0.177,0.219-0.377,0.285-0.602c0.065-0.224,0.099-0.475,0.099-0.754c0-0.387-0.066-0.727-0.201-1.021
		c-0.134-0.293-0.326-0.539-0.574-0.736c-0.249-0.197-0.549-0.347-0.9-0.448c-0.098-0.028-0.206-0.043-0.31-0.064l-1.136,1.135
		H10.926z"/>
</g>
</svg>
