<?xml version="1.0" encoding="UTF-8" standalone="no"?>
<svg width="16px" height="16px" viewBox="0 0 16 16" version="1.1" xmlns="http://www.w3.org/2000/svg" xmlns:xlink="http://www.w3.org/1999/xlink">
    <!-- Generator: Sketch 3.6.1 (26313) - http://www.bohemiancoding.com/sketch -->
    <title>Transaction 16 Dis</title>
    <desc>Created with Sketch.</desc>
    <defs></defs>
    <g id="assets" stroke="none" stroke-width="1" fill="none" fill-rule="evenodd">
        <g id="Transaction-16-Dis" transform="translate(0.000000, 0.000000)">
            <rect id="Rectangle-128" fill="#CFD5E0" x="0" y="0" width="16" height="16"></rect>
            <path d="M7.45068359,5.40966797 L5.0390625,5.40966797 L5.0390625,12 L3.52441406,12 L3.52441406,5.40966797 L1.14501953,5.40966797 L1.14501953,4.1796875 L7.45068359,4.1796875 L7.45068359,5.40966797 Z M10.9580078,9.078125 L9.81396484,9.078125 L9.81396484,12 L8.3046875,12 L8.3046875,4.1796875 L10.9257812,4.1796875 C11.3590516,4.1796875 11.7511376,4.23071238 12.1020508,4.33276367 C12.452964,4.43481496 12.7528471,4.58430891 13.001709,4.78125 C13.2505709,4.97819109 13.442138,5.22346858 13.576416,5.51708984 C13.710694,5.8107111 13.777832,6.15087697 13.777832,6.53759766 C13.777832,6.81689593 13.7447106,7.06843964 13.6784668,7.29223633 C13.612223,7.51603302 13.5173346,7.71655185 13.3937988,7.89379883 C13.2702631,8.07104581 13.1216643,8.2259108 12.947998,8.35839844 C12.7743318,8.49088608 12.5800792,8.60546827 12.3652344,8.70214844 L14.0463867,11.9301758 L14.0463867,12 L12.4296875,12 L10.9580078,9.078125 Z M9.81396484,7.85351562 L10.9311523,7.85351562 C11.3572612,7.85351562 11.6857899,7.74519965 11.916748,7.52856445 C12.1477062,7.31192926 12.2631836,7.01562688 12.2631836,6.63964844 C12.2631836,6.24934701 12.1503918,5.94588324 11.9248047,5.72924805 C11.6992176,5.51261285 11.3662131,5.40429688 10.9257812,5.40429688 L9.81396484,5.40429688 L9.81396484,7.85351562 Z" id="EL" fill="#FFFFFF"></path>
        </g>
    </g>
</svg>