<?xml version="1.0" encoding="UTF-8" standalone="no"?>
<svg width="16px" height="16px" viewBox="0 0 16 16" version="1.1" xmlns="http://www.w3.org/2000/svg" xmlns:xlink="http://www.w3.org/1999/xlink" xmlns:sketch="http://www.bohemiancoding.com/sketch/ns">
    <!-- Generator: Sketch 3.4 (15588) - http://www.bohemiancoding.com/sketch -->
    <title>File icon unknown</title>
    <desc>Created with Sketch.</desc>
    <defs></defs>
    <g id="assets" stroke="none" stroke-width="1" fill="none" fill-rule="evenodd" sketch:type="MSPage">
        <g id="File-icon-unknown" sketch:type="MSLayerGroup">
            <rect id="Rectangle-128" fill="#6C757A" sketch:type="MSShapeGroup" x="0" y="0" width="16" height="16"></rect>
            <path d="M5.59293462,14.5798754 C4.44100336,14.5798754 3.35839362,14.1314415 2.54411454,13.3168307 C0.862818962,11.6358668 0.862818962,8.90015448 2.54411454,7.2188589 L7.46925916,2.29371429 L8.40725559,3.23171072 L3.48211097,8.15718701 C2.31823916,9.3213905 2.31823916,11.2149625 3.48211097,12.379166 C4.04597021,12.9430252 4.79557132,13.2534795 5.59293462,13.2534795 C6.39029792,13.2534795 7.13989903,12.9430252 7.70375827,12.379166 L12.8604169,7.2225074 C13.2060294,6.87722654 13.3960831,6.4178471 13.3960831,5.92961134 C13.3960831,5.44137557 13.2060294,4.98199613 12.8604169,4.63638359 C12.1486275,3.9249259 10.9910576,3.92393085 10.2772782,4.63306677 L10.2772782,4.63339845 L5.35213356,9.55887475 C5.22543107,9.68590892 5.15544619,9.85473501 5.15544619,10.0341749 C5.15544619,10.2136148 5.22543107,10.3824409 5.35213356,10.5094751 C5.61416226,10.7711721 6.04037351,10.7711721 6.30240222,10.5094751 L11.2278785,5.58366711 L12.1658749,6.52166354 L7.24073033,11.4468082 C6.46160953,12.2262606 5.1935896,12.2262606 4.41446881,11.4468082 C4.0370148,11.0693541 3.82905024,10.5675194 3.82905024,10.0335116 C3.82905024,9.49950369 4.0370148,8.99766896 4.41446881,8.62021496 L9.33629661,3.69772379 C10.5665048,2.46784729 12.5685368,2.4675156 13.798745,3.69772379 C14.3947774,4.29375618 14.7231424,5.08647593 14.7231424,5.92927965 C14.7231424,6.77208338 14.3947774,7.56480313 13.798745,8.16050383 L8.6417547,13.3171624 C7.82747562,14.1314415 6.7445342,14.5798754 5.59293462,14.5798754 L5.59293462,14.5798754 Z" id="Shape-Copy" fill="#FFFFFF" sketch:type="MSShapeGroup"></path>
        </g>
    </g>
</svg>