<?xml version="1.0" encoding="UTF-8" standalone="no"?>
<svg width="18px" height="18px" viewBox="0 0 18 18" version="1.1" xmlns="http://www.w3.org/2000/svg" xmlns:xlink="http://www.w3.org/1999/xlink" xmlns:sketch="http://www.bohemiancoding.com/sketch/ns">
    <!-- Generator: Sketch 3.5.1 (25234) - http://www.bohemiancoding.com/sketch -->
    <title>user individual icon</title>
    <desc>Created with Sketch.</desc>
    <defs></defs>
    <g id="assets" stroke="none" stroke-width="1" fill="none" fill-rule="evenodd" sketch:type="MSPage">
        <g id="user-individual-icon" sketch:type="MSLayerGroup">
            <rect id="Rectangle-path" sketch:type="MSShapeGroup" x="1" y="1" width="16" height="16"></rect>
            <path d="M9,17.68 C13.7938316,17.68 17.68,13.7938316 17.68,9 C17.68,4.20616837 13.7938316,0.32 9,0.32 C4.20616837,0.32 0.32,4.20616837 0.32,9 C0.32,13.7938316 4.20616837,17.68 9,17.68 L9,17.68 Z" id="Shape" fill="#96A1A7" sketch:type="MSShapeGroup"></path>
            <path d="M10.54976,11.02176 C10.78336,10.8992 11.20192,10.11776 11.27264,9.4576 C11.45632,9.44256 11.74592,9.26336 11.83072,8.55584 C11.87648,8.176 11.69472,7.96224 11.584,7.89504 C11.88288,6.99616 12.50368,4.21536 10.43584,3.928 C10.22304,3.55424 9.67808,3.36512 8.96992,3.36512 C6.13664,3.41728 5.79488,5.50464 6.416,7.89504 C6.3056,7.96224 6.12384,8.176 6.16928,8.55584 C6.2544,9.26336 6.54368,9.44256 6.72736,9.4576 C6.79776,10.11744 7.23296,10.8992 7.4672,11.02176 C7.4672,11.49312 7.4848,11.85312 7.43808,12.36896 C7.03456,13.45376 4.96224,13.53856 3.76672,14.58464 C5.01664,15.8432 7.04224,16.74336 9.17984,16.74336 C11.31744,16.74336 13.83008,15.05568 14.24832,14.5952 C13.06016,13.53952 10.98304,13.4576 10.57856,12.36896 C10.53184,11.85312 10.54976,11.49312 10.54976,11.02176 Z" id="Shape" fill="#FFFFFF" sketch:type="MSShapeGroup"></path>
        </g>
    </g>
</svg>