<?xml version="1.0" encoding="UTF-8" standalone="no"?>
<svg width="50px" height="50px" viewBox="0 0 50 50" version="1.1" xmlns="http://www.w3.org/2000/svg" xmlns:xlink="http://www.w3.org/1999/xlink" xmlns:sketch="http://www.bohemiancoding.com/sketch/ns">
    <!-- Generator: Sketch 3.5.1 (25234) - http://www.bohemiancoding.com/sketch -->
    <title>action send e-mail</title>
    <desc>Created with Sketch.</desc>
    <defs>
        <linearGradient x1="50%" y1="2.10857781%" x2="50%" y2="100%" id="linearGradient-1">
            <stop stop-color="#FFE187" offset="0%"></stop>
            <stop stop-color="#E7C254" offset="100%"></stop>
        </linearGradient>
    </defs>
    <g id="assets" stroke="none" stroke-width="1" fill="none" fill-rule="evenodd" sketch:type="MSPage">
        <g id="action-send-e-mail" sketch:type="MSLayerGroup">
            <g id="Add-transaction" fill="url(#linearGradient-1)" sketch:type="MSShapeGroup">
                <rect id="Rectangle-128" x="0" y="0" width="50" height="50" rx="3"></rect>
            </g>
            <path d="M9,11 L41,11 L41,16 L9,16 L9,11 Z M9,34 L41,34 L41,39 L9,39 L9,34 Z M9,16 L14,16 L14,34 L9,34 L9,16 Z M36,16 L41,16 L41,34 L36,34 L36,16 Z" id="Rectangle-133" fill="#FFFFFF" sketch:type="MSShapeGroup"></path>
            <path d="M23.318318,28.8498502 L24.9574837,30.3400008 L26.6340497,28.8920575 L37.6340497,19.3920575 L39.5261072,17.7580078 L36.2580078,13.9738928 L34.3659503,15.6079425 L24.9574834,23.7037355 L15.681682,15.1501498 L13.8318318,13.4684678 L10.4684678,17.1681682 L12.318318,18.8498502 L23.318318,28.8498502 Z" id="Shape" fill="#FFFFFF" sketch:type="MSShapeGroup"></path>
        </g>
    </g>
</svg>