<?xml version="1.0" encoding="UTF-8" standalone="no"?>
<svg width="50px" height="50px" viewBox="0 0 50 50" version="1.1" xmlns="http://www.w3.org/2000/svg" xmlns:xlink="http://www.w3.org/1999/xlink">
    <!-- Generator: Sketch 3.7.1 (28215) - http://www.bohemiancoding.com/sketch -->
    <title>action add team</title>
    <desc>Created with Sketch.</desc>
    <defs></defs>
    <g id="assets" stroke="none" stroke-width="1" fill="none" fill-rule="evenodd">
        <g id="action-add-team" transform="translate(0.000000, -2.000000)">
            <rect id="Rectangle-path" x="0" y="0" width="50" height="50"></rect>
            <path d="M25,51.3863699 C38.8071187,51.3863699 50,40.3308544 50,26.6931849 C50,13.0555155 38.8071187,2 25,2 C11.1928813,2 0,13.0555155 0,26.6931849 C0,40.3308544 11.1928813,51.3863699 25,51.3863699 Z" id="Oval" fill="#96A0A6"></path>
            <g id="1454011074_vector_65_02" transform="translate(7.000000, 13.000000)" fill="#FFFFFF">
                <g id="Layer_1">
                    <g id="Group">
                        <path d="M27.49536,14.4527174 C27.20304,14.2048747 26.8461,14.0553907 26.47602,14.0003735 L20.5263,12.8688943 L20.5263,12.8688943 C19.131063,14.420017 16.5011361,14.0113465 15.47352,12.8690713 L15.47352,12.8690713 L9.5238,14.0005504 C9.15372,14.0555676 8.79696,14.2048747 8.50428,14.4528943 C8.2134,14.7025061 8.02908,15.0115577 7.95348,15.3388305 L6.18948,22.9538477 L9.51714,24.088688 C10.6218,25.2173366 13.7142,26.0475479 17.4231,26.1266241 L18,26.1266241 L18.57654,26.1266241 C22.28544,26.0477248 25.37748,25.2173366 26.4825,24.088688 L29.81034,22.9538477 L28.04634,15.3386536 C27.97038,15.0113808 27.78624,14.7023292 27.49536,14.4527174 Z" id="Shape"></path>
                        <path d="M23.09202,6.22030467 C23.09202,2.76412776 21.64482,0.0555479115 18,0.0555479115 C14.35482,0.0555479115 12.90834,2.76430467 12.90834,6.22030467 C12.5271,6.41578378 12.27672,6.87449631 12.65112,7.85755283 C12.83994,8.35111548 13.17276,8.76471744 13.45518,8.98124816 C14.49396,11.5230074 16.53678,13.4852285 18,13.4852285 C19.46322,13.4852285 21.50622,11.5230074 22.54446,8.98124816 C22.82724,8.76471744 23.15952,8.35093857 23.34888,7.85755283 C23.72328,6.87431941 23.47308,6.41578378 23.09202,6.22030467 L23.09202,6.22030467 Z" id="Shape"></path>
                        <path d="M5.75208,21.2170025 C4.0536,21.0197543 2.71476,20.5686486 2.15766,19.9997248 L0,19.2638034 L1.14372,14.3265848 C1.19286,14.1144767 1.31256,13.9138673 1.50102,13.7523538 C1.69074,13.5917248 1.92204,13.4944275 2.16198,13.4590467 L6.34068,12.5184472 C5.71194,11.9900344 5.10156,11.1614152 4.71114,10.2045405 C4.5279,10.0644324 4.31208,9.7962457 4.1895,9.47604914 C3.9465,8.8390172 4.10886,8.54164128 4.35618,8.41462408 C4.35618,6.17395577 5.29362,4.41782801 7.6572,4.41782801 L7.65774,4.41782801 C10.02078,4.41782801 10.95876,6.17395577 10.95876,8.41462408 C11.20608,8.54164128 11.36844,8.8390172 11.1258,9.47604914 C11.00304,9.7962457 10.78722,10.0644324 10.60398,10.2045405 C10.21356,11.1612383 9.603,11.9898575 8.97444,12.5184472 L10.82214,12.9345258 L9.38376,13.2078428 C8.85276,13.2892187 8.3637,13.5094644 7.96626,13.8468206 C7.55316,14.2015135 7.27236,14.6554496 7.15518,15.1599803 L5.75208,21.2170025 L5.75208,21.2170025 Z M34.85628,14.3264079 C34.80678,14.1142998 34.68744,13.9136904 34.49898,13.7521769 C34.30962,13.5915479 34.07832,13.4942506 33.83802,13.4588698 L29.6595,12.5182703 C30.28824,11.9898575 30.89844,11.1612383 31.2894,10.2043636 C31.47282,10.0642555 31.6881,9.7960688 31.81068,9.47587224 C32.05368,8.83884029 31.89132,8.54146437 31.64418,8.41444717 C31.64418,6.17377887 30.70566,4.41765111 28.34244,4.41765111 L28.34244,4.41765111 C25.97904,4.41765111 25.04106,6.17377887 25.04106,8.41444717 C24.7941,8.54146437 24.63156,8.83884029 24.87456,9.47587224 C24.99678,9.7960688 25.2126,10.0642555 25.39584,10.2043636 C25.78662,11.1610614 26.397,11.9896806 27.02574,12.5182703 L25.17768,12.9343489 L26.61606,13.2076658 C27.1467,13.2890418 27.63612,13.5092875 28.03014,13.8434595 C28.44666,14.2011597 28.72692,14.6552727 28.8441,15.1590958 L30.24738,21.2170025 C31.94586,21.0197543 33.2847,20.5686486 33.84198,19.9997248 L35.99946,19.2638034 L34.85628,14.3264079 L34.85628,14.3264079 Z" id="Shape"></path>
                    </g>
                </g>
            </g>
        </g>
    </g>
</svg>