<svg xmlns="http://www.w3.org/2000/svg" xmlns:xlink="http://www.w3.org/1999/xlink" width="25" height="25" viewBox="0 0 25 25">
    <defs>
        <path id="a" d="M10.5 21C16.299 21 21 16.299 21 10.5S16.299 0 10.5 0 0 4.701 0 10.5 4.701 21 10.5 21z"/>
    </defs>
    <g fill="none" fill-rule="evenodd">
        <g transform="translate(2 2)">
            <use fill="#2CAF24" xlink:href="#a"/>
            <path stroke="#FFF" stroke-width="2" d="M10.5 22C4.149 22-1 16.851-1 10.5S4.149-1 10.5-1 22 4.149 22 10.5 16.851 22 10.5 22z"/>
        </g>
        <path fill="#FFF" fill-rule="nonzero" d="M6.045 12.452l3.969 3.77 1.236 1.175 1.206-1.206 5.954-5.954-2.475-2.474-5.953 5.953 2.442-.031-3.969-3.77z"/>
    </g>
</svg>
