<svg xmlns="http://www.w3.org/2000/svg" width="70" height="70" viewBox="0 0 70 70"><title>Deal attachment</title><path d="M3.043 0h63.913C68.636 0 70 1.363 70 3.043v63.913C70 68.636 68.637 70 66.957 70H3.043C1.363 70 0 68.637 0 66.957V3.043C0 1.363 1.363 0 3.043 0z" fill="#FAA41A"/><g fill="#FFF"><path d="M17.887 26.562h-6.22l-1.368 4.62H6.907l6.467-19.905h2.885l6.344 19.906h-3.377l-1.34-4.62zM12.5 23.76h4.566L14.81 15.95 12.5 23.76zM39.133 13.983h-6.11v17.2h-3.27v-17.2h-6.07v-2.707h15.45v2.707zM55.936 13.983h-6.11v17.2h-3.27v-17.2h-6.07v-2.707h15.45v2.707z"/></g></svg>