<?xml version="1.0" encoding="UTF-8"?>
<svg width="50px" height="50px" viewBox="0 0 50 50" version="1.1" xmlns="http://www.w3.org/2000/svg" xmlns:xlink="http://www.w3.org/1999/xlink">
    <!-- Generator: Sketch 47.1 (45422) - http://www.bohemiancoding.com/sketch -->
    <title>CIF_link_icon</title>
    <desc>Created with Sketch.</desc>
    <defs>
        <linearGradient x1="50%" y1="0%" x2="50%" y2="100%" id="linearGradient-1">
            <stop stop-color="#216C96" offset="0%"></stop>
            <stop stop-color="#257BAB" offset="100%"></stop>
        </linearGradient>
    </defs>
    <g id="REP-Dashboard" stroke="none" stroke-width="1" fill="none" fill-rule="evenodd">
        <g id="Group-41" transform="translate(-598.000000, -511.000000)">
            <g id="CIF_link_icon" transform="translate(598.000000, 511.000000)">
                <rect id="Rectangle-128" fill="url(#linearGradient-1)" x="0" y="0" width="50" height="50" rx="3"></rect>
                <g id="002-web-link" transform="translate(32.313708, 40.313708) rotate(-315.000000) translate(-32.313708, -40.313708) translate(24.313708, 32.313708)" fill-rule="nonzero" fill="#FFFFFF">
                    <path d="M5.8596,12.6942092 L5.05,13.498207 C4.3482,14.193805 3.2068,14.194405 2.5054,13.498207 C2.1682,13.1636079 1.983,12.7192091 1.983,12.2468105 C1.983,11.7744118 2.1684,11.329813 2.5052,10.9952139 L5.4852,8.03862218 C6.1028,7.42622388 7.2646,6.52442639 8.1114,7.36422405 C8.5,7.75022298 9.1276,7.74762299 9.5134,7.35922407 C9.8994,6.97082515 9.897,6.3430269 9.5084,5.95742797 C8.069,4.52903195 5.9416,4.79303122 4.0888,6.63142609 L1.1086,9.58821786 C0.3936,10.2980159 0,11.2420133 0,12.2468105 C0,13.2516077 0.3936,14.195405 1.1088,14.905203 C1.8446,15.635201 2.8108,16 3.7774,16 C4.7442,16 5.7108,15.635201 6.447,14.9048031 L7.2572,14.1006053 C7.6456,13.7150064 7.6478,13.0874081 7.2618,12.6988092 C6.8764,12.3106103 6.2482,12.3084103 5.8596,12.6942092 Z M14.8908,1.2088412 C13.3448,-0.325154528 11.1832,-0.408354297 9.752,1.01164175 L8.7428,2.01343896 C8.3542,2.39923788 8.3518,3.02663614 8.7378,3.41523505 C9.1238,3.80383397 9.7514,3.80603396 10.14,3.42023504 L11.1488,2.41903783 C11.8902,1.68283988 12.861,1.98803903 13.4942,2.61623728 C13.8318,2.95083635 14.0172,3.39543511 14.0172,3.86783379 C14.0172,4.34043248 13.8316,4.78503124 13.4946,5.11963031 L10.3152,8.27362152 C8.8614,9.7160175 8.1794,9.03901939 7.8884,8.75022019 C7.4998,8.36442127 6.8724,8.36682126 6.4864,8.75522018 C6.1004,9.1436191 6.1028,9.77141735 6.4914,10.1570163 C7.1588,10.8194144 7.9206,11.1478135 8.7192,11.1478135 C9.697,11.1478135 10.7298,10.6554149 11.7118,9.6804176 L14.8912,6.52642639 C15.606,5.81662836 16,4.87243099 16,3.86763379 C16,2.86323659 15.606,1.91903922 14.8908,1.2088412 Z" id="Shape"></path>
                </g>
                <path d="M15.1523438,18.546875 C15.1067706,19.2630244 14.9521498,19.9075492 14.6884766,20.4804688 C14.4248034,21.0533883 14.0716168,21.5416646 13.6289063,21.9453125 C13.1861957,22.3489604 12.6588572,22.6598296 12.046875,22.8779297 C11.4348928,23.0960297 10.7578162,23.2050781 10.015625,23.2050781 C9.17577705,23.2050781 8.4303418,23.0504573 7.77929688,22.7412109 C7.12825195,22.4319646 6.58138242,21.9990262 6.13867188,21.4423828 C5.69596133,20.8857394 5.35742305,20.2168008 5.12304688,19.4355469 C4.8886707,18.654293 4.77148438,17.7949266 4.77148438,16.8574219 L4.77148438,14.9433594 C4.77148438,13.9993442 4.89518105,13.1367227 5.14257812,12.3554688 C5.3899752,11.5742148 5.74153418,10.9036486 6.19726562,10.34375 C6.65299707,9.78385137 7.20474937,9.3492854 7.85253906,9.04003906 C8.50032876,8.73079272 9.22786055,8.57617188 10.0351562,8.57617188 C10.8164102,8.57617188 11.5113902,8.68684785 12.1201172,8.90820312 C12.7288442,9.1295584 13.2480447,9.44531045 13.6777344,9.85546875 C14.107424,10.2656271 14.4459623,10.7669241 14.6933594,11.359375 C14.9407564,11.9518259 15.0970049,12.6191369 15.1621094,13.3613281 L12.4277344,13.3613281 C12.4016926,12.9381489 12.3382167,12.5670589 12.2373047,12.2480469 C12.1363927,11.9290349 11.9899098,11.663738 11.7978516,11.4521484 C11.6057933,11.2405588 11.3649103,11.0810552 11.0751953,10.9736328 C10.7854803,10.8662104 10.4388041,10.8125 10.0351562,10.8125 C9.61197705,10.8125 9.24414219,10.9036449 8.93164062,11.0859375 C8.61913906,11.2682301 8.36035259,11.5351545 8.15527344,11.8867188 C7.95019429,12.238283 7.79882861,12.6695938 7.70117188,13.1806641 C7.60351514,13.6917343 7.5546875,14.2727832 7.5546875,14.9238281 L7.5546875,16.8574219 C7.5546875,18.2571685 7.75162563,19.2923144 8.14550781,19.9628906 C8.53938999,20.6334669 9.16275615,20.96875 10.015625,20.96875 C10.7317744,20.96875 11.298175,20.7783222 11.7148438,20.3974609 C12.1315125,20.0165997 12.36263,19.3997438 12.4082031,18.546875 L15.1523438,18.546875 Z M17.8867188,8.78125 L26.109375,8.78125 L26.109375,10.9980469 L23.3359375,10.9980469 L23.3359375,20.7929688 L26.109375,20.7929688 L26.109375,23 L17.8867188,23 L17.8867188,20.7929688 L20.5917969,20.7929688 L20.5917969,10.9980469 L17.8867188,10.9980469 L17.8867188,8.78125 Z M38.3066406,17.1113281 L32.2128906,17.1113281 L32.2128906,23 L29.4589844,23 L29.4589844,8.78125 L39.0683594,8.78125 L39.0683594,11.0175781 L32.2128906,11.0175781 L32.2128906,14.8847656 L38.3066406,14.8847656 L38.3066406,17.1113281 Z" id="EL" fill="#FFFFFF"></path>
            </g>
        </g>
    </g>
</svg>