<?xml version="1.0" encoding="UTF-8"?>
<svg width="25px" height="25px" viewBox="0 0 25 25" version="1.1" xmlns="http://www.w3.org/2000/svg" xmlns:xlink="http://www.w3.org/1999/xlink">
    <!-- Generator: Sketch 48.1 (47250) - http://www.bohemiancoding.com/sketch -->
    <title>Group</title>
    <desc>Created with Sketch.</desc>
    <defs>
        <path d="M10.5,21 C16.2989899,21 21,16.2989899 21,10.5 C21,4.70101013 16.2989899,0 10.5,0 C4.70101013,0 0,4.70101013 0,10.5 C0,16.2989899 4.70101013,21 10.5,21 Z" id="path-1"></path>
    </defs>
    <g id="STATUSES" stroke="none" stroke-width="1" fill="none" fill-rule="evenodd" transform="translate(-724.000000, -151.000000)">
        <g id="Group" transform="translate(726.000000, 153.000000)">
            <g id="Oval-12-Copy">
                <use fill="#88959C" fill-rule="evenodd" xlink:href="#path-1"></use>
                <path stroke="#FFFFFF" stroke-width="2" d="M10.5,22 C4.14872538,22 -1,16.8512746 -1,10.5 C-1,4.14872538 4.14872538,-1 10.5,-1 C16.8512746,-1 22,4.14872538 22,10.5 C22,16.8512746 16.8512746,22 10.5,22 Z"></path>
            </g>
            <g id="006-padlock" transform="translate(6.000000, 4.000000)" fill="#FFFFFF" fill-rule="nonzero">
                <path d="M7.75507946,12 L1.24492054,12 C0.557410241,12 0,11.4336088 0,10.7348062 L0,6.64985706 C0,6.04047702 0.424273102,5.53157183 0.98902884,5.41186321 L0.98902884,3.56764709 C0.98902884,1.60056457 2.56407298,0 4.50010594,0 C6.43599765,0 8.01104179,1.60042104 8.01104179,3.56764709 L8.01104179,5.41186321 C8.57558564,5.53193067 8.99985874,6.04047702 8.99985874,6.64985706 L8.99985874,10.7348062 L9,10.7348062 C9,11.4335371 8.44258976,12 7.75507946,12 Z M4.49989406,7.28966664 C3.89155974,7.28966664 3.39821071,7.79074914 3.39821071,8.40910015 C3.39821071,8.82363073 3.6206239,9.18469433 3.95032372,9.37832374 L3.95032372,10.6228485 L5.04946439,10.6228485 L5.04946439,9.37832374 C5.37916421,9.1847661 5.6015774,8.82363073 5.6015774,8.40910015 C5.6015774,7.79074914 5.108299,7.28966664 4.49989406,7.28966664 Z M4.50031783,1.86144038 C3.57429076,1.86144038 2.82109476,2.62684353 2.82109476,3.56771886 L2.82109476,5.38480677 L6.17939965,5.38480677 L6.17939965,3.56771886 C6.17932902,2.62698707 5.42613302,1.86144038 4.50031783,1.86144038 Z" id="Combined-Shape"></path>
            </g>
        </g>
    </g>
</svg>