<?xml version="1.0" encoding="utf-8"?>
<!-- Generator: Adobe Illustrator 21.0.2, SVG Export Plug-In . SVG Version: 6.00 Build 0)  -->
<svg version="1.1" id="Слой_1" xmlns="http://www.w3.org/2000/svg" xmlns:xlink="http://www.w3.org/1999/xlink" x="0px" y="0px"
	 viewBox="0 0 25 25" style="enable-background:new 0 0 25 25;" xml:space="preserve">
<style type="text/css">
	.st0{fill:#88959C;}
	.st1{fill:#FFFFFF;}
</style>
<circle class="st0" cx="12.5" cy="12.5" r="10.6"/>
<g id="_x30_06-padlock" transform="translate(6.000000, 4.000000)">
	<path id="Combined-Shape" class="st1" d="M10,13.4H3.5c-0.7,0-1.2-0.6-1.2-1.3V8.1c0-0.6,0.4-1.1,1-1.2V5c0-2,1.6-3.6,3.5-3.6
		c1.9,0,3.5,1.6,3.5,3.6v1.8c0.6,0.1,1,0.6,1,1.2v4.1h0C11.2,12.9,10.7,13.4,10,13.4z M6.7,8.7c-0.6,0-1.1,0.5-1.1,1.1
		c0,0.4,0.2,0.8,0.6,1V12h1.1v-1.2c0.3-0.2,0.6-0.6,0.6-1C7.8,9.2,7.3,8.7,6.7,8.7z M6.7,3.3C5.8,3.3,5,4,5,5v1.8h3.4V5
		C8.4,4,7.6,3.3,6.7,3.3z"/>
</g>
</svg>
