<?xml version="1.0" encoding="utf-8"?>
<!-- Generator: Adobe Illustrator 18.1.1, SVG Export Plug-In . SVG Version: 6.00 Build 0)  -->
<svg version="1.1" id="Layer_1" xmlns="http://www.w3.org/2000/svg" xmlns:xlink="http://www.w3.org/1999/xlink" x="0px" y="0px"
	 width="16px" height="16px" viewBox="-0.332 -0.333 16 16" enable-background="new -0.332 -0.333 16 16" xml:space="preserve">
<rect x="-0.332" y="-0.333" fill="#62B146" width="16" height="16"/>
<g>
	<path display="none" fill="#FFFFFF" d="M6.781,8.207H3.563v2.455h3.765v1.053h-5.06V3.894H7.29v1.063H3.563v2.208H6.78L6.781,8.207
		L6.781,8.207z"/>
	<path display="none" fill="#FFFFFF" d="M10.213,10.662h3.728v1.053H8.924V3.894h1.289C10.213,3.894,10.213,10.662,10.213,10.662z"
		/>
</g>
<g display="none">
	<path display="inline" fill="#FFFFFF" d="M7.247,4.619h-2.62v7.371h-1.4V4.619H0.626v-1.16h6.621
		C7.247,3.459,7.247,4.619,7.247,4.619z"/>
	<path display="inline" fill="#FFFFFF" d="M11.267,8.662h-1.43v3.328H8.431V3.459h2.695c0.438,0.004,0.841,0.06,1.21,0.167
		s0.688,0.268,0.958,0.48c0.27,0.212,0.479,0.479,0.627,0.8s0.223,0.695,0.223,1.125c0,0.289-0.038,0.552-0.114,0.788
		s-0.183,0.45-0.319,0.642S13.41,7.82,13.219,7.965s-0.402,0.268-0.633,0.369l1.805,3.586v0.07h-1.5L11.267,8.662z M9.837,7.525
		h1.295c0.234,0,0.449-0.033,0.645-0.1s0.364-0.16,0.506-0.283s0.253-0.273,0.331-0.451s0.117-0.382,0.117-0.612
		c0-0.238-0.037-0.449-0.111-0.633s-0.181-0.338-0.319-0.463s-0.308-0.22-0.507-0.284S11.372,4.6,11.126,4.596H9.837V7.525z"/>
</g>
<g>
	<path fill="#FFFFFF" d="M7.1,9.305c-0.039,0.41-0.137,0.784-0.293,1.122s-0.363,0.627-0.621,0.867s-0.562,0.426-0.911,0.557
		s-0.739,0.196-1.169,0.196c-0.52,0-0.973-0.101-1.359-0.302s-0.709-0.474-0.967-0.817s-0.451-0.746-0.58-1.207S1.004,8.768,1,8.244
		V7.078c0.004-0.52,0.072-1.011,0.205-1.474s0.329-0.867,0.589-1.213s0.583-0.619,0.97-0.82S3.6,3.269,4.111,3.269
		c0.449,0,0.85,0.066,1.201,0.199s0.652,0.32,0.902,0.563s0.449,0.537,0.598,0.885S7.057,5.65,7.1,6.076H5.693
		C5.67,5.826,5.622,5.598,5.55,5.393S5.379,5.012,5.254,4.866S4.972,4.607,4.782,4.529S4.369,4.412,4.111,4.412
		c-0.316,0-0.582,0.072-0.797,0.217S2.926,4.967,2.793,5.211S2.565,5.738,2.509,6.058S2.424,6.714,2.424,7.066v1.178
		c0,0.367,0.028,0.712,0.085,1.034s0.149,0.604,0.278,0.847s0.301,0.434,0.516,0.574s0.482,0.211,0.803,0.211
		c0.492,0,0.867-0.14,1.125-0.419s0.41-0.675,0.457-1.187H7.1z"/>
	<path fill="#FFFFFF" d="M10.053,8.654v3.27H8.646V3.392H11.5c0.426,0.004,0.819,0.067,1.181,0.19s0.673,0.299,0.935,0.527
		s0.466,0.506,0.612,0.832s0.22,0.694,0.22,1.104c0,0.398-0.073,0.758-0.22,1.078s-0.351,0.594-0.612,0.82
		c-0.262,0.227-0.573,0.401-0.935,0.522S11.926,8.65,11.5,8.654H10.053z M10.053,7.517H11.5c0.238,0,0.451-0.036,0.639-0.108
		s0.348-0.173,0.48-0.302s0.234-0.283,0.305-0.463s0.105-0.375,0.105-0.586c0-0.223-0.035-0.428-0.105-0.615
		s-0.172-0.349-0.305-0.483s-0.293-0.239-0.48-0.313s-0.4-0.113-0.639-0.117h-1.447V7.517z"/>
</g>
</svg>
