<?xml version="1.0" encoding="utf-8"?>
<!-- Generator: Adobe Illustrator 18.1.1, SVG Export Plug-In . SVG Version: 6.00 Build 0)  -->
<svg version="1.1" id="Layer_1" xmlns="http://www.w3.org/2000/svg" xmlns:xlink="http://www.w3.org/1999/xlink" x="0px" y="0px"
	 width="16px" height="16px" viewBox="-0.359 0.456 16 16" enable-background="new -0.359 0.456 16 16" xml:space="preserve">
<rect x="-0.359" y="0.456" fill="#CFD5E0" width="16" height="16"/>
<g>
	<path display="none" fill="#FFFFFF" d="M6.781,8.207H3.563v2.455h3.765v1.053h-5.06V3.894H7.29v1.063H3.563v2.208H6.78L6.781,8.207
		L6.781,8.207z"/>
	<path display="none" fill="#FFFFFF" d="M10.213,10.662h3.728v1.053H8.924V3.894h1.289C10.213,3.894,10.213,10.662,10.213,10.662z"
		/>
</g>
<g>
	<path fill="#FFFFFF" d="M4.861,9.048C4.836,9.321,4.77,9.57,4.666,9.796s-0.242,0.418-0.414,0.578s-0.375,0.283-0.607,0.371
		c-0.233,0.087-0.493,0.131-0.779,0.131c-0.346,0-0.648-0.067-0.906-0.201c-0.258-0.135-0.473-0.316-0.645-0.545
		C1.143,9.9,1.014,9.633,0.928,9.325s-0.13-0.636-0.133-0.984V7.563C0.797,7.217,0.843,6.89,0.932,6.581s0.219-0.578,0.393-0.809
		S1.713,5.36,1.971,5.226s0.557-0.201,0.898-0.201c0.299,0,0.566,0.044,0.801,0.133s0.435,0.213,0.602,0.375S4.57,5.89,4.67,6.122
		s0.162,0.49,0.191,0.773H3.924C3.908,6.729,3.876,6.577,3.828,6.44S3.714,6.187,3.631,6.089S3.443,5.917,3.316,5.864
		S3.041,5.786,2.869,5.786c-0.211,0-0.388,0.048-0.531,0.145S2.079,6.157,1.99,6.319S1.838,6.67,1.801,6.884
		S1.744,7.321,1.744,7.556v0.785c0,0.245,0.019,0.475,0.057,0.689s0.1,0.403,0.186,0.564S2.187,9.884,2.33,9.978
		s0.322,0.141,0.535,0.141c0.328,0,0.578-0.093,0.75-0.279s0.273-0.45,0.305-0.791H4.861z"/>
	<path fill="#FFFFFF" d="M5.947,5.106H9.33v0.777H8.1v4.137h1.23v0.773H5.947v-0.773H7.15V5.884H5.947V5.106z"/>
	<path fill="#FFFFFF" d="M14.029,8.372h-2.387v2.422h-0.945V5.106h3.684V5.88h-2.738v1.723h2.387V8.372z"/>
</g>
</svg>
