<?xml version="1.0" encoding="utf-8"?>
<!-- Generator: Adobe Illustrator 21.0.2, SVG Export Plug-In . SVG Version: 6.00 Build 0)  -->
<svg version="1.1" id="Слой_1" xmlns="http://www.w3.org/2000/svg" xmlns:xlink="http://www.w3.org/1999/xlink" x="0px" y="0px"
	 viewBox="0 0 14 14" enable-background="new 0 0 14 14" xml:space="preserve">
<g>
	<g transform="translate(-205 -119)">
		<g>
			<g>
				<path id="_x38_npna" fill="#88959C" d="M212,133c3.9,0,7-3.1,7-7c0-3.9-3.1-7-7-7s-7,3.1-7,7C205,129.9,208.1,133,212,133z"/>
			</g>
		</g>
		<g>
			<g>
				<g>
					<path id="_x38_npnb" fill="#FFFFFF" d="M213.7,125c0.3-0.2,0.4-0.4,0.4-0.7v-1.4h-3.8v1.4c0,0.3,0.1,0.6,0.4,0.7l1.3,0.8v0.3
						l-1.3,0.8c-0.3,0.2-0.4,0.4-0.4,0.7v1.4h3.8v-1.4c0-0.3-0.2-0.6-0.4-0.7l-1.2-0.8v-0.3L213.7,125z"/>
				</g>
			</g>
			<g>
				<g>
					<path id="_x38_npnc" fill="#FFFFFF" d="M209.6,129.6v-0.5h5.1v0.5H209.6z"/>
				</g>
			</g>
			<g>
				<g>
					<path id="_x38_npnd" fill="#FFFFFF" d="M215.4,129.6c0,0.1-0.1,0.1-0.1,0.1h-6.1c-0.1,0-0.1-0.1-0.1-0.1c0-0.1,0.1-0.1,0.1-0.1
						h0.4v-0.5h5.3v0.5h0.4C215.3,129.4,215.4,129.5,215.4,129.6L215.4,129.6z M209.8,129.4h4.8v-0.3h-4.8V129.4z"/>
				</g>
			</g>
			<g>
				<g>
					<path id="_x38_npne" fill="#FFFFFF" d="M209.6,122.9v-0.5h5.1v0.5H209.6z"/>
				</g>
			</g>
			<g>
				<g>
					<path id="_x38_npnf" fill="#FFFFFF" d="M215.4,122.4c0,0.1-0.1,0.1-0.1,0.1h-0.4v0.5h-5.3v-0.5h-0.4c-0.1,0-0.1,0-0.1-0.1
						c0,0,0,0,0,0c0-0.1,0.1-0.1,0.1-0.1h6.1C215.3,122.3,215.3,122.4,215.4,122.4L215.4,122.4z M214.6,122.6h-4.8v0.3h4.8V122.6z"
						/>
				</g>
			</g>
			<g>
				<g>
					<path id="_x38_npng" fill="#FFFFFF" d="M211.5,125.3L211.5,125.3l-0.7-0.4c-0.1-0.1-0.2-0.3-0.2-0.4v-0.3
						c0-0.1,0.1-0.1,0.1-0.1s0.1,0.1,0.1,0.1v0.3c0,0.1,0.1,0.2,0.1,0.2l0.6,0.4C211.7,125.1,211.7,125.2,211.5,125.3
						C211.6,125.2,211.6,125.3,211.5,125.3L211.5,125.3z"/>
				</g>
			</g>
			<g>
				<g>
					<path id="_x38_npnh" fill="#FFFFFF" d="M213.6,128c-0.1,0-0.1,0-0.1-0.1c0,0,0,0,0,0v-0.3c0-0.1,0-0.2-0.1-0.2l-0.6-0.4
						c-0.1,0-0.1-0.1,0-0.2c0,0,0,0,0,0c0-0.1,0.1-0.1,0.2,0l0.6,0.4c0.1,0.1,0.2,0.3,0.2,0.4v0.3C213.7,127.9,213.6,128,213.6,128
						L213.6,128z"/>
				</g>
			</g>
		</g>
	</g>
</g>
</svg>
