<?xml version="1.0" encoding="utf-8"?>
<!-- Generator: Adobe Illustrator 22.1.0, SVG Export Plug-In . SVG Version: 6.00 Build 0)  -->
<svg version="1.1" id="Layer_1" xmlns="http://www.w3.org/2000/svg" xmlns:xlink="http://www.w3.org/1999/xlink" x="0px" y="0px"
	 viewBox="0 0 14 14" style="enable-background:new 0 0 14 14;" xml:space="preserve">
<style type="text/css">
	.st0{fill:none;}
	.st1{fill:#9B9B9B;}
</style>
<title>Shape</title>
<desc>Created with Sketch.</desc>
<g>
	<polygon class="st0" points="1.2,10.6 1.2,12.6 3.2,12.6 10.4,5.4 8.4,3.4 	"/>
	<rect x="10" y="1.6" transform="matrix(0.7071 -0.7071 0.7071 0.7071 1.0524 8.5344)" class="st0" width="1.6" height="2.8"/>
	<path class="st1" d="M13.6,3l-2.8-2.8c-0.2-0.2-0.6-0.2-0.9,0l-2,2L0.2,9.9C0.1,10.1,0,10.2,0,10.4l0,2.8c0,0.2,0.1,0.3,0.2,0.4
		c0.1,0.1,0.3,0.2,0.4,0.2l2.8,0c0.2,0,0.3-0.1,0.4-0.2l9.8-9.8C13.9,3.6,13.9,3.3,13.6,3z M3.2,12.6l-2,0l0-2l7.2-7.2l2,2L3.2,12.6
		z M11.3,4.5l-2-2l1.1-1.1l2,2L11.3,4.5z"/>
</g>
</svg>
