<?xml version="1.0" encoding="UTF-8"?>
<svg width="55px" height="55px" viewBox="0 0 55 55" version="1.1" xmlns="http://www.w3.org/2000/svg" xmlns:xlink="http://www.w3.org/1999/xlink">
    <!-- Generator: Sketch 3.8.3 (29802) - http://www.bohemiancoding.com/sketch -->
    <title>Entity</title>
    <desc>Created with Sketch.</desc>
    <defs>
        <linearGradient x1="50%" y1="0%" x2="50%" y2="100%" id="linearGradient-1">
            <stop stop-color="#3CACA2" offset="0%"></stop>
            <stop stop-color="#39A299" offset="100%"></stop>
        </linearGradient>
        <path d="M27.5000004,55.1000008 C42.7430597,55.1000008 55.1000008,42.7430597 55.1000008,27.5000004 C55.1000008,12.2569411 42.7430597,-0.100000001 27.5000004,-0.100000001 C12.2569411,-0.100000001 -0.100000001,12.2569411 -0.100000001,27.5000004 C-0.100000001,42.7430597 12.2569411,55.1000008 27.5000004,55.1000008 Z" id="path-2"></path>
    </defs>
    <g id="Symbols" stroke="none" stroke-width="1" fill="none" fill-rule="evenodd">
        <g id="Entity">
            <mask id="mask-3" fill="white">
                <use xlink:href="#path-2"></use>
            </mask>
            <use id="Mask" fill="url(#linearGradient-1)" xlink:href="#path-2"></use>
            <path d="M27.5,55 C42.6878306,55 55,42.6878306 55,27.5 C55,12.3121694 42.6878306,0 27.5,0 C12.3121694,0 0,12.3121694 0,27.5 C0,42.6878306 12.3121694,55 27.5,55 Z" id="Oval" fill="url(#linearGradient-1)" mask="url(#mask-3)"></path>
            <g id="Combined-Shape" mask="url(#mask-3)" fill="#FFFFFF">
                <g transform="translate(15.000000, 21.000000)">
                    <path d="M0,9.81652748 L13,0 L18.0375142,3.80391509 L18.0375137,0.981652748 L22.0819969,0.981652748 L22.0819977,6.85797536 L26,9.81652748 L26,34 L0,34 L0,9.81652748 Z M5,13 L11,13 L11,19 L5,19 L5,13 Z M15,13 L21,13 L21,19 L15,19 L15,13 Z M5,23 L11,23 L11,29 L5,29 L5,23 Z M15,23 L21,23 L21,29 L15,29 L15,23 Z"></path>
                </g>
            </g>
        </g>
    </g>
</svg>