<svg id="Layer_1" data-name="Layer 1" xmlns="http://www.w3.org/2000/svg" viewBox="0 0 16 16"><defs><style>.cls-1{fill:#62b146;}.cls-2{fill:#fff;}</style></defs><title>fr-sm</title><rect class="cls-1" width="16" height="16"/><path class="cls-2" d="M1.69,3.16H6.75V4.47H3.29V6.89H6.51V8.21H3.29v3.72H1.69V3.16Z" transform="translate(0 0)"/><path class="cls-2" d="M8.31,3.28a15.18,15.18,0,0,1,2.42-.18,4.06,4.06,0,0,1,2.7.7,2.22,2.22,0,0,1,.75,1.76,2.34,2.34,0,0,1-1.59,2.2v0a2.23,2.23,0,0,1,1.22,1.69,17.47,17.47,0,0,0,.69,2.44H12.86a12.25,12.25,0,0,1-.59-2.07C12,8.71,11.61,8.35,10.7,8.32H9.89v3.6H8.31V3.28ZM9.89,7.15h0.95A1.51,1.51,0,0,0,12.6,5.71c0-1-.68-1.4-1.72-1.4a4.64,4.64,0,0,0-1,.08V7.15Z" transform="translate(0 0)"/></svg>