<svg xmlns="http://www.w3.org/2000/svg" viewBox="0 0 56.2 29.1"><path d="M31.5 9.8l4.5-.6c-.3-4.2-2.7-5.9-5.7-6.3V0H26v3c-3.2.7-5.8 3-5.8 6.7 0 4.8 3.6 6.1 6.7 7 2.4.7 4.6 1.2 4.6 3.4 0 1.8-1.4 2.7-3.5 2.7-3 0-3.7-1.3-4.1-3.8l-4.4.8c.5 4.7 3.2 6.3 6.2 6.7v2.7H30v-2.7c3.7-.6 6.5-2.9 6.5-7.1 0-4.8-3.6-6-6.9-6.9-2.7-.7-4.3-1.5-4.3-3.5 0-1.4.9-2.4 3-2.4 2.2 0 2.9 1.1 3.2 3.2zM11.9 9.8l4.5-.5c-.3-4.2-2.7-5.9-5.7-6.3V0H6.4v3C3.2 3.7.7 6 .7 9.7c0 4.8 3.6 6.1 6.7 7 2.4.6 4.6 1.1 4.6 3.3 0 1.8-1.4 2.7-3.5 2.7-3 0-3.7-1.3-4.1-3.8l-4.4.9c.5 4.7 3.2 6.3 6.2 6.7v2.7h4.3v-2.7c3.7-.6 6.5-2.9 6.5-7.1 0-4.8-3.6-6-6.9-6.9C7.3 11.8 5.8 11 5.8 9c0-1.4.9-2.4 3-2.4s2.8 1.1 3.1 3.2zM51.2 9.8l4.5-.5C55.4 5.1 53 3.4 50 3V0h-4.2v3c-3.2.7-5.8 3-5.8 6.7 0 4.8 3.6 6.1 6.7 7 2.4.7 4.6 1.2 4.6 3.4 0 1.8-1.4 2.7-3.5 2.7-3 0-3.7-1.3-4.1-3.8l-4.4.8c.5 4.7 3.2 6.3 6.2 6.7v2.7h4.3v-2.7c3.7-.6 6.5-2.9 6.5-7.1 0-4.8-3.6-6-6.9-6.9C46.6 11.8 45 11 45 9c0-1.4.9-2.4 3-2.4 2.2 0 2.9 1.1 3.2 3.2z" fill="#D3D3D3"/></svg>