<?xml version="1.0" encoding="utf-8"?>
<!-- Generator: Adobe Illustrator 21.0.2, SVG Export Plug-In . SVG Version: 6.00 Build 0)  -->
<svg version="1.1" id="Слой_1" xmlns="http://www.w3.org/2000/svg" xmlns:xlink="http://www.w3.org/1999/xlink" x="0px" y="0px"
	 viewBox="0 0 21 21" style="enable-background:new 0 0 21 21;" xml:space="preserve">
<style type="text/css">
	.st0{fill:#88959C;}
	.st1{fill:#FFFFFF;}
</style>
<title>FE007719-2164-43EA-9567-17A073F59082</title>
<desc>Created with sketchtool.</desc>
<g id="Group-26" transform="translate(640.000000, 226.000000)">
	<g id="Group-14" transform="translate(0.000000, 43.000000)">
		<g id="status-12-sent-icon" transform="translate(37.000000, 12.000000)">
			<g id="Oval-12-Copy-2">
				<g>
					<path id="path-1" class="st0" d="M-666.5-260c5.8,0,10.5-4.7,10.5-10.5s-4.7-10.5-10.5-10.5s-10.5,4.7-10.5,10.5
						S-672.3-260-666.5-260z"/>
				</g>
			</g>
			<g id="hourglass-2" transform="translate(6.000000, 5.000000)">
				<path id="Shape" class="st1" d="M-670-276.9c0.4-0.2,0.6-0.6,0.6-1.1v-2.1h-5.7v2.1c0,0.4,0.2,0.8,0.6,1.1l1.9,1.2v0.5l-1.9,1.2
					c-0.4,0.2-0.6,0.6-0.6,1.1v2.1h5.7v-2.1c0-0.4-0.2-0.8-0.6-1.1l-1.9-1.2v-0.5L-670-276.9z"/>
				<rect id="Rectangle-path" x="-676" y="-270.9" class="st1" width="7.6" height="1"/>
				<path id="Shape_1_" class="st1" d="M-667.6-270.3h-0.6v-0.7h-8v0.7h-0.6c-0.1,0-0.2,0.1-0.2,0.2s0.1,0.2,0.2,0.2h0.6h0.2h7.6
					h0.2h0.6c0.1,0,0.2-0.1,0.2-0.2S-667.5-270.3-667.6-270.3z M-675.8-270.7h7.2v0.4h-7.2V-270.7z"/>
				<rect id="Rectangle-path_1_" x="-676" y="-280.8" class="st1" width="7.6" height="1"/>
				<path id="Shape_2_" class="st1" d="M-667.6-281h-0.6h-0.2h-7.6h-0.2h-0.6c-0.1,0-0.2,0.1-0.2,0.2s0.1,0.2,0.2,0.2h0.6v0.7h8
					v-0.7h0.6c0.1,0,0.2-0.1,0.2-0.2S-667.5-281-667.6-281z M-668.6-280.2h-7.2v-0.4h7.2V-280.2z"/>
				<path id="Shape_3_" class="st1" d="M-673.2-276.6L-673.2-276.6l-1-0.6c-0.2-0.1-0.3-0.4-0.3-0.6v-0.4c0-0.1,0.1-0.2,0.2-0.2
					c0.1,0,0.2,0.1,0.2,0.2v0.4c0,0.1,0.1,0.2,0.2,0.3l0.9,0.6c0.1,0.1,0.1,0.2,0.1,0.3C-673-276.6-673.1-276.6-673.2-276.6z"/>
				<path id="Shape_4_" class="st1" d="M-670.1-272.5c-0.1,0-0.2-0.1-0.2-0.2v-0.4c0-0.1-0.1-0.2-0.2-0.3l-0.9-0.6
					c-0.1-0.1-0.1-0.2-0.1-0.3c0.1-0.1,0.2-0.1,0.3-0.1l0.9,0.6c0.2,0.1,0.3,0.4,0.3,0.6v0.4C-669.9-272.6-670-272.5-670.1-272.5z"
					/>
			</g>
		</g>
	</g>
</g>
</svg>
