<?xml version="1.0" encoding="utf-8"?>
<!-- Generator: Adobe Illustrator 22.1.0, SVG Export Plug-In . SVG Version: 6.00 Build 0)  -->
<svg version="1.1" id="Layer_1" xmlns="http://www.w3.org/2000/svg" xmlns:xlink="http://www.w3.org/1999/xlink" x="0px" y="0px"
	 viewBox="0 0 21 16" style="enable-background:new 0 0 21 16;" xml:space="preserve">
<style type="text/css">
	.st0{fill:none;}
	.st1{fill:#767E83;}
</style>
<title>10</title>
<desc>Created with Sketch.</desc>
<g>
	<path class="st0" d="M16.9,1.1c-0.2-0.2-0.5-0.4-0.9-0.4c-0.3,0-0.6,0.1-0.8,0.3c-0.3,0.3-0.5,0.7-0.6,1.4c-0.1,0.7-0.1,3-0.1,7
		c0,2.2,0.1,3.6,0.2,4.4c0.1,0.5,0.3,0.9,0.5,1.1c0.2,0.2,0.5,0.3,0.8,0.3c0.4,0,0.7-0.1,0.9-0.4c0.3-0.4,0.5-1.1,0.5-2l0-4.9
		c0-2.7,0-4.3,0-4.7C17.4,2.2,17.2,1.5,16.9,1.1z"/>
	<path class="st1" d="M6.7,15c-0.3-0.2-0.4-0.4-0.5-0.6s-0.1-0.9-0.1-1.8V0H5.7L0,2.6L0.2,3c0.6-0.2,1-0.4,1.4-0.4
		c0.2,0,0.5,0.1,0.6,0.2c0.2,0.1,0.3,0.3,0.4,0.5s0.1,0.6,0.1,1.3v8c0,1,0,1.6-0.1,1.8C2.5,14.7,2.3,14.9,2,15
		c-0.3,0.2-0.8,0.2-1.4,0.2H0.2v0.4h8.2v-0.4H8C7.4,15.3,7,15.2,6.7,15z"/>
	<path class="st1" d="M20.2,3.4c-0.4-1-0.9-1.8-1.7-2.5C17.7,0.3,16.9,0,16,0c-0.9,0-1.7,0.3-2.5,0.9c-0.8,0.6-1.4,1.5-1.8,2.7
		C11.2,5,11,6.5,11,8.2c0,1.2,0.2,2.4,0.5,3.6c0.3,0.9,0.5,1.5,0.9,2.1c0.5,0.7,1,1.2,1.6,1.6c0.6,0.4,1.3,0.6,2,0.6
		c0.7,0,1.3-0.2,1.8-0.5c0.6-0.3,1.1-0.7,1.5-1.2c0.4-0.5,0.8-1.2,1-2C20.8,11,21,9.5,21,8C21,6.3,20.7,4.8,20.2,3.4z M17.4,12.8
		c0,0.9-0.2,1.5-0.5,2c-0.2,0.2-0.5,0.4-0.9,0.4c-0.4,0-0.6-0.1-0.8-0.3c-0.2-0.2-0.4-0.5-0.5-1.1c-0.2-0.7-0.2-2.2-0.2-4.4
		c0-4,0-6.3,0.1-7c0.1-0.7,0.3-1.1,0.6-1.4c0.2-0.2,0.4-0.3,0.8-0.3c0.4,0,0.7,0.1,0.9,0.4c0.3,0.4,0.5,1.1,0.5,2.1c0,0.4,0,2,0,4.7
		L17.4,12.8z"/>
</g>
</svg>
