<?xml version="1.0" encoding="UTF-8" standalone="no"?>
<svg width="16px" height="16px" viewBox="0 0 16 16" version="1.1" xmlns="http://www.w3.org/2000/svg" xmlns:xlink="http://www.w3.org/1999/xlink">
    <!-- Generator: Sketch 3.6.1 (26313) - http://www.bohemiancoding.com/sketch -->
    <title>Deal Memo 16 Dis</title>
    <desc>Created with Sketch.</desc>
    <defs></defs>
    <g id="assets" stroke="none" stroke-width="1" fill="none" fill-rule="evenodd">
        <g id="Deal-Memo-16-Dis">
            <rect id="Rectangle-128" fill="#CFD5E0" x="0" y="0" width="16" height="16"></rect>
            <path d="M1.67138672,12 L1.67138672,4.1796875 L3.69628906,4.1796875 C4.21549739,4.1796875 4.68546339,4.26830966 5.10620117,4.44555664 C5.52693895,4.62280362 5.88679864,4.86987146 6.18579102,5.18676758 C6.4847834,5.50366369 6.71573812,5.88232202 6.87866211,6.32275391 C7.0415861,6.7631858 7.12304688,7.2465794 7.12304688,7.77294922 L7.12304688,8.41748047 C7.12304688,8.94385029 7.0415861,9.42634872 6.87866211,9.86499023 C6.71573812,10.3036318 6.48746892,10.6813949 6.19384766,10.998291 C5.9002264,11.3151871 5.5475281,11.5613598 5.13574219,11.7368164 C4.72395627,11.912273 4.26920822,12 3.77148438,12 L1.67138672,12 Z M3.19140625,5.40429688 L3.19140625,10.7861328 L3.77148438,10.7861328 C4.05436339,10.7861328 4.30769745,10.7324224 4.53149414,10.625 C4.75529083,10.5175776 4.94506758,10.3618174 5.10083008,10.1577148 C5.25659258,9.95361226 5.37565063,9.70564925 5.45800781,9.41381836 C5.540365,9.12198747 5.58154297,8.78987816 5.58154297,8.41748047 L5.58154297,7.76220703 C5.58154297,7.41129382 5.54126017,7.09171694 5.46069336,6.8034668 C5.38012655,6.51521666 5.26017332,6.26725364 5.10083008,6.05957031 C4.94148683,5.85188698 4.7445487,5.69075578 4.51000977,5.57617188 C4.27547083,5.46158797 4.00423331,5.40429688 3.69628906,5.40429688 L3.19140625,5.40429688 Z M10.1577148,4.1796875 L10.8989258,7.11767578 L11.7421875,4.1796875 L13.6166992,4.1796875 L13.6166992,12 L12.230957,12 L12.230957,9.68505859 L12.2954102,6.02734375 L11.2695312,9.421875 L10.5229492,9.421875 L9.60449219,6.17236328 L9.66894531,9.68505859 L9.66894531,12 L8.28320312,12 L8.28320312,4.1796875 L10.1577148,4.1796875 Z" id="EL" fill="#FFFFFF"></path>
        </g>
    </g>
</svg>