<?xml version="1.0" encoding="UTF-8" standalone="no"?>
<svg width="69px" height="69px" viewBox="0 0 69 69" version="1.1" xmlns="http://www.w3.org/2000/svg" xmlns:xlink="http://www.w3.org/1999/xlink">
    <!-- Generator: Sketch 3.6.1 (26313) - http://www.bohemiancoding.com/sketch -->
    <title>Deal Memo 69</title>
    <desc>Created with Sketch.</desc>
    <defs>
        <linearGradient x1="50%" y1="0%" x2="50%" y2="100%" id="linearGradient-1">
            <stop stop-color="#ECBC23" offset="0%"></stop>
            <stop stop-color="#E9B000" offset="100%"></stop>
        </linearGradient>
    </defs>
    <g id="assets" stroke="none" stroke-width="1" fill="none" fill-rule="evenodd">
        <g id="Deal-Memo-69">
            <rect id="Rectangle-128" fill="url(#linearGradient-1)" x="0" y="0" width="69" height="69" rx="3"></rect>
            <path d="M8.70898438,31 L8.70898438,11.09375 L13.8632812,11.09375 C15.1849024,11.09375 16.3811795,11.3193337 17.4521484,11.7705078 C18.5231173,12.2216819 19.4391238,12.8505819 20.2001953,13.6572266 C20.9612668,14.4638712 21.5491516,15.4277288 21.9638672,16.5488281 C22.3785828,17.6699275 22.5859375,18.9003839 22.5859375,20.2402344 L22.5859375,21.8808594 C22.5859375,23.2207098 22.3785828,24.4488876 21.9638672,25.5654297 C21.5491516,26.6819717 20.9681027,27.6435507 20.2207031,28.4501953 C19.4733036,29.25684 18.5755261,29.8834613 17.5273438,30.3300781 C16.4791614,30.7766949 15.3216209,31 14.0546875,31 L8.70898438,31 Z M12.578125,14.2109375 L12.578125,27.9101562 L14.0546875,27.9101562 C14.7747432,27.9101562 15.4195935,27.7734389 15.9892578,27.5 C16.5589221,27.2265611 17.0419902,26.8300807 17.4384766,26.3105469 C17.8349629,25.791013 18.1380198,25.1598344 18.3476562,24.4169922 C18.5572927,23.6741499 18.6621094,22.8287808 18.6621094,21.8808594 L18.6621094,20.2128906 C18.6621094,19.319657 18.5595713,18.5061886 18.3544922,17.7724609 C18.149413,17.0387333 17.8440775,16.4075547 17.4384766,15.8789062 C17.0328756,15.3502578 16.5315785,14.9401056 15.9345703,14.6484375 C15.3375621,14.3567694 14.6471393,14.2109375 13.8632812,14.2109375 L12.578125,14.2109375 Z M30.3105469,11.09375 L32.1972656,18.5722656 L34.34375,11.09375 L39.1152344,11.09375 L39.1152344,31 L35.5878906,31 L35.5878906,25.1074219 L35.7519531,15.796875 L33.140625,24.4375 L31.2402344,24.4375 L28.9023438,16.1660156 L29.0664062,25.1074219 L29.0664062,31 L25.5390625,31 L25.5390625,11.09375 L30.3105469,11.09375 Z" id="DM" fill="#FFFFFF"></path>
        </g>
    </g>
</svg>