<?xml version="1.0" encoding="UTF-8" standalone="no"?>
<svg width="16px" height="16px" viewBox="0 0 16 16" version="1.1" xmlns="http://www.w3.org/2000/svg" xmlns:xlink="http://www.w3.org/1999/xlink" xmlns:sketch="http://www.bohemiancoding.com/sketch/ns">
    <!-- Generator: Sketch 3.4 (15588) - http://www.bohemiancoding.com/sketch -->
    <title>File icon image</title>
    <desc>Created with Sketch.</desc>
    <defs></defs>
    <g id="assets" stroke="none" stroke-width="1" fill="none" fill-rule="evenodd" sketch:type="MSPage">
        <g id="File-icon-image" sketch:type="MSLayerGroup">
            <rect id="Rectangle-128" fill="#F6A623" sketch:type="MSShapeGroup" x="0" y="0" width="16" height="16"></rect>
            <g id="editor_image_picture_photo_outline_stroke" transform="translate(0.000000, 3.000000)" fill="#FFFFFF" sketch:type="MSShapeGroup">
                <path d="M5.90188719,0.751001058 L8.4347635,5.12524703 C8.46593139,5.17907365 8.53324899,5.19313472 8.58321351,5.15799528 L10.7318299,3.64689757 C10.8324002,3.57616763 10.9663244,3.60084251 11.0334822,3.70596139 L14.9384108,9.81815449 C15.0044386,9.92150443 14.9566985,10.0052862 14.8401146,10.0052862 L1.10747777,10.0052862 C0.986841391,10.0052862 0.934427141,9.91777981 0.991393522,9.80793356 L5.43681794,1.23597591 L5.68687962,0.753790675 C5.74340443,0.644795829 5.84078958,0.645486278 5.90188719,0.751001058 L5.90188719,0.751001058 Z M13.0485235,2.33333333 C13.6928557,2.33333333 14.2151902,1.81099889 14.2151902,1.16666667 C14.2151902,0.522334431 13.6928557,0 13.0485235,0 C12.4041913,0 11.8818569,0.522334431 11.8818569,1.16666667 C11.8818569,1.81099889 12.4041913,2.33333333 13.0485235,2.33333333 L13.0485235,2.33333333 Z" id="path-1"></path>
            </g>
        </g>
    </g>
</svg>