<?xml version="1.0" encoding="utf-8"?>
<!-- Generator: Adobe Illustrator 21.0.2, SVG Export Plug-In . SVG Version: 6.00 Build 0)  -->
<svg version="1.1" id="Слой_1" xmlns="http://www.w3.org/2000/svg" xmlns:xlink="http://www.w3.org/1999/xlink" x="0px" y="0px"
	 viewBox="0 0 11.9 11.9" enable-background="new 0 0 11.9 11.9" xml:space="preserve">
<g>
	<g transform="translate(-1090 -74)">
		<g>
			<path id="u6dza" fill="#D1D4DA" d="M1093.1,81.7c-1.2-1.7-1.2-4,0-5.7c1.6-2.2,4.6-2.7,6.8-1.1c2.2,1.6,2.7,4.6,1.1,6.8
				s-4.6,2.7-6.8,1.1l-3.1,3.1l-1.1-1.1L1093.1,81.7z M1100.2,78.9c0-1.9-1.4-3.4-3.3-3.4l0,0c-1.8,0-3.3,1.5-3.3,3.4
				c0,1.8,1.5,3.3,3.4,3.3S1100.4,80.7,1100.2,78.9z"/>
		</g>
	</g>
</g>
</svg>
