<?xml version="1.0" encoding="UTF-8"?>
<svg width="16px" height="16px" viewBox="0 0 16 16" version="1.1" xmlns="http://www.w3.org/2000/svg" xmlns:xlink="http://www.w3.org/1999/xlink">
    <!-- Generator: Sketch 51.3 (57544) - http://www.bohemiancoding.com/sketch -->
    <title>Group 27</title>
    <desc>Created with Sketch.</desc>
    <defs></defs>
    <g id="ISSUER" stroke="none" stroke-width="1" fill="none" fill-rule="evenodd">
        <g id="Group-27">
            <rect id="Rectangle-128" fill="#3CACA2" x="0" y="0" width="16" height="16"></rect>
            <path d="M7.06078975,9.71155734 C7.06078975,10.2755587 6.85688461,10.7180763 6.44906822,11.0391232 C6.04125182,11.3601702 5.47870502,11.5206912 4.76141094,11.5206912 C4.04411686,11.5206912 3.45698575,11.4093388 3,11.1866305 L3,10.2061407 C3.28923149,10.3420795 3.59653533,10.4490935 3.92192075,10.527186 C4.24730617,10.6052786 4.55027161,10.6443242 4.83082615,10.6443242 C5.24153486,10.6443242 5.54450029,10.5662329 5.73973155,10.4100479 C5.9349628,10.2538629 6.03257696,10.0441732 6.03257696,9.78097255 C6.03257696,9.54380273 5.94291655,9.34278986 5.76359302,9.17792792 C5.5842695,9.01306597 5.21405876,8.81783765 4.65294967,8.59223709 C4.0744867,8.35795958 3.66667643,8.09042447 3.42950661,7.78962373 C3.19233679,7.48882298 3.07375366,7.12728905 3.07375366,6.70501108 C3.07375366,6.17571746 3.26175131,5.75923037 3.63775224,5.45553731 C4.01375317,5.15184425 4.51845454,5 5.15187149,5 C5.75925761,5 6.36374235,5.13304449 6.96534384,5.39913745 L6.63562159,6.24513532 C6.0716202,6.0079655 5.56836496,5.88938237 5.12584079,5.88938237 C4.79033227,5.88938237 4.53581238,5.96241223 4.36227348,6.10847413 C4.18873459,6.25453603 4.10196645,6.44759515 4.10196645,6.68765728 C4.10196645,6.85251923 4.13667371,6.99351746 4.20608926,7.11065621 C4.27550482,7.22779496 4.38974954,7.33842435 4.54882686,7.44254768 C4.70790418,7.54667102 4.99423905,7.68405391 5.40784008,7.85470049 C5.87350277,8.04848558 6.2147908,8.22925255 6.43171442,8.39700681 C6.64863803,8.56476107 6.80771296,8.75420485 6.90894398,8.96534384 C7.010175,9.17648282 7.06078975,9.42521817 7.06078975,9.71155734 Z M9.32546096,8.04125386 L10.0456438,8.04125386 C10.5286603,8.04125386 10.8786252,7.95159345 11.0955488,7.77226993 C11.3124724,7.5929464 11.4209326,7.32685743 11.4209326,6.97399502 C11.4209326,6.61534798 11.3037956,6.35793582 11.0695181,6.20175081 C10.8352406,6.04556581 10.4823835,5.96747448 10.0109362,5.96747448 L9.32546096,5.96747448 L9.32546096,8.04125386 Z M9.32546096,8.90026708 L9.32546096,11.4339222 L8.28857127,11.4339222 L8.28857127,5.09110746 L10.0803514,5.09110746 C10.8988765,5.09110746 11.5048073,5.24439785 11.8981622,5.55098322 C12.291517,5.8575686 12.4881914,6.32033203 12.4881914,6.93928741 C12.4881914,7.72888937 12.0774889,8.29143617 11.2560715,8.62694469 L13.0478516,11.4339222 L11.867793,11.4339222 L10.3493353,8.90026708 L9.32546096,8.90026708 Z" id="SR" fill="#FFFFFF"></path>
        </g>
    </g>
</svg>