<?xml version="1.0" encoding="utf-8"?>
<!-- Generator: Adobe Illustrator 18.1.1, SVG Export Plug-In . SVG Version: 6.00 Build 0)  -->
<svg version="1.1" id="Layer_1" xmlns="http://www.w3.org/2000/svg" xmlns:xlink="http://www.w3.org/1999/xlink" x="0px" y="0px"
	 width="16px" height="16px" viewBox="0.067 -0.275 16 16" enable-background="new 0.067 -0.275 16 16" xml:space="preserve">
<rect x="0.067" y="-0.275" fill="#CFD5E0" width="16" height="16"/>
<g>
	<path display="none" fill="#FFFFFF" d="M6.781,8.207H3.563v2.455h3.765v1.053h-5.06V3.894H7.29v1.063H3.563v2.208H6.78L6.781,8.207
		L6.781,8.207z"/>
	<path display="none" fill="#FFFFFF" d="M10.213,10.662h3.728v1.053H8.924V3.894h1.289C10.213,3.894,10.213,10.662,10.213,10.662z"
		/>
</g>
<g>
	<path fill="#FFFFFF" d="M7.806,4.619h-2.62v7.371h-1.4V4.619H1.185v-1.16h6.621C7.806,3.459,7.806,4.619,7.806,4.619z"/>
	<path fill="#FFFFFF" d="M11.826,8.662h-1.43v3.328H8.99V3.459h2.695c0.438,0.004,0.841,0.06,1.21,0.167s0.688,0.268,0.958,0.48
		c0.27,0.212,0.479,0.479,0.627,0.8s0.223,0.695,0.223,1.125c0,0.289-0.038,0.552-0.114,0.788s-0.183,0.45-0.319,0.642
		s-0.301,0.359-0.492,0.504s-0.402,0.268-0.633,0.369l1.805,3.586v0.07h-1.5L11.826,8.662z M10.396,7.525h1.295
		c0.234,0,0.449-0.033,0.645-0.1s0.364-0.16,0.506-0.283s0.253-0.273,0.331-0.451s0.117-0.382,0.117-0.612
		c0-0.238-0.037-0.449-0.111-0.633s-0.181-0.338-0.319-0.463s-0.308-0.22-0.507-0.284S11.931,4.6,11.685,4.596h-1.289V7.525z"/>
</g>
</svg>
