<svg xmlns="http://www.w3.org/2000/svg" width="70" height="70" viewBox="0 0 70 70"><title>Transaction</title><path d="M3.043 0h63.913C68.636 0 70 1.363 70 3.043v63.913C70 68.636 68.637 70 66.957 70H3.043C1.363 70 0 68.637 0 66.957V3.043C0 1.363 1.363 0 3.043 0z" fill="#C374D3"/><g fill="#FFF"><path d="M22.33 13.983h-6.11v17.2h-3.27v-17.2H6.88v-2.707h15.45v2.707zM31.71 23.417h-3.337v7.766h-3.28V11.276h6.288c1.022.01 1.963.14 2.824.39.86.25 1.606.625 2.235 1.12.628.498 1.115 1.12 1.462 1.867.347.748.52 1.623.52 2.625 0 .675-.09 1.288-.267 1.84-.178.55-.426 1.05-.745 1.496-.32.447-.702.84-1.148 1.176-.446.337-.938.625-1.477.86l4.21 8.368v.164h-3.5l-3.786-7.765zm-3.337-2.652h3.02c.548 0 1.05-.077 1.505-.232.456-.155.85-.376 1.183-.663s.59-.638.773-1.053c.183-.415.273-.89.273-1.43 0-.555-.087-1.047-.26-1.476-.173-.427-.422-.787-.745-1.08-.322-.29-.717-.512-1.182-.662s-.984-.23-1.56-.24h-3.007v6.837z"/></g></svg>