<svg xmlns="http://www.w3.org/2000/svg" xmlns:xlink="http://www.w3.org/1999/xlink" width="25" height="25" viewBox="0 0 25 25">
    <defs>
        <path id="a" d="M10.5 21C16.299 21 21 16.299 21 10.5S16.299 0 10.5 0 0 4.701 0 10.5 4.701 21 10.5 21z"/>
    </defs>
    <g fill="none" fill-rule="evenodd">
        <g transform="translate(2 2)">
            <use fill="#88959C" xlink:href="#a"/>
            <path stroke="#FFF" stroke-width="2" d="M10.5 22C4.149 22-1 16.851-1 10.5S4.149-1 10.5-1 22 4.149 22 10.5 16.851 22 10.5 22z"/>
        </g>
        <g fill="#FFF" fill-rule="nonzero">
            <path d="M15.016 11.056c.373-.24.598-.645.598-1.078v-2.06h-5.71v2.06c0 .433.224.837.598 1.078l1.876 1.206v.49l-1.876 1.206c-.374.24-.598.644-.598 1.078v2.06h5.71v-2.06c0-.434-.225-.838-.598-1.079l-1.877-1.206v-.49l1.877-1.205z"/>
            <path d="M8.952 17.095h7.614v1H8.952z"/>
            <path d="M17.327 17.646h-.57v-.734H8.76v.734h-.57A.187.187 0 0 0 8 17.83c0 .101.085.183.19.183H17.327c.105 0 .19-.082.19-.183a.187.187 0 0 0-.19-.184zm-8.185-.367h7.233v.367H9.142v-.367zM8.952 7.184h7.614v1H8.952z"/>
            <path d="M17.327 7H8.19a.187.187 0 0 0-.19.184c0 .101.085.183.19.183h.571v.734h7.995v-.734h.571c.105 0 .19-.082.19-.183a.187.187 0 0 0-.19-.184zm-.952.734H9.142v-.367h7.233v.367zM11.807 11.405a.196.196 0 0 1-.106-.03l-.882-.568a.737.737 0 0 1-.344-.62v-.408c0-.102.085-.184.19-.184s.19.082.19.184v.408c0 .127.066.244.175.314l.883.568a.18.18 0 0 1 .052.255.192.192 0 0 1-.158.081zM14.853 15.443a.187.187 0 0 1-.19-.183v-.408a.374.374 0 0 0-.175-.315l-.883-.567a.18.18 0 0 1-.053-.255.195.195 0 0 1 .264-.05l.883.567c.215.138.344.37.344.62v.408a.187.187 0 0 1-.19.183z"/>
        </g>
    </g>
</svg>
